<?xml version="1.0" encoding="UTF-8"?>
<!DOCTYPE svg PUBLIC "-//W3C//DTD SVG 1.1//EN" "http://www.w3.org/Graphics/SVG/1.1/DTD/svg11.dtd">
<!-- Creator: CorelDRAW -->
<svg xmlns="http://www.w3.org/2000/svg" xml:space="preserve" width="3.59999in" height="3.59999in" version="1.1" style="shape-rendering:geometricPrecision; text-rendering:geometricPrecision; image-rendering:optimizeQuality; fill-rule:evenodd; clip-rule:evenodd"
viewBox="0 0 3599.99 3599.99"
 xmlns:xlink="http://www.w3.org/1999/xlink"
 xmlns:xodm="http://www.corel.com/coreldraw/odm/2003">
 <defs>
  <style type="text/css">
   <![CDATA[
    .fil0 {fill:none}
    .fil2 {fill:#01215B}
    .fil1 {fill:#01215B;fill-rule:nonzero}
   ]]>
  </style>
 </defs>
 <g id="Capa_x0020_1">
  <metadata id="CorelCorpID_0Corel-Layer"/>
  <rect class="fil0" x="-0.01" y="-0" width="3600" height="3600"/>
  <g id="_2353548166416">
   <path class="fil1" d="M469.37 2975.36l-108.71 -197.27c-1.15,-2.02 -3.31,-3.31 -5.76,-3.31l-75.6 0c-3.6,0 -6.48,2.88 -6.48,6.48l0 301.81c0,3.6 2.88,6.48 6.48,6.48l60.33 -0.01c3.6,0 6.48,-2.88 6.48,-6.48 0,-28.94 0,-147.16 -0.29,-193.24 0,-1.73 2.16,-2.3 3.02,-0.72l111.3 197.27c1.15,2.01 3.31,3.31 5.62,3.31l73 -0.01c3.6,0 6.48,-2.88 6.48,-6.48l0 -301.81c0,-3.6 -2.88,-6.48 -6.48,-6.48l-60.33 0c-3.6,0 -6.48,2.88 -6.48,6.48 0,28.94 0,146.87 0.29,193.38 0,1.73 -2.3,2.3 -3.03,0.72l0.15 -0.14z"/>
   <path class="fil1" d="M657.86 2958.8l122.54 0c3.6,0 6.48,-2.88 6.48,-6.48l0 -47.37c0,-3.6 -2.88,-6.48 -6.48,-6.48l-122.54 0c-0.86,0 -1.58,-0.72 -1.58,-1.58l0 -59.76c0,-0.87 0.72,-1.58 1.58,-1.58l128.3 -0c4.18,0 7.34,-3.89 6.33,-8.07l-11.37 -47.8c-0.72,-2.88 -3.31,-5.04 -6.33,-5.04l-191.37 0c-3.6,0 -6.48,2.88 -6.48,6.48l0 301.81c0,3.6 2.88,6.48 6.48,6.48l207.63 -0.01c3.6,0 6.48,-2.88 6.48,-6.48l0 -47.8c0,-3.6 -2.88,-6.48 -6.48,-6.48l-133.04 0c-0.87,0 -1.59,-0.72 -1.59,-1.58l0 -66.67c0,-0.87 0.72,-1.58 1.59,-1.58l-0.15 0z"/>
   <path class="fil1" d="M1097.18 2978.09c-10.22,-50.97 -36,-171.78 -41.61,-198.13 -0.57,-3.03 -3.31,-5.19 -6.33,-5.19l-68.54 0c-3.03,0 -5.76,2.16 -6.33,5.19 -5.61,26.35 -31.39,147.16 -41.61,198.13 -0.29,1.73 -2.88,1.73 -3.17,0l-38.01 -197.98c-0.58,-3.03 -3.31,-5.33 -6.33,-5.33l-66.96 -0c-4.17,0 -7.34,3.89 -6.33,8.07l71.85 301.8c0.72,2.88 3.31,5.04 6.33,5.04l76.46 -0.01c3.17,0 5.76,-2.16 6.33,-5.19l40.75 -205.05c0.29,-1.73 2.88,-1.73 3.17,0l40.31 205.05c0.58,3.02 3.31,5.33 6.33,5.33l76.89 0c3.02,0 5.61,-2.01 6.33,-5.04l71.85 -301.8c1,-4.04 -2.16,-8.07 -6.34,-8.07l-66.95 0c-3.17,0 -5.76,2.16 -6.33,5.33l-38.02 197.99c-0.29,1.73 -2.88,1.73 -3.17,0l-0.58 -0.14z"/>
   <path class="fil1" d="M1515.18 2898.47l-109.29 0c-0.86,0 -1.58,-0.72 -1.58,-1.58l0 -115.63c0,-3.59 -2.88,-6.48 -6.48,-6.48l-66.38 0c-3.6,0 -6.48,2.88 -6.48,6.48l0 301.81c0,3.6 2.88,6.48 6.48,6.48l66.38 -0.01c3.6,0 6.48,-2.88 6.48,-6.48l0 -119.94c0,-0.87 0.72,-1.59 1.58,-1.59l109.28 0.01c0.87,0 1.58,0.72 1.58,1.58l0 119.94c0,3.6 2.88,6.48 6.48,6.48l66.38 -0.01c3.59,0 6.48,-2.88 6.48,-6.48l0 -301.81c0,-3.6 -2.88,-6.48 -6.48,-6.48l-66.38 0c-3.6,0 -6.48,2.88 -6.48,6.48l0 115.63c0,0.87 -0.72,1.58 -1.58,1.58z"/>
   <path class="fil1" d="M2032.54 2774.64l-66.38 0c-3.59,0 -6.48,2.88 -6.48,6.48l0 301.81c0,3.6 2.88,6.48 6.48,6.48l191.94 -0.01c3.6,0 6.48,-2.88 6.48,-6.48l0 -52.99c0,-3.59 -2.88,-6.48 -6.48,-6.48l-117.35 0c-0.87,0 -1.58,-0.72 -1.58,-1.58l0 -240.75c0,-3.59 -2.88,-6.48 -6.48,-6.48l-0.14 0z"/>
   <path class="fil1" d="M2266.09 2774.64l-66.38 0c-3.59,0 -6.48,2.88 -6.48,6.48l0 301.81c0,3.6 2.88,6.48 6.48,6.48l169.91 -0.01c2.74,0 5.19,-1.73 6.19,-4.32l19.3 -52.99c1.58,-4.32 -1.58,-8.78 -6.19,-8.78l-114.61 0c-0.87,0 -1.58,-0.72 -1.58,-1.58l0 -240.75c0,-3.6 -2.88,-6.48 -6.48,-6.48l-0.15 0.15z"/>
   <path class="fil1" d="M2517.79 2778.95l-109.72 301.81c-1.58,4.32 1.59,8.78 6.19,8.78l66.37 0c2.88,0 5.33,-1.87 6.19,-4.46l21.6 -66.53c0,0 0.86,-1.15 1.58,-1.15l106.7 0c0,0 1.3,0.43 1.59,1.15l21.6 66.53c0.87,2.74 3.31,4.46 6.19,4.46l66.81 0c4.46,0 7.63,-4.46 6.2,-8.78l-109.72 -301.81c-1.01,-2.59 -3.46,-4.32 -6.19,-4.32l-79.2 0c-2.74,0 -5.19,1.73 -6.19,4.32l0 -0.01zm78.91 180.28l-66.67 0c-1.15,0 -1.87,-1.01 -1.58,-2.16l33.26 -108c0.43,-1.58 2.59,-1.58 3.17,0l33.26 108c0.29,1.01 -0.43,2.16 -1.59,2.16l0.14 0z"/>
   <path class="fil1" d="M2937.81 2975.36l-108.71 -197.27c-1.16,-2.02 -3.31,-3.31 -5.76,-3.31l-75.6 0c-3.59,0 -6.48,2.88 -6.48,6.48l0 301.81c0,3.6 2.88,6.48 6.48,6.48l60.33 -0.01c3.59,0 6.48,-2.88 6.48,-6.48 0,-28.94 0,-147.16 -0.29,-193.24 0,-1.73 2.16,-2.3 3.02,-0.72l111.3 197.27c1.15,2.01 3.31,3.31 5.62,3.31l73 -0.01c3.6,0 6.48,-2.88 6.48,-6.48l0 -301.81c0,-3.6 -2.88,-6.48 -6.48,-6.48l-60.33 0c-3.6,0 -6.48,2.88 -6.48,6.48 0,28.94 0,146.87 0.29,193.38 0,1.73 -2.3,2.3 -3.02,0.72l0.15 -0.14z"/>
   <path class="fil1" d="M1777.97 2769.45c-71.42,0 -153.21,18.43 -153.21,162.71 0,144.28 81.93,162.71 153.21,162.71 71.28,0 153.2,-18.43 153.2,-162.71 0,-144.28 -81.93,-162.71 -153.2,-162.71zm72.57 162.71c0,70.7 -21.02,99.64 -72.57,99.64 -51.55,0 -72.57,-28.8 -72.57,-99.64 0,-70.84 21.02,-99.64 72.57,-99.64 51.55,0 72.57,28.8 72.57,99.64z"/>
   <path class="fil1" d="M3170.07 2774.64l-118.36 0c-3.6,0 -6.48,2.88 -6.48,6.48l0 301.81c0,3.6 2.88,6.48 6.48,6.48l118.36 -0.01c73.15,0 157.09,-18 157.09,-157.38 0,-139.39 -83.94,-157.38 -157.09,-157.52l0 0.14zm76.17 157.52c0,85.82 -40.75,97.05 -76.17,97.05l-43.77 0c-0.87,0 -1.59,-0.72 -1.59,-1.58l0 -190.93c0,-0.87 0.72,-1.59 1.59,-1.59l43.77 0c35.43,0 76.17,11.23 76.17,97.05z"/>
   <g>
    <path class="fil2" d="M2474.62 682.43l-289.17 280.66c-85.05,82.36 -146.38,161.15 -192.94,235.46 -65.8,104.74 -130.26,282.01 -133.84,420.78 0,0 -3.13,68.48 -3.13,134.3 0,22.82 -0.44,46.1 0,64.9 1.33,25.07 31.33,32.67 45.2,19.26l763.67 -730.98c27.31,-25.97 34.46,-60.87 32.23,-91.76 -8.95,-118.18 -90.43,-282.02 -141.46,-329.46 -34.92,-33.13 -64.02,-19.25 -80.58,-3.59l0.02 0.44zm-534.48 -264.54c-27.74,-3.13 -52.82,6.72 -62.67,25.07 -9.41,16.56 -8.05,35.36 -9.85,58.64 -6.72,91.77 -9.85,241.73 -10.3,256.94l-3.13 279.33c-0.44,53.72 38.49,47 52.82,32.67 15.67,-15.67 143.25,-138.33 265,-256.04l218.45 -210.84c15.22,-14.77 21.93,-38.95 -4.03,-62.67 -23.28,-21.48 -104.3,-57.74 -222.48,-88.18 -36.72,-9.41 -86.85,-19.26 -129.82,-25.07 -51.48,-7.16 -93.1,-9.85 -93.1,-9.85l-0.9 0zm777.98 854.08c1.33,5.82 0.9,7.16 0.9,8.95 16.12,159.81 1.79,319.61 -8.06,421.68 -45.66,473.6 -395.71,591.32 -543.88,632.96 -62.23,17.46 -195.17,36.71 -239.04,38.49 -60.87,2.24 -74.31,-28.64 -73.41,-52.82 12.98,-272.61 294.99,-562.24 294.99,-562.24 6.72,-9.85 49.23,-51.03 98.48,-98.48 70.72,-70.28 424.81,-407.35 424.81,-407.35 4.48,-5.38 11.19,-8.51 18.8,-8.51 14.33,0 25.07,8.95 26.41,26.87l0 0.46zm-1617.75 -589.54l289.63 280.66c85.05,82.81 146.82,161.15 192.94,235.46 65.36,104.74 130.26,282.01 133.84,420.78 0,0 3.59,68.48 3.13,134.3 0,22.82 0.44,46.1 -0.44,64.9 -1.34,25.07 -31.33,32.67 -44.77,19.26l-763.69 -730.98c-27.31,-25.97 -34.92,-60.87 -32.67,-91.76 8.95,-118.18 90.43,-282.02 141,-329.46 35.36,-33.13 64.02,-19.25 80.59,-3.59l0.44 0.44zm534.91 -264.1c27.75,-3.13 52.82,6.72 62.67,25.07 9.41,16.56 8.06,35.36 9.85,58.64 6.72,91.77 9.85,241.73 9.85,256.94l3.59 279.33c0.44,53.72 -38.95,47 -52.82,32.67 -15.67,-15.67 -143.25,-137.87 -264.99,-256.05l-218.45 -210.84c-15.23,-14.77 -22.39,-38.94 4.03,-62.67 23.28,-21.48 104.3,-57.74 222.48,-88.18 36.71,-9.41 86.84,-19.26 129.81,-25.07 51.48,-7.16 93.56,-9.85 93.56,-9.85l0.44 0zm-778.44 853.64c-1.34,5.82 -0.9,7.16 -0.9,8.95 -16.12,159.81 -1.79,319.61 8.06,421.68 46.1,473.6 396.16,591.32 543.88,632.96 62.23,17.46 194.72,36.71 239.04,38.49 61.33,2.24 74.31,-28.64 73.41,-52.82 -12.54,-272.61 -294.99,-562.24 -294.99,-562.24 -6.72,-9.85 -49.23,-51.03 -98.48,-98.48 -69.84,-69.84 -424.81,-407.35 -424.81,-407.35 -4.92,-5.38 -11.64,-8.51 -18.8,-8.51 -14.77,0 -25.51,8.95 -26.87,26.87l0.46 0.46z"/>
   </g>
  </g>
 </g>
</svg>
