<?xml version="1.0" encoding="UTF-8"?>
<!DOCTYPE svg PUBLIC "-//W3C//DTD SVG 1.1//EN" "http://www.w3.org/Graphics/SVG/1.1/DTD/svg11.dtd">
<!-- Creator: CorelDRAW -->
<svg xmlns="http://www.w3.org/2000/svg" xml:space="preserve" width="6.39999in" height="2.75591in" version="1.1" style="shape-rendering:geometricPrecision; text-rendering:geometricPrecision; image-rendering:optimizeQuality; fill-rule:evenodd; clip-rule:evenodd"
viewBox="0 0 6399.99 2755.91"
 xmlns:xlink="http://www.w3.org/1999/xlink"
 xmlns:xodm="http://www.corel.com/coreldraw/odm/2003">
 <defs>
  <style type="text/css">
   <![CDATA[
    .fil0 {fill:none}
    .fil2 {fill:#01215B}
    .fil1 {fill:#01215B;fill-rule:nonzero}
   ]]>
  </style>
 </defs>
 <g id="Capa_x0020_1">
  <metadata id="CorelCorpID_0Corel-Layer"/>
  <rect class="fil0" x="-0.01" y="2.05" width="6400" height="2755.91"/>
  <g id="_2355879042720">
   <path class="fil1" d="M1673.98 1417.75l-174.27 -316.22c-1.85,-3.23 -5.31,-5.31 -9.23,-5.31l-121.18 0c-5.77,0 -10.39,4.61 -10.39,10.39l0 483.8c0,5.76 4.61,10.39 10.39,10.39l96.71 -0.01c5.77,0 10.39,-4.62 10.39,-10.39 0,-46.39 0,-235.89 -0.46,-309.76 0,-2.77 3.46,-3.69 4.85,-1.15l178.42 316.22c1.85,3.23 5.31,5.31 9,5.31l117.02 -0.01c5.77,0 10.39,-4.61 10.39,-10.39l0 -483.8c0,-5.77 -4.61,-10.39 -10.39,-10.39l-96.71 0.01c-5.77,0 -10.39,4.61 -10.39,10.39 0,46.39 0,235.44 0.46,310 0,2.78 -3.69,3.69 -4.85,1.15l0.24 -0.23z"/>
   <path class="fil1" d="M1976.13 1391.2l196.43 0c5.76,0 10.39,-4.61 10.39,-10.39l0 -75.94c0,-5.77 -4.61,-10.39 -10.39,-10.39l-196.43 0.01c-1.39,0 -2.54,-1.15 -2.54,-2.54l0 -95.79c0,-1.39 1.15,-2.54 2.54,-2.54l205.67 -0.01c6.69,0 11.77,-6.23 10.15,-12.93l-18.23 -76.63c-1.15,-4.61 -5.31,-8.08 -10.15,-8.08l-306.77 0.01c-5.77,0 -10.39,4.61 -10.39,10.39l0 483.8c0,5.77 4.61,10.39 10.39,10.39l332.84 -0.01c5.77,0 10.39,-4.61 10.39,-10.39l0 -76.63c0,-5.77 -4.61,-10.39 -10.39,-10.39l-213.27 0c-1.39,0 -2.54,-1.15 -2.54,-2.54l0 -106.87c0,-1.39 1.15,-2.54 2.54,-2.54l-0.24 0z"/>
   <path class="fil1" d="M2680.37 1422.13c-16.39,-81.71 -57.71,-275.37 -66.7,-317.61 -0.93,-4.85 -5.31,-8.31 -10.15,-8.31l-109.88 0.01c-4.85,0 -9.23,3.46 -10.16,8.31 -9,42.24 -50.32,235.9 -66.7,317.61 -0.46,2.77 -4.61,2.77 -5.08,0l-60.94 -317.38c-0.93,-4.85 -5.31,-8.54 -10.15,-8.54l-107.34 -0.01c-6.69,0 -11.77,6.23 -10.15,12.93l115.18 483.8c1.15,4.62 5.31,8.08 10.15,8.08l122.56 -0.01c5.08,0 9.23,-3.46 10.15,-8.31l65.33 -328.69c0.46,-2.78 4.61,-2.78 5.07,0l64.63 328.69c0.92,4.85 5.31,8.54 10.15,8.54l123.26 0.01c4.85,0 9,-3.23 10.15,-8.08l115.19 -483.8c1.61,-6.46 -3.46,-12.93 -10.16,-12.93l-107.33 0c-5.07,0 -9.23,3.46 -10.15,8.54l-60.94 317.37c-0.46,2.78 -4.61,2.78 -5.08,0l-0.92 -0.22z"/>
   <path class="fil1" d="M3350.44 1294.49l-175.2 0c-1.39,0 -2.54,-1.15 -2.54,-2.54l0 -185.35c0,-5.77 -4.62,-10.39 -10.39,-10.39l-106.41 0c-5.76,0 -10.39,4.61 -10.39,10.39l0 483.8c0,5.76 4.62,10.39 10.39,10.39l106.42 -0.01c5.76,0 10.39,-4.62 10.39,-10.39l0 -192.28c0,-1.39 1.15,-2.54 2.54,-2.54l175.19 0.01c1.39,0 2.54,1.15 2.54,2.54l0 192.28c0,5.76 4.61,10.39 10.39,10.39l106.41 -0.01c5.76,0 10.39,-4.62 10.39,-10.39l0 -483.8c0,-5.77 -4.61,-10.39 -10.39,-10.39l-106.41 0.01c-5.77,0 -10.39,4.61 -10.39,10.39l0 185.35c0,1.39 -1.15,2.54 -2.54,2.54z"/>
   <path class="fil1" d="M4179.78 1095.98l-106.41 0c-5.77,0 -10.39,4.61 -10.39,10.39l0 483.8c0,5.77 4.61,10.39 10.39,10.39l307.69 -0.01c5.76,0 10.39,-4.61 10.39,-10.39l0 -84.94c0,-5.77 -4.61,-10.39 -10.39,-10.39l-188.12 0.01c-1.39,0 -2.54,-1.15 -2.54,-2.54l0 -385.93c0,-5.77 -4.61,-10.39 -10.39,-10.39l-0.23 0z"/>
   <path class="fil1" d="M4554.16 1095.98l-106.41 0c-5.76,0 -10.39,4.61 -10.39,10.39l0 483.8c0,5.77 4.61,10.39 10.39,10.39l272.37 -0.01c4.39,0 8.31,-2.78 9.93,-6.93l30.93 -84.94c2.54,-6.93 -2.54,-14.08 -9.93,-14.08l-183.73 0c-1.39,0 -2.54,-1.15 -2.54,-2.54l0 -385.93c0,-5.76 -4.61,-10.39 -10.39,-10.39l-0.24 0.24z"/>
   <path class="fil1" d="M4957.65 1102.9l-175.89 483.8c-2.54,6.93 2.54,14.08 9.93,14.08l106.4 0c4.61,0 8.54,-3 9.93,-7.15l34.62 -106.64c0,0 1.39,-1.85 2.54,-1.85l171.04 0c0,0 2.07,0.69 2.54,1.85l34.62 106.64c1.39,4.39 5.31,7.15 9.93,7.15l107.09 0c7.15,0 12.23,-7.15 9.93,-14.08l-175.89 -483.8c-1.61,-4.15 -5.54,-6.93 -9.93,-6.93l-126.96 0.01c-4.39,0 -8.31,2.78 -9.93,6.93l0.01 -0.01zm126.49 288.99l-106.87 0c-1.85,0 -3,-1.61 -2.54,-3.46l53.32 -173.12c0.69,-2.54 4.15,-2.54 5.07,0l53.32 173.12c0.46,1.61 -0.69,3.46 -2.54,3.46l0.23 0z"/>
   <path class="fil1" d="M5630.95 1417.75l-174.27 -316.22c-1.85,-3.23 -5.31,-5.31 -9.23,-5.31l-121.19 0c-5.76,0 -10.39,4.61 -10.39,10.39l0 483.8c0,5.76 4.61,10.39 10.39,10.39l96.72 -0.01c5.76,0 10.39,-4.62 10.39,-10.39 0,-46.39 0,-235.89 -0.46,-309.76 0,-2.77 3.46,-3.69 4.85,-1.15l178.42 316.22c1.85,3.23 5.31,5.31 9,5.31l117.02 -0.01c5.76,0 10.39,-4.61 10.39,-10.39l0 -483.8c0,-5.77 -4.61,-10.39 -10.39,-10.39l-96.71 0.01c-5.77,0 -10.39,4.61 -10.39,10.39 0,46.39 0,235.44 0.46,310 0,2.78 -3.69,3.69 -4.85,1.15l0.24 -0.23z"/>
   <path class="fil1" d="M3771.69 1087.67c-114.48,0 -245.6,29.55 -245.6,260.83 0,231.28 131.34,260.83 245.6,260.83 114.26,0 245.59,-29.55 245.59,-260.83 0,-231.28 -131.34,-260.83 -245.59,-260.83zm116.33 260.83c0,113.33 -33.7,159.72 -116.33,159.72 -82.63,0 -116.33,-46.17 -116.33,-159.72 0,-113.56 33.7,-159.73 116.33,-159.73 82.63,0 116.33,46.17 116.33,159.73z"/>
   <path class="fil1" d="M6003.26 1095.98l-189.74 0c-5.77,0 -10.39,4.61 -10.39,10.39l0 483.8c0,5.77 4.61,10.39 10.39,10.39l189.74 -0.01c117.26,0 251.82,-28.85 251.82,-252.29 0,-223.44 -134.57,-252.29 -251.82,-252.52l0 0.23zm122.1 252.52c0,137.57 -65.32,155.57 -122.1,155.57l-70.17 0c-1.39,0 -2.54,-1.15 -2.54,-2.54l0 -306.07c0,-1.39 1.15,-2.54 2.54,-2.54l70.17 0c56.78,0 122.1,18 122.1,155.57z"/>
   <g>
    <path class="fil2" d="M976.68 980.57l-149.11 144.72c-43.85,42.47 -75.48,83.09 -99.48,121.41 -33.93,54.01 -67.17,145.42 -69.02,216.97 0,0 -1.61,35.31 -1.61,69.25 0,11.77 -0.23,23.77 0,33.46 0.69,12.93 16.16,16.85 23.31,9.93l393.78 -376.93c14.08,-13.39 17.77,-31.39 16.62,-47.32 -4.61,-60.94 -46.63,-145.42 -72.94,-169.88 -18,-17.08 -33.01,-9.93 -41.55,-1.85l0.01 0.23zm-275.6 -136.41c-14.31,-1.61 -27.24,3.46 -32.31,12.93 -4.85,8.54 -4.15,18.24 -5.08,30.24 -3.46,47.32 -5.07,124.65 -5.31,132.49l-1.61 144.03c-0.23,27.7 19.85,24.24 27.24,16.85 8.08,-8.08 73.87,-71.33 136.64,-132.03l112.64 -108.72c7.85,-7.62 11.31,-20.08 -2.07,-32.31 -12,-11.08 -53.78,-29.78 -114.72,-45.47 -18.93,-4.85 -44.78,-9.93 -66.94,-12.93 -26.55,-3.69 -48.01,-5.07 -48.01,-5.07l-0.46 0zm401.16 440.4c0.69,3 0.46,3.69 0.46,4.62 8.31,82.41 0.93,164.8 -4.15,217.43 -23.55,244.21 -204.04,304.91 -280.45,326.38 -32.09,9 -100.64,18.93 -123.26,19.85 -31.39,1.15 -38.31,-14.77 -37.85,-27.24 6.69,-140.57 152.11,-289.91 152.11,-289.91 3.46,-5.08 25.39,-26.31 50.78,-50.78 36.46,-36.24 219.05,-210.05 219.05,-210.05 2.31,-2.77 5.77,-4.39 9.69,-4.39 7.39,0 12.93,4.61 13.62,13.85l0 0.23zm-834.18 -303.99l149.35 144.72c43.85,42.7 75.7,83.09 99.49,121.41 33.7,54.01 67.17,145.42 69.01,216.97 0,0 1.85,35.31 1.61,69.25 0,11.77 0.23,23.77 -0.22,33.46 -0.69,12.93 -16.16,16.85 -23.08,9.93l-393.79 -376.93c-14.08,-13.39 -18.01,-31.39 -16.85,-47.32 4.61,-60.94 46.63,-145.42 72.7,-169.88 18.23,-17.08 33.01,-9.93 41.56,-1.85l0.22 0.23zm275.83 -136.18c14.31,-1.61 27.23,3.46 32.31,12.93 4.85,8.54 4.15,18.23 5.08,30.24 3.46,47.32 5.07,124.65 5.07,132.49l1.85 144.03c0.23,27.7 -20.08,24.24 -27.24,16.85 -8.08,-8.08 -73.87,-71.09 -136.64,-132.03l-112.64 -108.72c-7.85,-7.61 -11.54,-20.08 2.07,-32.31 12,-11.08 53.78,-29.78 114.72,-45.47 18.93,-4.85 44.78,-9.93 66.94,-12.93 26.55,-3.69 48.24,-5.08 48.24,-5.08l0.23 0zm-401.4 440.17c-0.69,3 -0.46,3.69 -0.46,4.62 -8.31,82.41 -0.93,164.8 4.15,217.43 23.77,244.21 204.28,304.91 280.45,326.38 32.09,9 100.4,18.93 123.26,19.85 31.63,1.15 38.31,-14.77 37.85,-27.24 -6.46,-140.57 -152.11,-289.91 -152.11,-289.91 -3.46,-5.08 -25.39,-26.31 -50.78,-50.78 -36.01,-36.01 -219.05,-210.05 -219.05,-210.05 -2.54,-2.77 -6,-4.39 -9.69,-4.39 -7.62,0 -13.16,4.61 -13.85,13.85l0.24 0.23z"/>
   </g>
  </g>
 </g>
</svg>
