<?xml version="1.0" encoding="UTF-8"?>
<!DOCTYPE svg PUBLIC "-//W3C//DTD SVG 1.1//EN" "http://www.w3.org/Graphics/SVG/1.1/DTD/svg11.dtd">
<!-- Creator: CorelDRAW -->
<svg xmlns="http://www.w3.org/2000/svg" xml:space="preserve" width="3.59999in" height="3.59999in" version="1.1" style="shape-rendering:geometricPrecision; text-rendering:geometricPrecision; image-rendering:optimizeQuality; fill-rule:evenodd; clip-rule:evenodd"
viewBox="0 0 3599.99 3599.99"
 xmlns:xlink="http://www.w3.org/1999/xlink"
 xmlns:xodm="http://www.corel.com/coreldraw/odm/2003">
 <defs>
  <style type="text/css">
   <![CDATA[
    .fil0 {fill:none}
    .fil2 {fill:#241E20}
    .fil1 {fill:#EA1835}
   ]]>
  </style>
 </defs>
 <g id="Capa_x0020_1">
  <metadata id="CorelCorpID_0Corel-Layer"/>
  <rect class="fil0" x="-0.01" y="-0" width="3600" height="3600"/>
  <g id="_2357966795456">
   <path class="fil1" d="M1658.66 1769.87c6.44,-31.84 13.37,-62.87 20.06,-95.17 36.05,-173.86 78.82,-405.58 119.1,-566.69 9.8,62.13 155.97,749.59 161,757.16 26.02,-24.35 44.1,-62.56 69.94,-87.59 35.1,56.2 70.48,126.29 103.36,185.6 16.92,30.51 96.92,168.32 102.41,189.96l-179.34 -1.61c-23.05,-32.58 -43.4,-77.78 -63.89,-113.96 -21.26,-37.56 -43.65,-74.96 -62.34,-112.13 -21.07,19.69 -46.98,60.78 -66.06,85.74 -11.74,15.37 -54.06,77.23 -67.87,85.37 -8.41,-16.13 -116.96,-160.87 -128.61,-170.9l-126.44 227.35 -179.76 -0.41c7.13,-23.96 84.68,-155.98 102.89,-189.36l103.49 -185.57c20.5,20.27 54.52,74.48 69.75,86.25l22.31 -94.04zm-66.74 -96.63c-7.85,-14.72 -22.92,-29.59 -32.2,-45.39 -9.13,5.66 -1.05,-0.74 -7.02,5.91 -0.69,0.76 -5.32,7.33 -6.36,9.06l-243.03 438.9c-13.69,24.48 -79.89,136.56 -82.47,154.24l367.47 0.22 87.67 -158.27c17.5,15.42 45.3,56.81 60.7,76.98 16.56,21.69 45.98,57.52 57.84,79.28 10.52,-5.27 1.87,0.55 9.69,-7.3 15.11,-15.18 97.26,-135.15 114.53,-148.85l88.09 157.88 368.11 0.28c-4.54,-18.11 -28.89,-57.48 -39.22,-76.11 -34.85,-62.87 -282.14,-502.92 -294.23,-532.27 -10.95,5.59 -3.83,0.62 -11.61,9.26 -7.54,8.37 -13.77,21.42 -29.32,35.88l-201.89 -966.98c-20.84,80.41 -36.64,161.99 -52.98,242.89 -21.05,104.2 -143.81,707.91 -153.77,724.38z"/>
   <path class="fil2" d="M1031.38 2558.5l393.96 0.15 0.35 -104.3c-67.17,0.05 -485.19,-4.64 -514.36,1.99l-0.38 436.45 514.57 0.03 0.23 -101.77 -393.59 -0.22 -0.65 -65.72 385.1 -0.48 0.22 -96.36 -384.72 0.13 -0.74 -69.9z"/>
   <path class="fil2" d="M2767.63 2566.57l334.01 1.65 -333.77 224.02 -0.18 99.63 558.84 0.98 -0.28 -113.5 -335.31 -0.03 20.02 -16.72c47.09,-31.46 290.89,-186.15 310.21,-203.38l0.57 -103.28 -554.43 -1.61 0.31 112.23z"/>
   <path class="fil2" d="M268.59 2567.8c92.4,2.96 189.03,0.33 281.76,0.33 99.16,0 181.34,-13.19 181.59,102.25 0.27,120.92 -69.81,108.98 -177.89,108.98 -94.09,0 -190.16,1.91 -284,-0.2l-1.57 113.68c71.01,-0.04 352.72,3.49 399.07,-1.59 64.44,-7.07 105.17,-29.23 137.53,-62.73 62.93,-65.15 67.13,-232.98 0.35,-309.37 -74.07,-84.72 -225.02,-64.82 -336.63,-64.82 -66.63,0 -133.3,-0.19 -199.93,0.03l-0.29 113.44z"/>
   <path class="fil2" d="M1500.11 2455.41c-1.35,78.15 -8.35,251.87 14.73,314.38 29.43,79.73 100.68,123.06 206.76,123.06 146.21,0 298.08,21.47 355.11,-119.36 25.98,-64.16 16.84,-238.54 16.15,-319.11l-121.16 -0.08c-1.75,308.65 32.99,329.35 -205.61,329.35 -189.89,0 -141.11,-103.57 -145.06,-329.28l-120.91 1.04z"/>
   <path class="fil2" d="M2493.85 2568.1l222.22 -0.1 -0.24 -113.67 -568.02 0.16c-0.51,25.26 -3.66,93.61 2.22,113.67l221.45 0.05 -0.33 324.47 120.96 -0.12 1.74 -324.46z"/>
  </g>
 </g>
</svg>
