<?xml version="1.0" encoding="UTF-8"?>
<!DOCTYPE svg PUBLIC "-//W3C//DTD SVG 1.1//EN" "http://www.w3.org/Graphics/SVG/1.1/DTD/svg11.dtd">
<!-- Creator: CorelDRAW -->
<svg xmlns="http://www.w3.org/2000/svg" xml:space="preserve" width="6.39999in" height="2.75591in" version="1.1" style="shape-rendering:geometricPrecision; text-rendering:geometricPrecision; image-rendering:optimizeQuality; fill-rule:evenodd; clip-rule:evenodd"
viewBox="0 0 6399.99 2755.91"
 xmlns:xlink="http://www.w3.org/1999/xlink"
 xmlns:xodm="http://www.corel.com/coreldraw/odm/2003">
 <defs>
  <style type="text/css">
   <![CDATA[
    .fil0 {fill:none}
    .fil2 {fill:#241E20}
    .fil1 {fill:#EA1835}
   ]]>
  </style>
 </defs>
 <g id="Capa_x0020_1">
  <metadata id="CorelCorpID_0Corel-Layer"/>
  <rect class="fil0" x="-0.01" y="2.05" width="6400" height="2755.91"/>
  <g id="_2357963212144">
   <path class="fil1" d="M601.59 1674.61c6.35,-31.4 13.18,-62 19.78,-93.83 35.55,-171.43 77.72,-399.91 117.44,-558.77 9.66,61.26 153.79,739.11 158.74,746.58 25.67,-24.01 43.49,-61.69 68.96,-86.37 34.61,55.42 69.49,124.53 101.92,183 16.68,30.08 95.56,165.97 100.98,187.31l-176.83 -1.59c-22.73,-32.13 -42.8,-76.69 -62.99,-112.37 -20.96,-37.04 -43.04,-73.91 -61.47,-110.56 -20.78,19.41 -46.32,59.93 -65.13,84.54 -11.57,15.15 -53.31,76.15 -66.92,84.18 -8.29,-15.91 -115.33,-158.62 -126.82,-168.51l-124.67 224.17 -177.25 -0.4c7.03,-23.62 83.5,-153.8 101.45,-186.72l102.05 -182.98c20.2,19.98 53.76,73.43 68.77,85.04l22 -92.73zm-65.81 -95.28c-7.74,-14.52 -22.59,-29.18 -31.74,-44.76 -9,5.59 -1.04,-0.72 -6.93,5.82 -0.68,0.75 -5.24,7.23 -6.28,8.94l-239.63 432.77c-13.5,24.13 -78.78,134.65 -81.32,152.08l362.34 0.21 86.44 -156.06c17.25,15.2 44.66,56.02 59.84,75.91 16.33,21.38 45.34,56.71 57.04,78.17 10.37,-5.19 1.84,0.54 9.55,-7.2 14.9,-14.96 95.9,-133.26 112.93,-146.76l86.86 155.67 362.97 0.27c-4.47,-17.85 -28.48,-56.67 -38.67,-75.04 -34.36,-61.99 -278.2,-495.89 -290.12,-524.83 -10.8,5.52 -3.78,0.61 -11.45,9.13 -7.43,8.25 -13.58,21.12 -28.91,35.38l-199.07 -953.46c-20.54,79.28 -36.12,159.72 -52.24,239.5 -20.76,102.75 -141.8,698.02 -151.63,714.26z"/>
   <g>
    <path class="fil2" d="M2658.67 1235.19l587.87 0.22 0.52 -155.64c-100.23,0.08 -724.01,-6.92 -767.53,2.97l-0.57 651.28 767.84 0.04 0.34 -151.85 -587.31 -0.32 -0.97 -98.07 574.65 -0.71 0.33 -143.79 -574.08 0.2 -1.1 -104.31z"/>
    <path class="fil2" d="M5249.51 1247.24l498.41 2.46 -498.06 334.28 -0.27 148.67 833.91 1.46 -0.41 -169.36 -500.35 -0.05 29.87 -24.94c70.27,-46.94 434.07,-277.78 462.9,-303.48l0.86 -154.11 -827.33 -2.41 0.47 167.47z"/>
    <path class="fil2" d="M1520.43 1249.08c137.88,4.42 282.07,0.49 420.44,0.49 147.96,0 270.6,-19.69 270.98,152.57 0.4,180.44 -104.17,162.63 -265.44,162.63 -140.4,0 -283.76,2.84 -423.79,-0.3l-2.35 169.63c105.96,-0.05 526.34,5.21 595.5,-2.37 96.17,-10.55 156.93,-43.61 205.22,-93.6 93.91,-97.22 100.18,-347.67 0.52,-461.65 -110.53,-126.43 -335.78,-96.73 -502.32,-96.73 -99.44,0 -198.91,-0.28 -298.33,0.05l-0.44 169.28z"/>
    <path class="fil2" d="M3358.12 1081.36c-2.02,116.62 -12.46,375.84 21.98,469.12 43.92,118.97 150.23,183.62 308.53,183.62 218.18,0 444.8,32.04 529.9,-178.11 38.77,-95.74 25.13,-355.95 24.09,-476.18l-180.8 -0.12c-2.61,460.57 49.22,491.45 -306.82,491.45 -283.36,0 -210.56,-154.54 -216.46,-491.35l-180.42 1.56z"/>
    <path class="fil2" d="M4840.98 1249.53l331.59 -0.15 -0.36 -169.61 -847.61 0.24c-0.76,37.69 -5.46,139.68 3.31,169.61l330.46 0.07 -0.49 484.18 180.49 -0.18 2.6 -484.16z"/>
   </g>
  </g>
 </g>
</svg>
