<?xml version="1.0" encoding="UTF-8"?>
<!DOCTYPE svg PUBLIC "-//W3C//DTD SVG 1.1//EN" "http://www.w3.org/Graphics/SVG/1.1/DTD/svg11.dtd">
<!-- Creator: CorelDRAW -->
<svg xmlns="http://www.w3.org/2000/svg" xml:space="preserve" width="6.39999in" height="2.75591in" version="1.1" style="shape-rendering:geometricPrecision; text-rendering:geometricPrecision; image-rendering:optimizeQuality; fill-rule:evenodd; clip-rule:evenodd"
viewBox="0 0 6399.99 2755.91"
 xmlns:xlink="http://www.w3.org/1999/xlink"
 xmlns:xodm="http://www.corel.com/coreldraw/odm/2003">
 <defs>
  <style type="text/css">
   <![CDATA[
    .fil0 {fill:none}
    .fil1 {fill:#0C0E0F}
    .fil2 {fill:white}
   ]]>
  </style>
 </defs>
 <g id="Capa_x0020_1">
  <metadata id="CorelCorpID_0Corel-Layer"/>
  <rect class="fil0" x="-0.01" y="2.05" width="6400" height="2755.91"/>
  <g id="_2355883685312">
   <path class="fil1" d="M1444.56 899.85c-168.21,-80.74 -359.98,-126.17 -560.12,-126.17 -200.2,0 -391.94,45.43 -560.19,127.84 -58.86,141.31 -90.82,297.73 -90.82,459.24 0,163.12 31.96,317.93 90.82,460.92 174.63,83.89 366.34,127.62 560.12,127.78 194.01,-0.16 385.39,-44.04 560.12,-127.85 60.98,-145.92 92.59,-302.54 92.59,-460.78 -0.04,-161.48 -33.67,-317.93 -92.53,-460.92l0 -0.07z"/>
   <path class="fil2" d="M1404.19 935.16c-162.95,-75.2 -340.28,-114.22 -519.74,-114.37 -179.4,0.15 -357.07,39.33 -519.87,114.35 -53.24,135.31 -80.72,279.8 -80.72,425.28 0,0 0,0.43 0,0.43 0,149.72 28.58,294.31 80.74,425.57 156.45,74 334.78,114.37 519.81,114.37 185,0 365,-40.37 519.78,-114.37 53.8,-131.26 82.41,-274.25 82.41,-425.57 0.04,-149.72 -30.25,-292.7 -82.41,-425.61l0 -0.07z"/>
   <path class="fil1" d="M702.76 1224.51c-26.94,55.51 -45.39,116.05 -53.84,185 -1.67,0 -15.14,1.71 -15.14,1.71 -58.86,5.09 -117.76,10.08 -174.95,31.93l3.39 21.91c94.2,116.02 237.19,186.67 237.19,186.67l-26.94 -52.16c-6.73,-5.03 -26.9,-10.09 -26.9,-10.09 -63.92,-20.23 -109.35,-104.29 -116.08,-117.79 52.16,0 99.26,15.18 142.98,30.29 30.29,8.44 58.9,18.53 87.48,21.84 50.45,8.44 102.58,0 151.39,-6.73 38.69,-5.02 75.71,-5.02 112.7,-1.64 5.03,5.02 43.76,52.16 82.42,72.3 47.1,23.55 183.35,65.63 190.09,67.27 3.35,1.7 55.51,55.54 89.19,116.15 -154.78,70.59 -328.05,107.64 -501.29,107.64 -173.28,0 -346.54,-37.02 -501.29,-107.64 -50.48,-131.26 -77.39,-269.19 -77.39,-410.46 0,-139.64 26.91,-277.6 77.39,-408.79 154.75,-70.65 328.02,-107.64 501.29,-107.64 174.94,0 348.18,36.99 501.29,107.64 50.45,131.19 77.35,269.12 77.35,408.79 0,129.48 -21.88,255.65 -63.92,375.05 -48.78,-84.09 -68.98,-109.28 -68.98,-109.28 -1.71,0 -68.98,-35.34 -85.8,-50.52 -13.43,-11.72 -20.17,-35.34 -28.61,-62.21 -10.08,-38.66 -23.52,-85.8 -60.54,-124.46l42.05 -16.82c-11.8,-79.1 -105.97,-129.55 -107.64,-129.55l-1.68 1.67c36.99,45.43 43.72,82.41 43.72,105.97 0,11.79 -1.68,20.23 -3.39,23.55 -10.05,-5.03 -79.03,-26.9 -238.83,-20.17 -21.87,0 -55.51,-1.71 -75.71,-20.2 -11.79,-10.08 -16.82,-26.94 -16.82,-45.39 0,-55.51 23.59,-129.52 26.94,-139.6l40.37 5.06c50.48,-26.94 68.98,-52.17 70.65,-55.51 -42.08,5.02 -97.56,15.14 -97.56,15.14 3.39,-8.41 13.44,-40.4 13.44,-75.71 0,-38.7 -11.76,-80.74 -60.57,-105.97l-3.35 1.68c1.67,1.67 28.61,31.96 28.61,72.33 0,11.79 -1.71,25.22 -6.73,37.02 -13.61,-4.48 -27.85,-6.78 -42.18,-6.78 -1.07,0 -2.19,0.02 -3.24,0.04 -10.08,-33.67 -38.69,-60.57 -77.39,-74.04l-1.67 1.71c0,0 42.08,30.28 43.75,72.33 -20.2,1.67 -31.96,5.02 -57.19,11.76 -11.79,-16.81 -35.34,-30.28 -67.3,-33.63l0 3.38c0,0 36.98,11.8 43.75,40.37 -21.84,10.09 -48.78,25.23 -63.92,38.7l1.64 1.67c94.21,-35.31 181.68,-43.75 203.56,-16.81 5.02,5.06 6.73,10.11 6.73,16.81 0,6.74 -3.35,16.82 -10.08,26.94 -45.43,10.08 -116.08,28.61 -173.27,50.45l8.41 23.56c0,0 57.19,11.79 79.06,16.81 0,0.07 8.41,1.71 3.38,8.48l0 0zm1039.53 297.76c0,0 55.51,20.17 117.76,20.17 67.27,0 107.67,-10.08 131.22,-33.63 18.5,-18.53 26.91,-50.46 25.23,-99.27l0 -316.22 99.27 0 0 331.4c-1.68,146.3 -72.33,208.55 -237.19,208.55 -80.77,0 -136.25,-13.4 -136.25,-13.4l0 -97.59 -0.04 0zm662.8 -333.11c158.09,0 250.63,84.12 250.63,225.4 0,100.98 -65.6,218.67 -250.63,218.67 -186.74,0 -252.33,-117.72 -252.33,-218.67 0,-141.28 94.21,-225.4 252.33,-225.4zm153.04 220.37c0,-85.76 -55.51,-134.58 -153.07,-134.58 -97.59,0 -154.78,48.81 -154.78,134.58 0,119.4 97.56,136.29 154.78,136.29 57.22,0 153.07,-16.89 153.07,-136.29zm492.88 -210.26l0 168.21 -254.01 0 0 -168.21 -97.56 0 0 423.9 97.56 0 0 -169.89 254.01 0 0 169.89 99.26 0 0 -423.9 -99.26 0zm1476.96 336.39l0 -82.38 225.33 0 0 -85.8 -225.33 0 0 -82.45 290.96 0 0 -85.77 -390.23 0 0 423.9 390.23 0 0 -87.51 -290.96 0zm440.68 0l0 -82.38 225.44 0 0 -85.8 -225.44 0 0 -82.45 292.67 0 0 -85.77 -390.23 0 0 423.9 390.23 0 0 -87.51 -292.67 0zm925.15 0l0 -82.38 225.43 0 0 -85.8 -225.43 0 0 -82.45 292.7 0 0 -85.77 -390.26 0 0 423.9 390.26 0 0 -87.51 -292.7 0zm-1799.85 -354.92c127.84,0 201.85,63.92 201.85,174.98 0,156.39 -126.17,179.94 -201.85,179.94l-139.64 0 0 -354.92 139.64 0zm0 -87.44l-237.19 0 0 529.87 237.19 0c222.02,0 299.44,-141.28 299.44,-260.74 -0.04,-168.21 -112.7,-269.12 -299.44,-269.12zm1547.55 368.35c75.72,-18.53 102.58,-75.72 102.58,-126.13 0,-85.83 -55.48,-136.26 -151.36,-136.26l-277.56 0 0 423.9 97.56 0 0 -154.74 116.09 0 117.72 154.74 119.47 0 -124.5 -161.51zm-228.75 -80.74l0 -95.88 180 0c33.64,0 53.77,18.49 53.77,47.1 0,42.04 -33.63,48.78 -53.77,48.78l-180 0zm-1850.41 242.25l-255.62 -289.35 0 289.35 -97.59 0 0 -423.9 97.59 0 255.62 285.94 0 -285.94 97.59 0 0 423.9 -97.59 0z"/>
  </g>
 </g>
</svg>
