<?xml version="1.0" encoding="UTF-8"?>
<!DOCTYPE svg PUBLIC "-//W3C//DTD SVG 1.1//EN" "http://www.w3.org/Graphics/SVG/1.1/DTD/svg11.dtd">
<!-- Creator: CorelDRAW -->
<svg xmlns="http://www.w3.org/2000/svg" xml:space="preserve" width="6.39999in" height="2.75591in" version="1.1" style="shape-rendering:geometricPrecision; text-rendering:geometricPrecision; image-rendering:optimizeQuality; fill-rule:evenodd; clip-rule:evenodd"
viewBox="0 0 6399.99 2755.91"
 xmlns:xlink="http://www.w3.org/1999/xlink"
 xmlns:xodm="http://www.corel.com/coreldraw/odm/2003">
 <defs>
  <style type="text/css">
   <![CDATA[
    .fil0 {fill:none}
    .fil1 {fill:#233772}
   ]]>
  </style>
 </defs>
 <g id="Capa_x0020_1">
  <metadata id="CorelCorpID_0Corel-Layer"/>
  <rect class="fil0" x="-0.01" y="2.05" width="6400" height="2755.91"/>
  <g id="_2357299806496">
   <path class="fil1" d="M2181.2 1197.01c20.26,-4.72 43.65,-3.25 64.96,-3.25l0 646.33 250.08 0 0 -383.25c15.71,10.52 41.16,43.85 54.26,59.43l162.57 184.95c7.78,8.31 9.3,12.71 17.79,21.19l55.32 61.6c70.51,72.59 -3.79,56.09 252.46,56.09 102.85,0 205.7,0 308.55,0 7.3,-31.33 37.53,-103.74 50.58,-137.79 6.03,-15.75 11.2,-33.95 17.62,-47.34l224.1 0c14.62,-27.64 26.61,-59.52 40.08,-89.83 9.76,-21.98 36.05,-70.25 37.87,-92.05l-246.84 0 113.68 -269.57c11.65,7.8 16.11,22.48 22.73,35.73l263.08 519.65c8.84,17.69 35.06,64.39 38.98,81.2l496.93 0 0 -493.68c2.95,3.4 0.67,0.5 4.13,5.61 37.2,55 89.38,153.41 125.19,212.59l63.41 108.72c14.02,25.75 57.61,88.19 63.84,111.54 10.28,-7.54 77.44,-134.95 90.94,-162.39 5.23,-10.64 9.46,-16.45 15.17,-27.05l118.01 -219.77c4.91,-10 7.72,-19.78 16.22,-26l0 490.43 493.67 0c1.47,-17.66 41.37,-101.72 51.06,-124.32 4.95,-11.55 16.15,-32.7 17.14,-44.57l230.6 0c1.8,-21.59 43.55,-113.76 54.28,-140.59 4.89,-12.23 16.17,-35.73 17.17,-47.79l-243.59 0c4.36,-18.72 21.19,-50.46 29.18,-68.26l60.68 -137.44c10.17,-21.17 25,-47.52 30.32,-70.37l10.87 18.37c19.61,39.95 51.66,101.02 66.63,137.99 11.48,28.35 25.53,50.85 38.36,78.56l75.78 158.07c6.68,13.23 11.25,25.97 18.37,40.09l57.4 117.98c9.26,18.5 33.86,64.97 37.89,82.28l289.06 0c-7.49,-32.14 -341.18,-678.3 -395.13,-790.34 -4.35,-9.04 -7.26,-21.63 -17.35,-21.63l-399.49 0c-13.53,0 -41.15,65.32 -48.57,78.09l-32.02 62.17c-5.28,8.52 -7.83,11.31 -10.35,22.13l64.96 0c-24.47,46.25 -43.39,96.1 -63.57,144.3l-189.77 433.82 0 -740.51 -302.05 0c-2.64,11.33 -13.94,32.29 -19.63,42.08 -8.15,14.02 -15.06,27.24 -22.57,42.39l-88.76 167.82c-8.43,16.88 -34.94,72.91 -47.67,82.24l-50.04 -83.13c-20.93,-31.84 -147.7,-235.85 -151.33,-251.41l-292.31 0 -81.22 162.38 81.22 0.01 -2.82 593.93c-3.44,-5.24 -1.11,-1.27 -3.74,-6l-117.94 -226.33c-8.69,-17.51 -16.58,-29.8 -24.91,-46.55 -16.5,-33.18 -32.83,-62.36 -49.8,-96.35 -47.7,-95.55 -100.55,-188.03 -148.32,-283.65 -13.61,-27.25 -41.97,-68.49 -48.72,-97.44l-409.23 0 -77.95 162.39 51.96 0c-19.06,36.02 -167.97,403.54 -185.59,447.74 -8.62,21.62 -59.57,132.97 -61.24,153.11 -25.95,-17.37 -134.27,-152.09 -166.39,-184.37l-61.83 -68.09c-8.97,-9.24 -11.39,-14.94 -21.03,-24.44 -9.43,-9.28 -11.39,-13.48 -19.53,-22.69 -19.52,-22.09 -45.88,-45.86 -62.49,-70.67 31.86,-21.33 129.93,-135.15 166.44,-171.33l213.56 -221.66c-84.33,0 -169.17,0.92 -253.43,-0.1 -32.17,-0.39 -25.86,1.49 -42.94,18.77 -46.52,47.08 -328.38,333.89 -349.96,348.34l0 -367.01 -246.83 0c-3.43,14.72 -10.51,28.87 -16.33,42.13 -5.99,13.66 -11.21,25.79 -17.54,40.92 -8.28,19.77 -32.79,67.25 -34.33,85.84z"/>
   <path class="fil1" d="M1161.38 566.92c151.94,0 234.11,11.49 365.94,72.52 117.85,54.56 219.71,145.96 295.26,250.38 79.81,110.32 137.78,267.02 137.78,407.87 0,142.41 -15.37,224.02 -67.26,345.21 -14.22,33.19 -58.78,118.35 -82.14,135.47 -23.28,-15.59 -247.58,-245.95 -291.5,-289.87 -11.46,-11.47 -35.69,-29.31 -39.79,-44.66l274.7 -309.92c14.7,-19.04 30.91,-33.66 45.88,-51.55l46.43 -54.26c-32.16,0 -344.32,-4.18 -358.91,1.6 -5.21,2.06 -32.11,30.54 -38.13,36.57l-71.45 74.7c-49.74,49.57 -94.78,98.19 -144.53,147.78l-143.72 148.59c20.96,31.29 83.18,83.44 114.56,116.04 7.71,8.01 8.84,11.71 16.13,19.59 58.2,62.93 125.14,120.24 183.58,183.42l50.3 53.63c47.02,47.02 21.41,30.05 171.32,30.05 45.47,0 90.94,0 136.41,0 -30.79,45.98 -115.29,105.66 -165.01,137.04l-135.66 65.71c-179.48,68.88 -392.26,58.98 -567.44,-16.69 -7.63,-3.3 -9.98,-5.09 -17.63,-8.36 -7.67,-3.28 -10.83,-3.74 -18.25,-7.73 -54.59,-29.37 -109.34,-63.04 -155.57,-104.26 -5.84,-5.2 -6.85,-7.13 -13.61,-12.37 -23.56,-18.3 -47.16,-41.8 -63.58,-66.33 14.39,-9.64 35.75,-34.13 49.53,-47.91 79.63,-79.6 158.05,-167.79 238.72,-248.46l144.53 -151.03c17.05,-17.03 31.66,-31.65 48.77,-48.67 9.92,-9.87 13.06,-16.43 22.62,-26.1 8.8,-8.89 15.53,-15.4 24.42,-24.3l144.5 -151.05c17.11,-16.92 31.7,-31.67 48.75,-48.69 13.89,-13.87 37.44,-37.15 47.9,-52.78 -31.39,0 -62.91,0.28 -94.29,-0.1 -36.3,-0.44 -32.98,8.83 -60.8,36.64l-263.01 272.89c-8.67,9 -15.58,15.44 -24.43,24.29 -24.16,24.16 -50.99,46.98 -72.93,73.22 -29.26,35 -63.5,66.64 -95.96,98.91 -10.48,10.42 -13.5,14.61 -22.87,25.84 -28.92,34.6 -66.04,64.98 -97.36,97.51 -28.14,29.24 -64.31,76.73 -96.56,98.31 -7.76,-14.67 -15.39,-25.09 -22.74,-38.97l122.67 -127.42c8.78,-8.87 10.87,-14.04 19.36,-22.86 7.61,-7.91 13.41,-13.28 21.17,-21.05 14.77,-14.76 27.82,-27.13 42.29,-42.15 8.49,-8.82 10.58,-14 19.36,-22.87l352.46 -365.32c14.87,-14.86 27.31,-27.43 42.25,-42.2l39.76 -44.69c-27.06,0 -54.14,0.07 -81.2,0 -46.44,-0.14 -34.34,-3.07 -59.27,21.93 -13.98,14.02 -27.36,26.2 -40.64,40.56l-321.5 331.31c-14.66,14.53 -24.03,27.32 -38.97,42.23 -27.21,27.17 -55.4,53.22 -81.24,81.15 -7.69,8.31 -9.39,12.76 -17.76,21.22 -19.74,19.96 -41.54,47.28 -64.21,62.46 -7.22,-15.05 -12.26,-33.67 -19.48,-48.72l116.15 -117.69c7.3,-7.89 8.43,-11.59 16.13,-19.59 22.83,-23.72 46.16,-44.15 68.31,-68.1l332.05 -346.75c-20.45,0 -109.61,-3.2 -121.85,1.57 -1.44,0.56 -55.69,57.42 -62.46,64.2l-155.76 159.3c-32.9,39.36 -74.29,71.08 -107.18,110.43 -18.69,22.35 -103.96,100.31 -108.14,115.97l-6.5 0c0,-90.56 -39.85,-39.73 52.78,-132.35l152.65 -159.14c9.46,-9.45 16.49,-16.57 26,-25.97 10.63,-10.5 14.58,-17.61 24.28,-27.69 22.74,-23.62 84.03,-80.11 101.57,-106.3 -25.98,0 -51.97,0.04 -77.95,0 -56.84,-0.09 -39.92,-0.47 -98.29,57.6l-37.31 40.65c-26.15,26.15 -53.14,51.05 -77.99,77.91 -24.19,26.15 -49.11,60.6 -78.72,80.43l11.49 -92.45c3.37,-14.95 34.51,-45.8 46.1,-57.83 17.62,-18.31 34.03,-33.91 52.03,-51.9 14.39,-14.38 38.63,-38.12 49.53,-54.4l-97.44 0c4.14,-17.75 36.24,-75.59 46.84,-92.81 90.34,-146.74 220.44,-255.2 381.84,-319.7 56.54,-22.59 155.64,-48.68 233.88,-48.68zm-857.44 734.02c0,215.79 41.2,348.06 141.03,511.79 16.84,27.62 50.54,71.58 70.81,94.84 178.61,204.94 413.94,315.76 691.07,315.76 101.3,0 189.64,-17.22 278.09,-46.7 113.35,-37.76 191.06,-83.8 282.42,-156.04 22.02,-17.41 37.34,-35.8 58.49,-51.94 17.37,-13.26 81.35,-91.39 100.15,-117.45 97.15,-134.64 167.51,-320.08 167.51,-488.56 0,-170.51 -13.75,-254.87 -80.26,-410.17 -46.17,-107.82 -120.3,-197.68 -201.45,-279.24l-57.9 -49.28c-63.2,-47.65 -90.24,-65.52 -165.98,-103.59 -89.92,-45.21 -234.63,-86.61 -342.11,-86.61 -120.49,0 -157.87,-2.85 -280.01,28.54 -98.97,25.44 -211.86,79 -290.72,138 -75.63,56.57 -131.24,108.63 -189.31,184.2 -75.35,98.08 -126.37,207.14 -156.52,327.41 -13.09,52.22 -25.32,123.26 -25.32,189.04z"/>
  </g>
 </g>
</svg>
