<?xml version="1.0" encoding="UTF-8"?>
<!DOCTYPE svg PUBLIC "-//W3C//DTD SVG 1.1//EN" "http://www.w3.org/Graphics/SVG/1.1/DTD/svg11.dtd">
<!-- Creator: CorelDRAW -->
<svg xmlns="http://www.w3.org/2000/svg" xml:space="preserve" width="3.59999in" height="3.59999in" version="1.1" style="shape-rendering:geometricPrecision; text-rendering:geometricPrecision; image-rendering:optimizeQuality; fill-rule:evenodd; clip-rule:evenodd"
viewBox="0 0 3599.99 3599.99"
 xmlns:xlink="http://www.w3.org/1999/xlink"
 xmlns:xodm="http://www.corel.com/coreldraw/odm/2003">
 <defs>
  <style type="text/css">
   <![CDATA[
    .fil0 {fill:none}
    .fil1 {fill:#233772}
   ]]>
  </style>
 </defs>
 <g id="Capa_x0020_1">
  <metadata id="CorelCorpID_0Corel-Layer"/>
  <rect class="fil0" x="-0.01" y="-0" width="3600" height="3600"/>
  <path class="fil1" d="M513.91 2865.1c13.5,-3.14 29.09,-2.17 43.3,-2.17l0 430.87 166.72 0 0 -255.49c10.47,7.02 27.44,29.23 36.17,39.62l108.37 123.3c5.19,5.54 6.2,8.47 11.86,14.12l36.88 41.07c47.01,48.4 -2.52,37.39 168.3,37.39 68.56,0 137.13,0 205.69,0 4.86,-20.89 25.02,-69.15 33.72,-91.86 4.02,-10.5 7.46,-22.63 11.75,-31.56l149.39 0c9.75,-18.43 17.74,-39.68 26.72,-59.89 6.51,-14.65 24.04,-46.83 25.24,-61.37l-164.55 0 75.78 -179.71c7.76,5.2 10.74,14.99 15.15,23.82l175.38 346.43c5.89,11.79 23.37,42.92 25.98,54.13l331.27 0 0 -329.11c1.97,2.27 0.45,0.33 2.75,3.74 24.8,36.67 59.58,102.27 83.46,141.72l42.27 72.48c9.35,17.16 38.41,58.79 42.56,74.36 6.85,-5.02 51.63,-89.96 60.63,-108.26 3.48,-7.09 6.31,-10.96 10.11,-18.03l78.67 -146.51c3.27,-6.67 5.15,-13.19 10.81,-17.33l0 326.94 329.11 0c0.98,-11.77 27.58,-67.81 34.04,-82.87 3.3,-7.7 10.77,-21.8 11.43,-29.72l153.73 0c1.2,-14.39 29.03,-75.84 36.19,-93.72 3.26,-8.15 10.78,-23.82 11.44,-31.86l-162.39 0c2.91,-12.48 14.12,-33.64 19.45,-45.5l40.45 -91.62c6.78,-14.11 16.66,-31.69 20.21,-46.91l7.24 12.25c13.07,26.63 34.44,67.34 44.42,91.98 7.65,18.91 17.02,33.9 25.57,52.37l50.52 105.37c4.45,8.82 7.5,17.31 12.24,26.73l38.27 78.65c6.17,12.33 22.57,43.31 25.26,54.85l192.7 0c-4.99,-21.43 -227.44,-452.18 -263.41,-526.87 -2.9,-6.02 -4.84,-14.42 -11.57,-14.42l-266.31 0c-9.02,0 -27.43,43.54 -32.38,52.06l-21.35 41.44c-3.52,5.68 -5.22,7.54 -6.9,14.75l43.3 0c-16.31,30.83 -28.93,64.07 -42.38,96.2l-126.51 289.2 0 -493.66 -201.36 0c-1.76,7.55 -9.3,21.52 -13.09,28.05 -5.43,9.35 -10.04,18.16 -15.04,28.26l-59.17 111.88c-5.62,11.25 -23.29,48.6 -31.78,54.82l-33.36 -55.41c-13.96,-21.23 -98.47,-157.23 -100.88,-167.6l-194.87 0 -54.14 108.25 54.14 0 -1.88 395.94c-2.3,-3.5 -0.74,-0.85 -2.49,-4.01l-78.63 -150.88c-5.79,-11.67 -11.06,-19.87 -16.61,-31.03 -11,-22.12 -21.88,-41.57 -33.2,-64.23 -31.8,-63.7 -67.03,-125.35 -98.88,-189.09 -9.07,-18.17 -27.98,-45.66 -32.48,-64.96l-272.81 0 -51.96 108.26 34.64 0c-12.7,24.01 -111.97,269.02 -123.72,298.48 -5.75,14.41 -39.71,88.65 -40.83,102.07 -17.3,-11.58 -89.51,-101.39 -110.92,-122.91l-41.22 -45.39c-5.98,-6.16 -7.59,-9.96 -14.02,-16.29 -6.29,-6.19 -7.6,-8.99 -13.02,-15.13 -13.02,-14.73 -30.59,-30.57 -41.66,-47.11 21.24,-14.22 86.62,-90.09 110.96,-114.22l142.37 -147.77c-56.22,0 -112.78,0.61 -168.95,-0.07 -21.44,-0.26 -17.24,0.99 -28.63,12.52 -31.02,31.39 -218.91,222.58 -233.3,232.22l0 -244.67 -164.55 0c-2.28,9.81 -7.01,19.24 -10.89,28.09 -3.99,9.11 -7.47,17.19 -11.69,27.28 -5.52,13.18 -21.86,44.83 -22.89,57.22z"/>
  <path class="fil1" d="M1728.52 486.68c176.93,0 272.6,13.38 426.1,84.44 137.22,63.52 255.83,169.95 343.79,291.54 92.93,128.46 160.43,310.91 160.43,474.91 0,165.81 -17.89,260.84 -78.32,401.96 -16.55,38.65 -68.44,137.81 -95.64,157.74 -27.11,-18.15 -288.28,-286.38 -339.42,-337.52 -13.35,-13.35 -41.55,-34.13 -46.32,-52l319.85 -360.86c17.13,-22.17 35.98,-39.2 53.43,-60.03l54.06 -63.17c-37.45,0 -400.92,-4.87 -417.92,1.86 -6.07,2.41 -37.39,35.56 -44.4,42.58l-83.2 86.98c-57.91,57.72 -110.36,114.33 -168.29,172.07l-167.35 173.02c24.4,36.44 96.85,97.17 133.39,135.12 8.98,9.33 10.3,13.63 18.79,22.81 67.77,73.28 145.71,140 213.76,213.57l58.57 62.44c54.75,54.76 24.93,34.98 199.49,34.98 52.94,0 105.89,0 158.83,0 -35.85,53.53 -134.24,123.03 -192.13,159.56l-157.96 76.51c-208.98,80.2 -456.75,68.68 -660.72,-19.43 -8.88,-3.83 -11.63,-5.93 -20.52,-9.73 -8.93,-3.82 -12.61,-4.35 -21.25,-9 -63.56,-34.2 -127.31,-73.4 -181.15,-121.39 -6.8,-6.06 -7.98,-8.31 -15.84,-14.41 -27.44,-21.31 -54.91,-48.67 -74.04,-77.24 16.76,-11.22 41.63,-39.74 57.67,-55.78 92.71,-92.69 184.02,-195.37 277.96,-289.31l168.29 -175.85c19.85,-19.83 36.87,-36.85 56.79,-56.67 11.55,-11.49 15.21,-19.13 26.34,-30.39 10.24,-10.36 18.08,-17.93 28.43,-28.29l168.26 -175.88c19.92,-19.7 36.91,-36.88 56.76,-56.69 16.18,-16.16 43.6,-43.26 55.78,-61.45 -36.55,0 -73.25,0.32 -109.78,-0.12 -42.26,-0.51 -38.41,10.28 -70.79,42.67l-306.24 317.75c-10.09,10.48 -18.15,17.98 -28.44,28.28 -28.13,28.13 -59.37,54.7 -84.92,85.26 -34.07,40.76 -73.94,77.59 -111.74,115.17 -12.21,12.13 -15.72,17.02 -26.64,30.08 -33.67,40.29 -76.9,75.67 -113.36,113.55 -32.77,34.05 -74.89,89.34 -112.43,114.47 -9.04,-17.08 -17.92,-29.21 -26.48,-45.38l142.83 -148.36c10.22,-10.33 12.66,-16.35 22.54,-26.62 8.86,-9.21 15.61,-15.46 24.65,-24.5 17.2,-17.19 32.4,-31.59 49.24,-49.09 9.89,-10.27 12.31,-16.3 22.54,-26.62l410.39 -425.37c17.31,-17.31 31.81,-31.94 49.2,-49.13l46.3 -52.03c-31.52,0 -63.04,0.09 -94.55,-0 -54.08,-0.16 -39.98,-3.58 -69.01,25.53 -16.28,16.32 -31.86,30.51 -47.32,47.22l-374.35 385.78c-17.07,16.92 -27.98,31.81 -45.37,49.17 -31.69,31.63 -64.51,61.97 -94.59,94.5 -8.95,9.68 -10.94,14.86 -20.68,24.7 -22.99,23.24 -48.37,55.05 -74.76,72.73 -8.41,-17.53 -14.28,-39.2 -22.69,-56.73l135.24 -137.04c8.5,-9.18 9.81,-13.49 18.78,-22.81 26.58,-27.61 53.75,-51.41 79.54,-79.3l386.64 -403.75c-23.81,0 -127.63,-3.73 -141.88,1.82 -1.67,0.65 -64.84,66.86 -72.73,74.76l-181.36 185.48c-38.31,45.83 -86.5,82.77 -124.8,128.58 -21.76,26.03 -121.04,116.8 -125.91,135.03l-7.56 0c0,-105.44 -46.4,-46.26 61.45,-154.11l177.74 -185.3c11.01,-11.01 19.2,-19.29 30.28,-30.24 12.37,-12.23 16.98,-20.51 28.27,-32.24 26.47,-27.5 97.84,-93.29 118.26,-123.78 -30.26,0 -60.51,0.04 -90.77,-0 -66.19,-0.1 -46.48,-0.55 -114.45,67.07l-43.44 47.32c-30.46,30.45 -61.88,59.44 -90.81,90.72 -28.17,30.45 -57.19,70.56 -91.66,93.65l13.37 -107.65c3.92,-17.41 40.19,-53.33 53.68,-67.34 20.52,-21.32 39.62,-39.49 60.58,-60.43 16.76,-16.75 44.98,-44.39 57.67,-63.34l-113.46 0c4.82,-20.67 42.19,-88.02 54.54,-108.07 105.19,-170.87 256.68,-297.16 444.61,-372.25 65.83,-26.3 181.23,-56.69 272.33,-56.69zm-998.38 854.68c0,251.26 47.98,405.27 164.21,595.92 19.6,32.16 58.84,83.34 82.44,110.43 207.97,238.63 481.99,367.67 804.67,367.67 117.96,0 220.81,-20.06 323.81,-54.37 131.98,-43.96 222.46,-97.57 328.84,-181.69 25.64,-20.28 43.48,-41.68 68.11,-60.48 20.22,-15.44 94.72,-106.41 116.62,-136.76 113.12,-156.78 195.05,-372.7 195.05,-568.87 0,-198.54 -16.01,-296.76 -93.45,-477.59 -53.76,-125.54 -140.08,-230.17 -234.56,-325.14l-67.42 -57.39c-73.58,-55.49 -105.07,-76.28 -193.26,-120.62 -104.7,-52.64 -273.2,-100.84 -398.35,-100.84 -140.29,0 -183.82,-3.31 -326.04,33.22 -115.24,29.62 -246.68,91.99 -338.52,160.68 -88.06,65.87 -152.82,126.48 -220.43,214.48 -87.74,114.21 -147.14,241.2 -182.25,381.23 -15.25,60.81 -29.48,143.52 -29.48,220.12z"/>
 </g>
</svg>
