<?xml version="1.0" encoding="UTF-8"?>
<!DOCTYPE svg PUBLIC "-//W3C//DTD SVG 1.1//EN" "http://www.w3.org/Graphics/SVG/1.1/DTD/svg11.dtd">
<!-- Creator: CorelDRAW -->
<svg xmlns="http://www.w3.org/2000/svg" xml:space="preserve" width="6.39999in" height="2.75591in" version="1.1" style="shape-rendering:geometricPrecision; text-rendering:geometricPrecision; image-rendering:optimizeQuality; fill-rule:evenodd; clip-rule:evenodd"
viewBox="0 0 6399.99 2755.91"
 xmlns:xlink="http://www.w3.org/1999/xlink"
 xmlns:xodm="http://www.corel.com/coreldraw/odm/2003">
 <defs>
  <style type="text/css">
   <![CDATA[
    .fil0 {fill:none}
    .fil1 {fill:#1D1D1B}
   ]]>
  </style>
 </defs>
 <g id="Capa_x0020_1">
  <metadata id="CorelCorpID_0Corel-Layer"/>
  <rect class="fil0" x="-0.01" y="2.05" width="6400" height="2755.91"/>
  <g id="_2357955696384">
   <path class="fil1" d="M2533.43 1643.93l242.66 0.81c-10.72,-56.91 -28.07,-97.13 2.33,-169.82 65.92,-157.57 265.97,-193.02 386.13,-78.34 147.22,140.52 49.86,393.55 -160.89,397.1 -42.46,0.72 -54.44,-7.13 -89.59,-13.77l0.32 228.72c89.81,14.26 161.83,6.95 241.8,-19.69 31.85,-10.61 67.22,-28.24 93.13,-46.07l59.35 -43.47c118.41,-105.94 174.49,-268.17 142.28,-427.61 -54.54,-270.02 -340.53,-422.28 -586.59,-345.33 -53.03,16.58 -76.33,33.42 -100.35,41.45l-0.02 -424.28 -229.67 -0.27 -0.92 900.56z"/>
   <path class="fil1" d="M5277.22 1647.1l228.94 1.04c-14.66,-65.3 -25.23,-101.02 1.9,-167.96 19.5,-48.11 54.15,-85.26 90.95,-107.81 101.9,-62.44 223.49,-38.77 293.26,30.89 106.04,105.87 92.44,303.89 -80.9,377.07 -78.17,33 -132.17,5.11 -168.61,3.13l-0.18 224.73c95.86,20.48 187.89,4.51 266.22,-47.36 4.98,-3.29 10.33,-7.09 15.56,-11 11.22,-8.39 30.17,-28.67 44.7,-38.06l0.17 101.48 213.68 -0.43c0.44,-97.36 0.16,-195 0.16,-292.64 0,-92.93 6.72,-193.24 -17.81,-278.31 -41.66,-144.45 -150.71,-252.07 -286.52,-300.32 -270.95,-96.26 -572.66,83.65 -608.05,369.87 -3.86,31.22 -6.22,109.68 6.55,135.7z"/>
   <path class="fil1" d="M3618.88 1642.05c17.82,6.56 201.5,3.75 233.08,2.26 -13.23,-66 -26.66,-101.98 2.89,-170.15 22.06,-50.87 48.63,-81.15 90.88,-107.91 99.9,-63.26 223.73,-38.72 294.41,28.67 144.75,138 52.74,394.81 -159.34,398.79 -43.19,0.81 -55.64,-7.2 -90.56,-13.64l0.02 228.89c124,15.23 206.02,2.74 304.36,-48.15 76.11,-39.39 144.42,-106.34 184.63,-180.2 108.52,-199.33 46.76,-419.16 -78.55,-539.76 -9.46,-9.11 -11.64,-13.39 -21.94,-21.13 -69.85,-52.49 -119.73,-85.44 -217.28,-104.2 -198.16,-38.09 -396.74,56.11 -490.21,221.41 -51.07,90.31 -71.76,186.49 -52.39,305.1z"/>
   <path class="fil1" d="M520.7 1378.63c11.41,19.09 88.3,97.2 108.28,121l440.69 477.74c11.44,12.02 32.94,38.14 41.48,38.14l286.13 0.06c-4.46,-9.65 -91.04,-100 -107.35,-119.46 -11.67,-13.92 -24.79,-26.26 -36.55,-39.68 -55.27,-63.08 -127.69,-134.56 -182.89,-198.24 -69.32,-79.98 -171.15,-179.53 -236.53,-257.55l-14.19 -15.93c-4.32,-5.48 -0.46,1.2 -4.13,-6.09l199.73 -218.54c7.04,-8.22 11.77,-11.7 19.74,-19.9l346.25 -376.53c5.93,-6.34 12.49,-15.75 16.35,-19.46l-280.07 -1c-23.44,1.35 -38.7,30.43 -51.09,43.72l-545.85 591.71z"/>
   <polygon class="fil1" points="4722.6,2012.96 4953.04,2012.82 4953.05,1335.1 5178.9,1333.79 5180.18,1107.63 4953.01,1106.61 4953.04,743.41 4722.71,743.33 "/>
   <path class="fil1" d="M1746.57 1779.74l-0.31 229.59c129.86,11.79 200.15,5.35 304.54,-48.7 78.47,-40.63 141.89,-104.84 184.39,-180.39 57.46,-102.17 57.36,-179.32 57.36,-308.77 0,-117.42 5.57,-248.98 -0.44,-364.64l-225.09 -0.06c-1.93,92.85 6.93,446.11 -5.53,503.17 -21.8,99.86 -104.54,170.12 -198.95,181.94 -51.33,6.43 -72.29,-2 -115.96,-12.15z"/>
   <path class="fil1" d="M216.08 1645.12l229.91 0.42c0,-49.93 4.39,-876.54 -1.8,-902.38l-226.89 0.19 -1.22 901.77z"/>
   <path class="fil1" d="M1406.22 1644.28l233.13 0.41c-12.15,-52.62 -14.77,-64.3 -14.76,-123.48 0.02,-134.5 -2.72,-282.94 0.17,-414.24l-225.75 -0.31c0.12,172.72 -9.03,369.51 7.2,537.62z"/>
  </g>
 </g>
</svg>
