<?xml version="1.0" encoding="UTF-8"?>
<!DOCTYPE svg PUBLIC "-//W3C//DTD SVG 1.1//EN" "http://www.w3.org/Graphics/SVG/1.1/DTD/svg11.dtd">
<!-- Creator: CorelDRAW -->
<svg xmlns="http://www.w3.org/2000/svg" xml:space="preserve" width="6.39999in" height="2.75591in" version="1.1" style="shape-rendering:geometricPrecision; text-rendering:geometricPrecision; image-rendering:optimizeQuality; fill-rule:evenodd; clip-rule:evenodd"
viewBox="0 0 6399.99 2755.91"
 xmlns:xlink="http://www.w3.org/1999/xlink"
 xmlns:xodm="http://www.corel.com/coreldraw/odm/2003">
 <defs>
  <style type="text/css">
   <![CDATA[
    .fil0 {fill:none}
    .fil2 {fill:black;fill-rule:nonzero}
    .fil1 {fill:#E20613;fill-rule:nonzero}
   ]]>
  </style>
 </defs>
 <g id="Capa_x0020_1">
  <metadata id="CorelCorpID_0Corel-Layer"/>
  <rect class="fil0" x="-0.01" y="2.05" width="6400" height="2755.91"/>
  <g id="_2357959881904">
   <path class="fil1" d="M1011.37 1524.12l-149.61 -198.71 256.94 0 39.85 -56.31 -336.81 0 -186.38 -250.67 748.65 0 -372.65 505.69zm-221 299.93l-373.14 -500.57 377.16 0 183.24 246.43 -187.26 254.14zm891.32 -538.55c-4.61,-9.17 -14.01,-14.97 -24.28,-14.97l-348.15 0 -38.81 53.5 0 0.88 332.91 0 -369.95 497.82 -188.08 -252.98 414.42 -562.38c6.06,-8.26 6.99,-19.26 2.37,-28.4 -4.62,-9.14 -13.98,-14.92 -24.27,-14.92l-856.54 0c-10.3,0 -19.65,5.78 -24.28,14.97 -4.62,9.19 -3.63,20.2 2.48,28.46l194.58 261.62 -390.92 0c-0.02,0 -0.04,0 -0.06,0 -15,0 -27.15,12.16 -27.15,27.15 0,5.87 1.9,11.58 5.42,16.28l427.41 573.39c5.13,6.88 13.21,10.95 21.8,10.95l0.06 0c8.59,0 16.68,-4.13 21.8,-11.06l199.2 -270.32 199.97 269c5.12,6.88 13.21,10.96 21.8,10.96 8.59,0 16.68,-4.07 21.8,-10.96l424.06 -570.58c6.11,-8.26 7.1,-19.26 2.48,-28.46l-0.06 0.06z"/>
   <path class="fil2" d="M2191.64 1531.9l0 -154.63 -81.75 154.63 -45.35 0 -80.98 -154.63 0 154.63 -53.1 0 0 -203.04 89.84 0 68.11 134.51 67.34 -134.51 89.24 0 0 203.04 -53.36 0zm188.04 -78.85l79.53 0 -39.72 -80.38 -39.81 80.38zm-38.1 78.85l-62.91 0 103.48 -203.04 76.2 0 101.26 203.04 -62.31 0 -17.56 -36.82 -119.85 0 -18.33 36.82zm304.56 -61.2c0,8.09 2.47,13.38 7.5,15.85 5.54,2.04 12.7,3.07 21.48,3.07l26.77 0 37.93 -1.19c10.4,0 17.22,-1.45 20.37,-4.26 3.15,-2.81 4.78,-7.25 4.78,-13.3 0,-5.46 -1.79,-9.72 -5.37,-12.96 -3.67,-3.24 -10.57,-4.86 -20.72,-4.86l-9.2 0 -92.91 -2.47c-17.22,0 -29.58,-4.77 -37,-14.32 -7.07,-9.98 -10.57,-24.81 -10.57,-44.41 0,-16.62 2.22,-29.58 6.65,-38.78 4.43,-9.2 12.7,-15.69 24.72,-19.35 6.48,-1.87 13.64,-3.32 21.57,-4.43 7.84,-1.11 16.37,-1.62 25.4,-1.62l39.21 -0.94 39.46 0c8.19,0 15.26,0.26 21.31,0.94 6.05,0.6 11.59,1.79 16.8,3.41 9.46,2.47 16.19,7.42 20.2,14.75 4.01,7.33 6.56,14.06 7.76,20.12 1.19,6.05 1.79,14.32 1.79,24.72l-55.32 0c0,-6.9 -1.87,-11.85 -5.71,-14.74 -3.84,-2.9 -9.12,-4.43 -16.03,-4.43l-27.28 -0.34 -43.13 1.54c-5.37,0 -10.15,1.19 -14.32,3.58 -4.18,2.39 -6.22,6.39 -6.22,12.02 0,7.5 2.3,12.61 6.99,15.34 2.22,1.02 4.94,1.88 8.18,2.47 3.24,0.6 6.99,0.94 11.25,0.94l80.89 -0c24.12,0 41.43,4.18 52,12.53 10.91,7.93 16.37,24.38 16.37,49.27 0,23.95 -4.86,40.41 -14.57,49.35 -9.72,8.95 -25.83,13.39 -48.25,13.39l-72.37 2.13 -37.85 -0.94c-20.2,0 -35.04,-3.5 -44.41,-10.57 -9.37,-7.07 -14.06,-21.31 -14.06,-42.7l0 -12.19 55.32 0 0.25 3.32 0.34 0.09zm273.37 0c0,8.09 2.47,13.38 7.5,15.85 5.54,2.04 12.7,3.07 21.48,3.07l26.77 0 37.93 -1.19c10.4,0 17.22,-1.45 20.37,-4.26 3.15,-2.81 4.77,-7.25 4.77,-13.3 0,-5.46 -1.79,-9.72 -5.37,-12.96 -3.67,-3.24 -10.57,-4.86 -20.71,-4.86l-9.2 0 -92.91 -2.47c-17.22,0 -29.58,-4.77 -36.99,-14.32 -7.07,-9.98 -10.57,-24.81 -10.57,-44.41 0,-16.62 2.22,-29.58 6.65,-38.78 4.43,-9.2 12.7,-15.69 24.72,-19.35 6.48,-1.87 13.64,-3.32 21.57,-4.43 7.84,-1.11 16.37,-1.62 25.4,-1.62l39.21 -0.94 39.46 0c8.19,0 15.26,0.26 21.31,0.94 6.05,0.6 11.68,1.79 16.79,3.41 9.46,2.47 16.2,7.42 20.2,14.75 4,7.33 6.56,14.06 7.76,20.12 1.19,6.05 1.79,14.32 1.79,24.72l-55.32 0c0,-6.9 -1.87,-11.85 -5.71,-14.74 -3.75,-2.9 -9.12,-4.43 -16.02,-4.43l-27.28 -0.34 -43.13 1.54c-5.37,0 -10.14,1.19 -14.32,3.58 -4.18,2.39 -6.22,6.39 -6.22,12.02 0,7.5 2.3,12.61 6.99,15.34 2.22,1.02 4.94,1.88 8.18,2.47 3.24,0.6 6.99,0.94 11.25,0.94l80.89 -0c24.12,0 41.43,4.18 52,12.53 10.91,7.93 16.37,24.38 16.37,49.27 0,23.95 -4.86,40.41 -14.57,49.35 -9.72,8.95 -25.83,13.39 -48.25,13.39l-72.37 2.13 -37.85 -0.94c-20.2,0 -35.04,-3.5 -44.41,-10.57 -9.37,-7.07 -14.06,-21.31 -14.06,-42.7l0 -12.19 55.32 0 0.26 3.32 0.34 0.09zm427.22 -141.84l0 46.29 -150.45 0 0 34.69 140.39 0 0 40.15 -140.39 -0 0 35.89 150.45 0 0 45.94 -206.96 0 0 -202.96 206.96 0zm290.07 0l-104.33 132.38 0 70.58 -56.69 0 0 -70.58 -105.95 -132.38 71.17 0 62.82 83.71 62.31 -83.71 70.67 0zm331.5 0l0 46.29 -143.37 0 0 34.69 143.37 0 0 40.23 -143.37 0 0 81.92 -57.62 0 0 -203.13 201 0zm246 0l0 46.29 -153.52 0 0 34.69 143.37 0 0 40.23 -143.37 0 0 35.97 153.52 0 0 45.94 -211.14 0 0 -203.13 211.14 0zm194.78 102.04c13.04,0 21.14,-1.7 24.38,-5.2 3.24,-3.5 4.86,-11.34 4.86,-23.44 0,-6.99 -0.59,-11.93 -1.87,-14.92 -1.19,-2.98 -3.83,-5.29 -7.76,-6.91l-9.38 -2.13 -104.67 0 0 52.68 94.53 0 -0.09 -0.08zm24.12 -102.04c22.93,0 39.13,4.78 48.5,14.32 4.94,4.69 8.61,11.08 11.08,19.26 2.47,8.1 3.67,18.41 3.67,30.86l0 3.41c0,8.52 -0.43,15.68 -1.36,21.39 -0.94,5.71 -2.81,10.91 -5.71,15.6 -2.81,4.69 -6.14,8.35 -9.97,11 -2.64,1.62 -10.57,4.94 -23.87,9.8 12.87,1.79 22.5,5.46 28.98,10.74 6.48,5.37 9.63,14.75 9.63,28.04l0 38.79 -58.48 -0 0 -19.35c0,-9.72 -0.77,-17.48 -2.39,-23.44 -1.62,-5.97 -9.12,-8.95 -22.59,-8.95l-96.15 0 0 51.74 -57.62 -0 0 -203.13 176.28 0 0 -0.09zm353.92 88.65l0.26 42.71c0,25.23 -4,43.9 -12.1,55.92 -8.01,12.02 -23.7,17.98 -46.97,17.98l-94.28 0c-21.57,0 -38.7,-1.54 -51.4,-4.52 -12.7,-3.07 -22.84,-10.06 -30.52,-20.97 -7.67,-10.82 -11.51,-27.36 -11.51,-49.52l-0.59 -25.66c0,-39.64 4.52,-67.08 13.64,-82.34 9.12,-15.26 30.43,-22.84 64.1,-22.84l43.13 -1.54 15.94 0 38.61 1.54c24.98,0 43.13,4.6 54.38,13.72 11.25,9.12 16.88,26.85 16.88,53.02l0 3.58 -56.17 0c0,-4.77 -0.59,-8.78 -1.87,-12.1 -1.28,-3.33 -3.41,-5.54 -6.56,-6.65 -3.15,-1.11 -6.99,-2.05 -11.51,-2.81l-14.24 0 -66.83 -1.19c-13.64,0 -22.25,3.67 -25.91,10.91 -3.58,7.33 -5.37,19.35 -5.37,36.14l0 19.01c0,14.15 1.7,24.55 5.11,31.28 3.41,6.73 8.61,10.74 15.6,11.93l15.34 1.53 65.04 0c9.8,0 17.47,-1.79 23.02,-5.28 5.45,-3.5 8.27,-10.15 8.27,-19.86l0 -5.88 -73.22 0 0 -38.1 129.74 0zm288.45 27.36l0 11.85c0,31.45 -7.84,52.25 -23.44,62.39 -15.6,10.15 -39.3,15.26 -71.09,15.26l-47.14 0c-13.04,0 -24.12,-0.34 -33.24,-0.94 -9.12,-0.6 -17.13,-1.7 -24.12,-3.33 -13.04,-2.64 -23.7,-9.89 -31.96,-21.65 -8.27,-11.76 -12.36,-30 -12.36,-54.64l0 -124.71 57.62 0 0 106.72c0,19.95 2.3,33.16 6.82,39.47 4.6,6.31 16.02,9.46 34.35,9.46l49.7 0c15.69,0 25.74,-2.64 30.17,-7.93 4.43,-5.29 6.65,-16.03 6.65,-32.14l0 -115.5 57.96 0 0 115.76 0.08 -0.09zm103.57 25.91c0,8.1 2.56,13.39 7.67,15.85 5.71,2.05 13.04,3.07 21.91,3.07l27.28 0 38.7 -1.19c10.66,0 17.56,-1.45 20.72,-4.26 3.24,-2.81 4.86,-7.24 4.86,-13.3 0,-5.46 -1.88,-9.8 -5.54,-12.96 -3.67,-3.24 -10.74,-4.86 -21.14,-4.86l-9.38 0 -94.79 -2.47c-17.64,0 -30.17,-4.78 -37.76,-14.32 -7.24,-9.97 -10.83,-24.8 -10.83,-44.41 0,-16.62 2.22,-29.58 6.82,-38.87 4.52,-9.2 12.96,-15.69 25.23,-19.35 6.65,-1.79 13.98,-3.32 21.99,-4.43 8.01,-1.11 16.71,-1.7 26,-1.7l40.06 -0.94 40.32 -0c8.35,0 15.6,0.26 21.73,0.94 6.14,0.59 11.85,1.79 17.13,3.41 9.63,2.47 16.54,7.33 20.54,14.74 4.09,7.42 6.74,14.07 7.93,20.12 1.19,6.05 1.87,14.32 1.87,24.72l-56.52 0c0,-6.91 -1.96,-11.85 -5.8,-14.75 -3.92,-2.9 -9.37,-4.43 -16.37,-4.43l-27.79 -0.34 -43.98 1.53c-5.54,0 -10.31,1.2 -14.66,3.58 -4.26,2.39 -6.39,6.39 -6.39,12.02 0,7.5 2.39,12.62 7.07,15.35 2.22,1.02 5.03,1.87 8.35,2.47 3.33,0.59 7.16,0.94 11.51,0.94l82.6 0c24.63,0 42.28,4.18 53.1,12.53 11.17,7.93 16.71,24.38 16.71,49.35 0,23.95 -4.94,40.41 -14.92,49.35 -9.89,8.95 -26.34,13.39 -49.27,13.39l-73.82 2.13 -38.61 -0.94c-20.63,0 -35.72,-3.5 -45.26,-10.57 -9.55,-7.07 -14.32,-21.31 -14.32,-42.7l0 -12.19 56.52 0 0.25 3.32 0.26 0.17zm315.64 13.64l60.44 0c16.11,0 27.7,-1.87 34.95,-5.54 7.16,-3.67 10.82,-13.04 10.82,-28.21l0.6 -27.62c0,-9.21 -0.51,-17.13 -1.54,-23.87 -1.02,-6.73 -3.15,-11.68 -6.22,-14.74 -3.07,-3.07 -7.84,-5.11 -14.07,-6.14 -6.22,-1.02 -10.82,-1.62 -13.72,-1.7 -2.9,-0.08 -5.28,-0.17 -6.99,-0.17l-57.37 0c-13.47,0 -23.35,1.45 -29.83,4.35 -6.82,2.64 -10.74,8.87 -11.93,18.5l-1.45 23.1 0 13.81c0,18.67 1.96,31.37 5.96,38.02 4.01,6.65 14.07,9.98 30.35,9.98l0 0.25zm31.2 -157.78l45.94 0.94c33.67,0 56.77,5.96 69.13,17.9 12.44,11.93 18.58,35.8 18.58,71.69l0 9.72c0,42.11 -4.94,70.32 -14.75,84.56 -9.8,14.24 -34.69,21.39 -74.67,21.39l-43.39 1.19 -18.15 0 -39.21 -1.19c-21.74,0 -38.61,-5.37 -50.63,-16.02 -12.02,-10.65 -17.98,-27.87 -17.98,-51.74l-0.6 -37.51c0,-41.26 4.86,-68.28 14.58,-80.98 9.72,-12.7 33.16,-19.09 70.24,-19.09l40.92 -0.94 0 0.08zm347.27 205.35l-114.22 -152.58 0 152.58 -54.22 0 0 -203.13 91.72 0 114.14 152.24 0 -152.24 54.21 0 0 203.13 -91.63 0z"/>
  </g>
 </g>
</svg>
