<svg viewBox="0 0 120 80" stroke="currentColor" stroke-width="1.5" stroke-linecap="round" stroke-linejoin="round" fill="none" xmlns="http://www.w3.org/2000/svg">
  <path d="M 15 55 L 105 55 L 105 15 L 15 15 Z" />
  <path d="M 20 20 L 40 20 L 40 33 L 20 33 Z" />
  <path d="M 45 20 L 65 20 L 65 33 L 45 33 Z" />
  <path d="M 70 20 L 90 20 L 90 33 L 70 33 Z" />
  <path d="M 20 38 L 40 38 L 40 50 L 20 50 Z" />
  <path d="M 45 38 L 65 38 L 65 50 L 45 50 Z" />
  <path d="M 70 38 L 90 38 L 90 50 L 70 50 Z" />
  <path d="M 20 55 A 8 8 0 0 1 36 55" />
  <path d="M 75 55 A 8 8 0 0 1 91 55" />
  <circle cx="28" cy="55" r="6" />
  <circle cx="28" cy="55" r="2" />
  <circle cx="83" cy="55" r="6" />
  <circle cx="83" cy="55" r="2" />
  <path d="M 15 35 L 105 35" />
</svg>
