<?xml version="1.0" encoding="UTF-8"?>
<!DOCTYPE svg PUBLIC "-//W3C//DTD SVG 1.1//EN" "http://www.w3.org/Graphics/SVG/1.1/DTD/svg11.dtd">
<!-- Creator: CorelDRAW -->
<svg xmlns="http://www.w3.org/2000/svg" xml:space="preserve" width="100%" height="100%" version="1.1" style="shape-rendering:geometricPrecision; text-rendering:geometricPrecision; image-rendering:optimizeQuality; fill-rule:evenodd; clip-rule:evenodd"
viewBox="280 1380 3193 756"
 xmlns:xlink="http://www.w3.org/1999/xlink"
 xmlns:xodm="http://www.corel.com/coreldraw/odm/2003">
 <defs>
  <style type="text/css">
   <![CDATA[
    .fil0 {fill:#001E50}
    .fil1 {fill:#001E50;fill-rule:nonzero}
   ]]>
  </style>
 </defs>
 <g id="Capa_x0020_1">
  <metadata id="CorelCorpID_0Corel-Layer"/>
  <path class="fil0" d="M576.54 1809.39l60.93 33.24c13.82,7.22 9.65,4.6 15.12,16.42 11.66,25.17 26.05,46.03 44.53,65.41 2.82,2.96 4.8,5.54 7.85,8.32 26.41,24.01 40.23,34.9 75.04,51.1 30.08,14 66.34,22.17 103.92,22.34 50.12,0.22 106.96,-16.94 144.81,-44.54 37.4,-27.26 67.22,-57.98 87.11,-102.09 5.57,-12.34 2.79,-8.09 15.71,-15.78 18.41,-10.96 41.33,-24.16 60.43,-33.51 -3.24,30.13 -23.8,75.17 -38.48,100.82 -11.64,20.34 -23.28,33.78 -37.33,50.37l-17.57 17.77c-2.57,2.64 -6.1,5.46 -9.41,8.27 -87,73.86 -205.83,99.1 -322.3,53.29 -31.94,-12.56 -51.96,-25.89 -77.69,-45.37 -9.33,-7.05 -23.66,-20.54 -31.86,-28.88 -13.37,-13.61 -32.87,-39.38 -42.15,-55.55 -18.29,-31.86 -29.9,-60.03 -38.67,-101.63zm-138.88 -147.67c4.42,1.27 59.2,27.78 66.04,30.87 22.32,10.1 43.63,20.8 66.09,30.84 22.24,9.94 43.1,21.18 65.06,31.8 21.69,10.48 43.02,20.74 65.11,31.06 27.54,12.87 37.51,15.99 59.75,-17.5l99.67 -142.58c22.76,-32.65 29.67,-29.31 50.41,-0.52l80.38 113.43c6.75,9.83 13.33,19.07 19.89,28.56 19.78,28.64 28.52,33.95 60.23,19.44 11.11,-5.08 21.45,-10.47 32.23,-16.21 10.78,-5.74 21.87,-10.56 32.28,-16.19 9.93,-5.37 22.37,-10.8 32.84,-15.58 34.48,-15.73 65,-30.95 98.69,-46.67l48.96 -23.37c4.29,-2.19 12.04,-6.41 16.03,-7.4 -1.37,33.67 -19.32,49.79 -38.91,62.97 -39.66,26.69 -91.15,47.75 -132.05,72.53 -17.93,10.86 -45.56,24.09 -66.21,36.09 -19.87,11.54 -50.22,28.13 -78.58,17.33 -31.25,-11.91 -61.57,-68.36 -80.55,-98.65 -8.63,-13.78 -43.96,-69.49 -51.85,-75.2l-60.74 93.23c-6.51,10.38 -12.98,20.2 -19.96,30.77 -15.29,23.13 -20.25,38.65 -51.78,50.54 -17.8,6.71 -24.87,5 -41.46,-1.97 -43.88,-18.46 -92.22,-47.2 -133.76,-70.83 -5.54,-3.14 -11.04,-5.84 -16.74,-8.67l-50.03 -26.85c-11.51,-6.36 -20.95,-12.32 -31.69,-19.04 -11.91,-7.46 -19.34,-12.44 -26.91,-23.85 -5.46,-8.24 -13.33,-25.62 -12.43,-38.35zm581.05 72.09c2.33,-2.16 86.25,-42.18 96.56,-47.03 32.44,-15.25 64.81,-31.16 97.22,-46.66 32.43,-15.51 64.36,-31.55 96.99,-46.79l72.73 -34.96c6.39,-3.3 17.47,-9.18 23.63,-11.15 4.78,24.46 -8.11,40.52 -19.65,52.05 -1.85,1.85 -3.2,2.43 -5.06,4.19 -2.04,1.93 -2.59,2.38 -5.08,4.14 -13.55,9.57 -18.77,13.16 -35.39,20 -32.3,13.3 -90.56,42.17 -124.83,58.93l-99.01 47.95c-14.06,6.6 -67.38,33.54 -76.11,34.21 -3.19,-7.84 -19.01,-28.37 -22,-34.88zm-391.51 -12.41c-16.72,-7.8 -33.4,-16.02 -50.19,-23.69l-50.06 -23.76c-16.39,-8.43 -33.89,-15.58 -49.78,-24.07 -15.66,-8.37 -33.37,-16.69 -50.37,-23.43 -4.54,-1.8 -9.51,-2.8 -13.46,-4.98 -13.04,-7.18 -21.7,-13.16 -32.53,-22.85 -9.4,-8.42 -26.31,-30.12 -18.89,-51.66l388.91 187.61c-1.74,4.94 -20.37,27.99 -22.72,34.24 -5.15,-1.2 -93.15,-43.8 -100.91,-47.42zm-0.09 -149.62c4.77,-10.4 34.83,-43.53 45.63,-52.98l27.22 -22.03c96.22,-70.51 234.61,-81.2 339.32,-19.06 15.41,9.15 44.59,28.37 56.48,41.19 4.04,4.35 8.45,7.6 12.55,12.05 8.02,8.71 15.62,16.64 22.98,26.25l10.09 13.48c-2.63,2.83 -44.73,22.22 -51.86,25.89 -3.22,-3.38 -5.27,-6.57 -8.71,-10.41 -11.24,-12.54 -14.16,-16.88 -28.52,-29.16 -82.28,-70.41 -193.43,-82.98 -291,-31.21 -8.33,4.42 -16.35,9.65 -23.76,14.72 -23.21,15.88 -32.96,27.55 -50.04,46.08 -1.92,2.08 -6.69,7.96 -8.11,10.73l-52.27 -25.54zm-376.85 -117.94c-5.78,-7.32 -15.19,-27.77 -8.49,-40.1 4.89,1.37 12.8,5.97 17.91,8.37 36.99,17.39 85.34,40.06 119.84,57.79l68.51 33.01c23.04,10.86 45.4,22.12 68.57,32.98 68.77,32.25 136.53,66.76 204.77,99.76 5.01,2.43 64.67,31.16 67.82,33.55 -1.37,3.11 -3.67,5.91 -5.71,8.74 -4.89,6.78 -13.59,20.66 -17.77,25.7l-349.49 -168.13c-18.75,-9.87 -42.25,-19.78 -61.29,-29.49 -3.74,-1.91 -5.53,-2.07 -8.73,-3.55 -37.11,-17.19 -71.33,-27.48 -95.93,-58.64zm764.66 207.16c11.51,-5.54 22.6,-11.18 34.03,-16.71 22.77,-11.03 44.79,-22.16 67.57,-33.16 89.87,-43.41 182.61,-89.4 272.79,-131.8l68.53 -32.99c7.67,-3.87 64.87,-31.96 68.26,-32.48 5.69,14.52 -2.15,31.03 -8.56,39.91 -6.28,8.69 -17.59,18.52 -26.9,24.63 -11.15,7.32 -20,11.99 -33.52,18l-174.54 82.31c-23.47,11.02 -46.34,22.49 -69.62,33.48 -18.83,8.89 -52.02,24.42 -69.44,33.55 -11.02,5.77 -23.44,11.35 -34.85,16.71l-86.7 41.74c-5.63,2.67 -11.52,6.28 -17.28,8.17l-23.81 -34.79 34.06 -16.59zm413.88 -124.97c5.19,-1.24 20,-8.43 25.93,-11.23 21.44,-10.13 40.99,-17.83 59.46,-32.85 3.74,-3.03 6.55,-5.65 9.93,-8.54 12.28,-10.52 24.55,-28.96 27.68,-46.05 3.15,-17.14 -0.6,-30.71 -7.37,-45.7 -1.88,-4.15 -4.24,-7.73 -5.94,-11.89l-373.86 180.01c-2.87,-2.3 -8.63,-11.53 -11.56,-15.15l-18.49 -22.28c-5.25,-6.13 -20.76,-20.49 -27.23,-26.59l-14.78 -12.15c-57.36,-44.42 -127.81,-71.93 -208.65,-71.65 -108.78,0.39 -206.25,51.45 -268.65,133.15 -2.91,3.8 -8.24,12.42 -11.35,15.16l-374.46 -180.06c-3.57,4.67 -9.65,18.42 -11.72,25.01 -3.18,10.15 -4.12,21.83 -1.78,32.95 4,18.96 12.29,28.91 23.55,41 7.07,7.59 16.54,15.28 25.2,20.94 16.65,10.85 54.99,28.62 73.9,36.04 -3.13,16.26 -6.63,24.06 -1.08,41.89 7.29,23.44 24.83,38.81 43.38,52.75 11.28,8.48 24.04,13.53 29.83,17.69 -0.72,23.31 1.91,41.89 12.36,59.33 6.73,11.23 14.79,20.22 24.65,28.43 17.61,14.67 32.8,22.63 54.37,34.04 4.9,2.59 46.07,22.49 46.85,23.93 4.13,7.78 2.25,78.98 72.61,168.88 7.02,8.96 15.48,17.83 22.91,25.55 7.13,7.41 16.78,15.91 25.36,23.07 42.2,35.25 105.78,66.06 167.18,73.48 58.78,7.1 117.22,1.46 167.91,-18.92 50.06,-20.14 80.15,-40.91 117.45,-75.59 31.15,-28.95 61.71,-78.02 76.67,-116.34 4.65,-11.91 8.49,-23.45 12.1,-36.36 3.83,-13.69 5.5,-26.13 8.15,-40.34 0.79,-4.23 2.9,-3.84 6.51,-5.79 2.78,-1.5 5.17,-2.98 7.91,-4.37 5.56,-2.83 10.13,-5.65 15.41,-8.42 28.86,-15.13 68.43,-34.59 87.35,-56.48 16.75,-19.36 20.05,-43.19 21.61,-74.54 2.7,-2.54 11.28,-6.21 15.13,-8.68 4.99,-3.2 10.05,-6.19 14.53,-9.33 17.54,-12.31 35.82,-30.45 42.24,-52.35 5.69,-19.41 1.32,-26.89 -1.18,-41.68z"/>
  <g id="_2189444705248">
   <path class="fil1" d="M3066.09 1903.15c-35.28,0 -77.36,-4.33 -126.26,-13l16.25 -84.02c13.61,4.02 32.8,7.89 57.56,11.61 24.76,3.71 44.41,5.57 58.95,5.57 4.95,0 10.37,-0.31 16.25,-0.93 5.88,-0.62 12.3,-1.78 19.26,-3.48 6.96,-1.7 12.77,-4.49 17.41,-8.36 4.64,-3.87 6.96,-8.43 6.96,-13.69 0,-8.98 -10.67,-13.93 -32.03,-14.85 -12.69,-0.62 -23.98,-1.47 -33.89,-2.55 -9.91,-1.09 -21.04,-3.33 -33.42,-6.73 -12.38,-3.41 -22.67,-7.81 -30.87,-13.23 -8.2,-5.42 -15.16,-12.92 -20.89,-22.52 -5.73,-9.59 -8.59,-20.73 -8.59,-33.42 0,-21.97 5.11,-42.63 15.31,-61.97 10.21,-19.34 24.45,-35.04 42.7,-47.11 30.02,-19.8 71.95,-29.71 125.8,-29.71 45.8,0 83.09,3.56 111.87,10.68l-16.25 82.16c-41.47,-9.28 -73.8,-13.93 -97.02,-13.93 -12.38,0 -25.76,1.85 -40.15,5.57 -14.39,3.71 -21.59,9.9 -21.59,18.57 0,3.09 4.33,5.88 13,8.35 5.88,1.55 18.57,3.87 38.06,6.96 12.38,1.85 22.36,3.56 29.94,5.11 7.58,1.55 16.94,4.25 28.08,8.12 11.15,3.87 19.89,8.35 26.23,13.46 6.35,5.11 11.92,11.99 16.71,20.66 4.8,8.66 7.2,18.72 7.2,30.17 0,21.97 -5.65,43.33 -16.94,64.06 -11.3,20.73 -26.07,36.82 -44.33,48.28 -31.26,20.11 -73.03,30.17 -125.33,30.17z"/>
   <path class="fil1" d="M2746.63 1900.37c-20.73,0 -40.07,-2.4 -58.02,-7.19 -17.94,-4.8 -34.11,-12.07 -48.5,-21.81 -14.39,-9.75 -25.76,-22.75 -34.12,-39 -8.36,-16.24 -12.54,-34.89 -12.54,-55.93 0,-30.94 7.35,-62.12 22.05,-93.53 14.7,-31.41 34.28,-56.09 58.72,-74.04 37.14,-28.16 87.27,-42.24 150.4,-42.24 37.75,0 82.15,5.99 119.91,14.96l-14.08 76.67c-37.13,-6.5 -72.25,-11.33 -90.51,-11.33 -20.11,0 -36.52,1.01 -49.2,3.02 -12.69,2.01 -24.52,6.11 -35.51,12.3 -10.99,6.19 -19.65,15.09 -26,26.69 -6.34,11.61 -11.37,26.69 -15.09,45.26 -3.09,14.55 -4.64,27.54 -4.64,38.99 0,20.11 5.34,33.27 16.01,39.46 10.68,6.19 27,9.28 48.98,9.28l14.39 -0.93 19.33 -2.95 9.13 -38.55 -51.19 -0.74 13.05 -70.87 142.36 0.1 -33.36 175.69c-55.7,11.14 -102.89,16.71 -141.58,16.71z"/>
   <polygon class="fil1" points="2146.77,1895.73 2034.91,1895.73 2098.03,1570.8 2209.9,1570.8 "/>
   <path class="fil1" d="M1700.78 1895.73l-133.22 0c-10.52,-99.95 -21.66,-208.26 -33.42,-324.93l110.48 0 10.67 223.28 4.18 0 84.94 -222.81 114.19 0 -3.71 222.81 4.64 0 95.62 -223.28 104.91 0 -151.79 324.93 -127.19 0 -3.25 -177.31 -4.65 0 -72.41 177.31z"/>
   <path class="fil1" d="M2529.99 1896.35l40.21 -211.61c14.96,-78.76 -13.7,-113.94 -92.45,-113.94 -38.88,0 -78.39,-4.17 -106.92,31.4l-4.72 0.02 5.19 -31.42 -114.6 0 -61.69 325.55 116.04 0 44.87 -236.81c27.36,0 54.72,0 82.08,0 10.1,0.26 19.1,9.67 16.85,25.09l-40.07 211.5 115.24 0.22z"/>
   <path class="fil0" d="M3325.77 1869.59c-1.52,11.97 -12.16,21.95 -25.89,20.3 -11.94,-1.44 -22.17,-12.36 -20.35,-26.31 1.54,-11.78 12.36,-21.64 26.05,-20.05 11.85,1.38 21.93,12.37 20.19,26.07zm-27.18 -31.62c-14.68,2 -27.09,15.47 -24.72,32.8 2.01,14.78 15.69,27.09 32.99,24.65 14.48,-2.04 26.72,-15.55 24.5,-32.61 -1.91,-14.73 -15.56,-27.18 -32.77,-24.83z"/>
   <path class="fil0" d="M3295.77 1864.64l0.02 -8.3c4.51,-0.17 12,-1.01 11.99,4.06 -0.01,5.15 -7.23,4.57 -12.01,4.24zm-6.29 17.57l6.3 0.05 0 -12.62c8.2,-0.67 8.51,5.87 12.81,12.53l7.65 0.08c-0.51,-1.39 -5.22,-9.26 -6.52,-10.9 -1.08,-1.36 -1.72,-1.69 -3.22,-2.53 0.83,-0.49 2.3,-0.7 3.28,-1.2 3.27,-1.67 5.11,-4.69 4.61,-8.78 -0.64,-5.18 -4.88,-7.41 -10.51,-7.41l-14.39 0.04 0 30.75z"/>
  </g>
 </g>
</svg>
