<svg viewBox="0 0 120 80" stroke="currentColor" stroke-width="1.5" stroke-linecap="round" stroke-linejoin="round" fill="none" xmlns="http://www.w3.org/2000/svg">
  <path d="M 10 55 L 35 55 L 35 30 L 10 30 Z" />
  <path d="M 12 53 L 12 33 L 33 33 L 33 53 Z" fill="rgba(255,255,255,0.15)" />
  <path d="M 35 50 L 115 50" />
  <path d="M 40 45 L 115 45" />
  <path d="M 40 30 L 115 30" />
  <path d="M 50 50 L 50 25" />
  <path d="M 80 50 L 80 25" />
  <path d="M 110 50 L 110 25" />
  <path d="M 15 55 A 8 8 0 0 1 31 55" />
  <path d="M 55 55 A 8 8 0 0 1 71 55" />
  <path d="M 75 55 A 8 8 0 0 1 91 55" />
  <path d="M 95 55 A 8 8 0 0 1 111 55" />
  <circle cx="23" cy="55" r="6" />
  <circle cx="63" cy="55" r="6" />
  <circle cx="83" cy="55" r="6" />
  <circle cx="103" cy="55" r="6" />
</svg>
