<svg viewBox="0 0 120 80" stroke="currentColor" stroke-width="1.5" stroke-linecap="round" stroke-linejoin="round" fill="none" xmlns="http://www.w3.org/2000/svg">
  <path d="M 15 55 L 105 55 L 105 50 L 15 50 Z" />
  <path d="M 20 50 L 20 25 L 45 25 L 45 50" />
  <path d="M 23 48 L 23 28 L 42 28 L 42 48 Z" fill="rgba(255,255,255,0.15)" />
  <path d="M 50 50 L 50 15 L 105 20 L 105 50" />
  <path d="M 25 55 A 10 10 0 0 1 45 55" />
  <path d="M 65 55 A 10 10 0 0 1 85 55" />
  <path d="M 85 55 A 10 10 0 0 1 105 55" />
  <circle cx="35" cy="55" r="8" />
  <circle cx="35" cy="55" r="3" />
  <circle cx="75" cy="55" r="8" />
  <circle cx="75" cy="55" r="3" />
  <circle cx="95" cy="55" r="8" />
  <circle cx="95" cy="55" r="3" />
</svg>
