<svg viewBox="0 0 120 80" stroke="currentColor" stroke-width="1.5" stroke-linecap="round" stroke-linejoin="round" fill="none" xmlns="http://www.w3.org/2000/svg">
  <path d="M 20 55 L 45 55 L 45 35 L 95 35 L 95 55 L 105 55" />
  <path d="M 45 35 L 45 12 L 85 12 L 85 35" />
  <path d="M 48 33 L 48 15 L 65 15 L 65 33 Z" fill="rgba(255,255,255,0.15)" />
  <path d="M 25 55 A 10 10 0 0 1 45 55" />
  <path d="M 80 55 A 10 10 0 0 1 100 55" />
  <circle cx="35" cy="55" r="8" />
  <circle cx="35" cy="55" r="3" />
  <circle cx="90" cy="55" r="8" />
  <circle cx="90" cy="55" r="3" />
  <path d="M 68 12 L 68 35" />
  <path d="M 85 20 L 95 20" />
</svg>
