<svg viewBox="0 0 120 80" stroke="currentColor" stroke-width="1.5" stroke-linecap="round" stroke-linejoin="round" fill="none" xmlns="http://www.w3.org/2000/svg">
  <path d="M 65 35 L 70 12 L 95 12 L 100 35 L 105 55" />
  <path d="M 70 33 L 73 16 L 92 16 L 95 33 Z" fill="rgba(255,255,255,0.15)" />
  <path d="M 65 35 L 65 55 L 58 55" />
  <path d="M 68 55 A 17 17 0 0 1 102 55" />
  <path d="M 18 55 A 17 17 0 0 1 52 55" />
  <path d="M 60 55 L 60 35 L 15 35 L 15 55 L 22 55" />
  <path d="M 58 45 L 62 45" />
  <path d="M 45 35 L 45 18 L 48 18 L 48 35" />
  <circle cx="85" cy="55" r="13" />
  <circle cx="85" cy="55" r="4" />
  <circle cx="35" cy="55" r="13" />
  <circle cx="35" cy="55" r="4" />
</svg>
