<svg viewBox="0 0 120 80" stroke="currentColor" stroke-width="1.5" stroke-linecap="round" stroke-linejoin="round" fill="none" xmlns="http://www.w3.org/2000/svg">
  <path d="M 15 50 L 35 50 L 45 40 L 95 40 L 95 50" />
  <path d="M 15 50 L 15 45 L 20 45 L 20 50" />
  <path d="M 50 40 L 50 25 L 85 25 L 85 40" />
  <path d="M 55 25 L 60 15 L 75 15 L 80 25" />
  <path d="M 45 50 L 40 60 L 50 60 L 55 50" />
  <path d="M 65 50 L 60 60 L 70 60 L 75 50" />
  <path d="M 85 50 L 80 60 L 90 60 L 95 50" />
  <circle cx="95" cy="55" r="6" />
  <circle cx="95" cy="55" r="2" />
  <circle cx="35" cy="55" r="6" />
  <circle cx="35" cy="55" r="2" />
</svg>
