<svg viewBox="0 0 120 80" stroke="currentColor" stroke-width="1.5" stroke-linecap="round" stroke-linejoin="round" fill="none" xmlns="http://www.w3.org/2000/svg">
  <path d="M 35 38 L 35 15 L 85 15 L 105 35 L 105 59 L 86 59" />
  <path d="M 35 38 L 38 18 L 55 18 L 55 38" />
  <path d="M 38 36 L 41 21 L 52 21 L 52 36 Z" fill="rgba(255,255,255,0.15)" />
  <path d="M 35 38 L 25 48 L 12 48 L 10 68 L 25 68 L 25 50 L 35 45" />
  <circle cx="17" cy="58" r="7" />
  <path d="M 17 51 L 17 65 M 10 58 L 24 58" />
  <path d="M 65 25 L 110 15 L 110 18 L 70 28" />
  <circle cx="45" cy="53" r="15" />
  <circle cx="45" cy="53" r="4" />
  <circle cx="95" cy="59" r="9" />
  <circle cx="95" cy="59" r="3" />
</svg>
