<?xml version="1.0" encoding="UTF-8"?>
<!DOCTYPE svg PUBLIC "-//W3C//DTD SVG 1.1//EN" "http://www.w3.org/Graphics/SVG/1.1/DTD/svg11.dtd">
<!-- Creator: CorelDRAW -->
<svg xmlns="http://www.w3.org/2000/svg" xml:space="preserve" width="162.56mm" height="91.4398mm" version="1.1" style="shape-rendering:geometricPrecision; text-rendering:geometricPrecision; image-rendering:optimizeQuality; fill-rule:evenodd; clip-rule:evenodd"
viewBox="0 0 16255.98 9143.98"
 xmlns:xlink="http://www.w3.org/1999/xlink"
 xmlns:xodm="http://www.corel.com/coreldraw/odm/2003">
 <defs>
  <style type="text/css">
   <![CDATA[
    .fil0 {fill:none}
    .fil1 {fill:black}
    .fil2 {fill:#90A13E}
    .fil5 {fill:url(#id5)}
    .fil8 {fill:url(#id6)}
    .fil9 {fill:url(#id7)}
    .fil6 {fill:url(#id8)}
    .fil7 {fill:url(#id9)}
    .fil3 {fill:url(#id10)}
    .fil4 {fill:url(#id11)}
   ]]>
  </style>
    <clipPath id="id0">
     <path d="M7662.57 4853.33c0,0 381.22,561.85 126,1262.97 -255.22,701.12 -304.23,1230.55 -14.19,1609.83 290.04,379.29 638.75,450.3 942.86,387.22 -274.91,-40.86 -409.15,-101.81 -442.14,-366.84 -22.68,-182.23 2.68,-442.43 234.89,-767.52 414.2,-579.87 959.59,-936.46 568.96,-2253.27 -432.49,-406.58 -684.98,-332.62 -991.46,-40.41 -165.84,158.12 -425.74,167.9 -424.92,168.02z"/>
    </clipPath>
    <clipPath id="id1">
     <path d="M8397.47 1959.56c0,0 707.04,399.51 342.5,942.7 516.89,-371.31 502.83,-981.09 -52.29,-1304.83 -138,241.88 -290.21,362.13 -290.21,362.13z"/>
    </clipPath>
    <clipPath id="id2">
     <path d="M7752.73 2899.15c-177.96,-588.82 363.95,-662.43 574.15,-813.69 678.81,-433.39 474.98,-1166.8 -22.26,-1141.64 36.12,481.16 -570.32,498.32 -865.57,817.42 -546.94,586.4 -88,1137.91 313.68,1137.91z"/>
    </clipPath>
    <clipPath id="id3">
     <path d="M7693.89 3077.88c-988.85,174.4 -857.34,1350.74 -216.15,1763.7 764.85,492.61 1065.17,-717.86 1528.57,-709.09 -137.48,-57.34 -471.23,-297.64 -1087.96,252.27 -169.37,-57.33 -1171.9,-722.73 -224.46,-1306.88z"/>
    </clipPath>
    <clipPath id="id4">
     <path d="M8638.84 3173.83c0,0 533.31,111.78 808.67,486.69 218.09,296.94 227.83,733.02 134.51,938.85 -202.7,447.08 -910.4,149.51 -1153.92,-10.48 229.9,-401.9 504.81,-490.36 504.81,-490.36l278.4 119.94c45.84,-485.21 -159.52,-809.56 -572.47,-1044.64z"/>
    </clipPath>
  <linearGradient id="id5" gradientUnits="userSpaceOnUse" x1="8786.04" y1="2110.46" x2="8662.95" y2="1750.68">
   <stop offset="0" style="stop-opacity:1; stop-color:#FFD754"/>
   <stop offset="1" style="stop-opacity:1; stop-color:#F2A222"/>
  </linearGradient>
  <radialGradient id="id6" gradientUnits="userSpaceOnUse" gradientTransform="matrix(1.07456 -0.473799 0.253864 0.575869 -1739 5709)" cx="8028.29" cy="4491.39" r="1375.46" fx="8028.29" fy="4491.39">
   <stop offset="0" style="stop-opacity:1; stop-color:#FFD754"/>
   <stop offset="1" style="stop-opacity:1; stop-color:#F2A222"/>
  </radialGradient>
  <radialGradient id="id7" gradientUnits="userSpaceOnUse" gradientTransform="matrix(0.617862 1.18596 -1.31101 0.658308 8446 -9722)" xlink:href="#id6" cx="9275.02" cy="3738.63" r="382.07" fx="9275.02" fy="3738.63">
  </radialGradient>
  <radialGradient id="id8" gradientUnits="userSpaceOnUse" gradientTransform="matrix(0.61897 -0.014571 0.0368531 0.629005 2914 815)" xlink:href="#id6" cx="7830.05" cy="1890.58" r="1866.02" fx="7830.05" fy="1890.58">
  </radialGradient>
  <radialGradient id="id9" gradientUnits="userSpaceOnUse" gradientTransform="matrix(0.862562 0.889281 -1.17942 0.964999 4922 -6386)" xlink:href="#id6" cx="7312.37" cy="3321.44" r="385.72" fx="7312.37" fy="3321.44">
  </radialGradient>
  <radialGradient id="id10" gradientUnits="userSpaceOnUse" gradientTransform="matrix(0.271446 0.938576 -1.10543 0.270328 13288 -2099)" xlink:href="#id6" cx="7657.53" cy="6973.91" r="1890.13" fx="7657.53" fy="6973.91">
  </radialGradient>
  <radialGradient id="id11" gradientUnits="userSpaceOnUse" gradientTransform="matrix(-0.170667 0.603125 -1.76487 -0.446419 20600 3471)" xlink:href="#id6" cx="8582.85" cy="5978.91" r="2846.34" fx="8582.85" fy="5978.91">
  </radialGradient>
 </defs>
 <g id="Capa_x0020_1">
  <metadata id="CorelCorpID_0Corel-Layer"/>
  <rect class="fil0" x="-0.02" y="-0.01" width="16255.99" height="9143.99"/>
  <g id="_2715652071408">
   <path class="fil1" d="M8305.71 3307.54c0,125.22 -81.3,165.92 -81.3,331.22 0,67.92 22.7,132.43 63.73,159.09 46.2,30.03 121.61,43.94 168.14,3.51 -18.7,-4.36 -32.07,-7.05 -50.11,-13.13l-43.73 -22.52c-96.2,-65.99 -24.18,-179.76 12.58,-262.41l70.13 -155.7c18.9,-47.7 25.39,-128.75 13.98,-184.43 -4.15,-20.26 -9.46,-29.38 -17.91,-45.33l156.6 -123.45c-13.43,1.11 -143.38,53.17 -169.09,62.77 -8.67,3.24 -18.67,7.63 -26.65,9.49 -7.51,-5.5 -4.51,-5.33 -12.11,-11.99 -69.39,-60.83 -114,11.99 -174.59,11.99 -27.21,0 -124.73,-28.17 -156.59,-36.14 -26.3,-6.56 -49.37,-13.13 -76.49,-19.87 -21.4,-5.31 -60.05,-18.82 -80.1,-19.27 18.11,12.58 142.89,68.24 178.25,89.75 84.57,51.46 225.26,106.76 225.26,226.42z"/>
   <path class="fil2" d="M7662.57 4853.33c0,0 381.22,561.85 126,1262.97 -255.22,701.12 -304.23,1230.55 -14.19,1609.83 290.04,379.29 638.75,450.3 942.86,387.22 -274.91,-40.86 -409.15,-101.81 -442.14,-366.84 -22.68,-182.23 2.68,-442.43 234.89,-767.52 414.2,-579.87 959.59,-936.46 568.96,-2253.27 -432.49,-406.58 -684.98,-332.62 -991.46,-40.41 -165.84,158.12 -425.74,167.9 -424.92,168.02z"/>
   <g style="clip-path:url(#id0)">
    <g>
     <path id="_1" class="fil3" d="M7576.31 5217.07c0,0 501.93,31.44 413.91,990.33 -88.02,958.88 -81.78,1041.4 3.75,1316 85.52,274.61 255.32,489.46 609.78,561.88 354.46,72.43 641.75,8.75 641.75,8.75l-604.45 100.74c0,0 -675.35,-0.01 -932.8,-320.88 -257.45,-320.88 -343.26,-869.37 -194.02,-1332.04 149.25,-462.66 324.82,-690.26 271.98,-922.38 -52.84,-232.13 -209.9,-402.4 -209.9,-402.4z"/>
     <path class="fil4" d="M8326.88 4901.33c0,0 418.35,450.94 16.36,1206.72 -401.98,755.78 -16.36,1614.28 -16.36,1614.28 0,0 -140.79,-38.52 229.6,-650.7 370.38,-612.18 509.49,-1338.18 353.22,-1854.56 -156.27,-516.38 -62.22,-595.75 -62.22,-595.75 0,0 -334.48,-252.11 -554.14,-47.43 -219.66,204.68 -87.87,169.74 -87.87,169.74l121.41 157.7z"/>
    </g>
   </g>
   <path class="fil0" d="M7662.57 4853.33c0,0 381.22,561.85 126,1262.97 -255.22,701.12 -304.23,1230.55 -14.19,1609.83 290.04,379.29 638.75,450.3 942.86,387.22 -274.91,-40.86 -409.15,-101.81 -442.14,-366.84 -22.68,-182.23 2.68,-442.43 234.89,-767.52 414.2,-579.87 959.59,-936.46 568.96,-2253.27 -432.49,-406.58 -684.98,-332.62 -991.46,-40.41 -165.84,158.12 -425.74,167.9 -424.92,168.02z"/>
   <path class="fil5" d="M8397.47 1959.56c0,0 707.04,399.51 342.5,942.7 516.89,-371.31 502.83,-981.09 -52.29,-1304.83 -138,241.88 -290.21,362.13 -290.21,362.13z"/>
   <g style="clip-path:url(#id1)">
    <g>
     <path id="_1_0" class="fil2" d="M8756.84 1597.43c0,0 189.95,281.15 154.16,605.5 -35.79,324.35 -261.71,458.56 -261.71,458.56l35.79 360.14 561.45 -364.62 -85 -832.12 -404.69 -227.46z"/>
    </g>
   </g>
   <path class="fil0" d="M8397.47 1959.56c0,0 707.04,399.51 342.5,942.7 516.89,-371.31 502.83,-981.09 -52.29,-1304.83 -138,241.88 -290.21,362.13 -290.21,362.13z"/>
   <path class="fil2" d="M7752.73 2899.15c-177.96,-588.82 363.95,-662.43 574.15,-813.69 678.81,-433.39 474.98,-1166.8 -22.26,-1141.64 36.12,481.16 -570.32,498.32 -865.57,817.42 -546.94,586.4 -88,1137.91 313.68,1137.91z"/>
   <g style="clip-path:url(#id2)">
    <g>
     <path id="_1_1" class="fil6" d="M8280.35 985.13c0,0 146.76,339.71 -234.19,523.46 -380.95,183.74 -607.93,460.15 -607.93,741.26 0,281.11 78.18,487.52 303.33,661 225.14,173.49 43.19,-303 43.19,-303 0,0 -107.07,-224.64 84.77,-449.82 191.84,-225.18 558.78,-507.01 594.4,-778.12 35.61,-271.11 -114.41,-254.82 -168.72,-461.88 -15.89,-60.57 -24.92,-83.51 -29.71,-85.62 -11.59,-5.12 14.86,152.72 14.86,152.72z"/>
    </g>
   </g>
   <path class="fil0" d="M7752.73 2899.15c-177.96,-588.82 363.95,-662.43 574.15,-813.69 678.81,-433.39 474.98,-1166.8 -22.26,-1141.64 36.12,481.16 -570.32,498.32 -865.57,817.42 -546.94,586.4 -88,1137.91 313.68,1137.91z"/>
   <path class="fil2" d="M7693.89 3077.88c-988.85,174.4 -857.34,1350.74 -216.15,1763.7 764.85,492.61 1065.17,-717.86 1528.57,-709.09 -137.48,-57.34 -471.23,-297.64 -1087.96,252.27 -169.37,-57.33 -1171.9,-722.73 -224.46,-1306.88z"/>
   <g style="clip-path:url(#id3)">
    <g>
     <path id="_1_2" class="fil7" d="M7300.96 3219.37c0,0 -307.48,239.47 54.59,653.43 362.07,413.96 -131.83,-175.82 23.69,-447.04 155.52,-271.23 347.01,-349.06 399.32,-356.77 52.3,-7.72 -239.54,-13.16 -389.21,57.41 -149.67,70.57 -88.39,92.97 -88.39,92.97z"/>
     <path class="fil8" d="M6974.13 4461.51c15.65,-35.21 351.73,492.95 1065.26,-184.7 713.52,-677.65 1043.07,-163.49 1043.07,-163.49l-1092.24 942.97 -690.16 -134.31 -325.93 -460.47z"/>
    </g>
   </g>
   <path class="fil0" d="M7693.89 3077.88c-988.85,174.4 -857.34,1350.74 -216.15,1763.7 764.85,492.61 1065.17,-717.86 1528.57,-709.09 -137.48,-57.34 -471.23,-297.64 -1087.96,252.27 -169.37,-57.33 -1171.9,-722.73 -224.46,-1306.88z"/>
   <path class="fil9" d="M8638.84 3173.83c0,0 533.31,111.78 808.67,486.69 218.09,296.94 227.83,733.02 134.51,938.85 -202.7,447.08 -910.4,149.51 -1153.92,-10.48 229.9,-401.9 504.81,-490.36 504.81,-490.36l278.4 119.94c45.84,-485.21 -159.52,-809.56 -572.47,-1044.64z"/>
   <g style="clip-path:url(#id4)">
    <g>
     <path id="_1_3" class="fil2" d="M8937.39 4100.6l30.64 13.08 147.74 59.99c23.32,9.47 57.48,26.96 95.54,44.8 79.9,37.48 214.19,84.25 497.63,36.56 7.43,71.07 -24.81,139.43 -24.81,139.43 -11.55,292.17 -117.13,474.02 -403.39,501.41 -359.93,34.45 -626.46,-98.52 -913.42,-274.5 0,0 200.5,-319.48 382.97,-437.33 182.48,-117.85 157.57,-78.07 157.57,-78.07l29.53 -5.37z"/>
    </g>
   </g>
   <path class="fil0" d="M8638.84 3173.83c0,0 533.31,111.78 808.67,486.69 218.09,296.94 227.83,733.02 134.51,938.85 -202.7,447.08 -910.4,149.51 -1153.92,-10.48 229.9,-401.9 504.81,-490.36 504.81,-490.36l278.4 119.94c45.84,-485.21 -159.52,-809.56 -572.47,-1044.64z"/>
  </g>
 </g>
</svg>
