<svg viewBox="0 0 120 80" stroke="currentColor" stroke-width="1.5" stroke-linecap="round" stroke-linejoin="round" fill="none" xmlns="http://www.w3.org/2000/svg">
  <path d="M 10 55 L 55 55 L 55 25 L 10 25 Z" />
  <path d="M 65 55 L 110 55 L 110 25 L 65 25 Z" />
  <path d="M 55 25 L 65 25 L 65 55 L 55 55" />
  <path d="M 57 28 L 63 28" />
  <path d="M 57 35 L 63 35" />
  <path d="M 57 42 L 63 42" />
  <path d="M 57 49 L 63 49" />
  <path d="M 15 28 L 30 28 L 30 45 L 15 45 Z" />
  <path d="M 35 28 L 50 28 L 50 45 L 35 45 Z" />
  <path d="M 70 28 L 85 28 L 85 45 L 70 45 Z" />
  <path d="M 90 28 L 105 28 L 105 45 L 90 45 Z" />
  <path d="M 15 55 A 8 8 0 0 1 31 55" />
  <path d="M 40 55 A 8 8 0 0 1 56 55" />
  <path d="M 85 55 A 8 8 0 0 1 101 55" />
  <circle cx="23" cy="55" r="6" />
  <circle cx="48" cy="55" r="6" />
  <circle cx="93" cy="55" r="6" />
</svg>
