<svg viewBox="0 0 120 80" stroke="currentColor" stroke-width="1.5" stroke-linecap="round" stroke-linejoin="round" fill="none" xmlns="http://www.w3.org/2000/svg">
  <path d="M 10 55 L 110 55 L 110 25 L 10 25 Z" />
  <path d="M 12 53 L 12 27 L 30 27 L 30 53 Z" fill="rgba(255,255,255,0.15)" />
  <path d="M 35 27 L 55 27 L 55 45 L 35 45 Z" />
  <path d="M 60 27 L 80 27 L 80 45 L 60 45 Z" />
  <path d="M 85 27 L 105 27 L 105 45 L 85 45 Z" />
  <path d="M 15 55 A 8 8 0 0 1 31 55" />
  <path d="M 75 55 A 8 8 0 0 1 91 55" />
  <circle cx="23" cy="55" r="6" />
  <circle cx="23" cy="55" r="2" />
  <circle cx="83" cy="55" r="6" />
  <circle cx="83" cy="55" r="2" />
  <path d="M 10 40 L 110 40" />
</svg>
