<svg viewBox="0 0 120 80" stroke="currentColor" stroke-width="1.5" stroke-linecap="round" stroke-linejoin="round" fill="none" xmlns="http://www.w3.org/2000/svg">
  <path d="M 10 55 L 110 55 L 110 20 L 30 20 L 10 35 Z" />
  <path d="M 15 50 L 15 36 L 28 26 L 28 50 Z" fill="rgba(255,255,255,0.15)" />
  <path d="M 32 24 L 50 24 L 50 40 L 32 40 Z" />
  <path d="M 54 24 L 72 24 L 72 40 L 54 40 Z" />
  <path d="M 76 24 L 94 24 L 94 40 L 76 40 Z" />
  <path d="M 15 55 A 8 8 0 0 1 31 55" />
  <path d="M 75 55 A 8 8 0 0 1 91 55" />
  <circle cx="23" cy="55" r="6" />
  <circle cx="23" cy="55" r="2" />
  <circle cx="83" cy="55" r="6" />
  <circle cx="83" cy="55" r="2" />
  <path d="M 10 45 L 110 45" />
  <path d="M 105 30 L 110 30" />
</svg>
