<svg viewBox="0 0 120 80" stroke="currentColor" stroke-width="1.5" stroke-linecap="round" stroke-linejoin="round" fill="none" xmlns="http://www.w3.org/2000/svg">
  <path d="M 25 55 L 95 55 L 95 25 L 45 25 L 25 40 Z" />
  <path d="M 30 50 L 30 42 L 43 30 L 43 50 Z" fill="rgba(255,255,255,0.15)" />
  <path d="M 48 30 L 65 30 L 65 45 L 48 45 Z" />
  <path d="M 70 30 L 90 30 L 90 45 L 70 45 Z" />
  <path d="M 30 55 A 8 8 0 0 1 46 55" />
  <path d="M 70 55 A 8 8 0 0 1 86 55" />
  <circle cx="38" cy="55" r="6" />
  <circle cx="38" cy="55" r="2" />
  <circle cx="78" cy="55" r="6" />
  <circle cx="78" cy="55" r="2" />
  <path d="M 25 48 L 95 48" />
</svg>
