<svg viewBox="0 0 120 80" stroke="currentColor" stroke-width="1.5" stroke-linecap="round" stroke-linejoin="round" fill="none" xmlns="http://www.w3.org/2000/svg">
  <path d="M 10 55 L 110 55 L 110 25 L 35 25 L 35 40 L 10 40 Z" />
  <path d="M 12 50 L 12 42 L 32 42 L 32 50 Z" fill="rgba(255,255,255,0.15)" />
  <path d="M 40 28 L 55 28 L 55 45 L 40 45 Z" />
  <path d="M 60 28 L 75 28 L 75 45 L 60 45 Z" />
  <path d="M 80 28 L 95 28 L 95 45 L 80 45 Z" />
  <path d="M 15 55 A 8 8 0 0 1 31 55" />
  <path d="M 75 55 A 8 8 0 0 1 91 55" />
  <circle cx="23" cy="55" r="6" />
  <circle cx="23" cy="55" r="2" />
  <circle cx="83" cy="55" r="6" />
  <circle cx="83" cy="55" r="2" />
  <path d="M 10 48 L 110 48" />
  <path d="M 10 43 L 35 43" />
  <rect x="50" y="50" width="10" height="3" fill="currentColor" />
</svg>
