<svg viewBox="0 0 120 80" stroke="currentColor" stroke-width="1.5" stroke-linecap="round" stroke-linejoin="round" fill="none" xmlns="http://www.w3.org/2000/svg">
  <path d="M 10 55 L 110 55 L 110 25 L 10 25 Z" />
  <path d="M 15 28 L 35 28 L 35 45 L 15 45 Z" />
  <path d="M 40 28 L 60 28 L 60 45 L 40 45 Z" />
  <path d="M 65 28 L 85 28 L 85 45 L 65 45 Z" />
  <path d="M 15 55 A 8 8 0 0 1 31 55" />
  <path d="M 75 55 A 8 8 0 0 1 91 55" />
  <circle cx="23" cy="55" r="6" />
  <circle cx="83" cy="55" r="6" />
  <path d="M 40 25 L 30 10" />
  <path d="M 80 25 L 90 10" />
  <path d="M 25 10 L 95 10" />
  <path d="M 10 40 L 110 40" />
</svg>
