<?xml version="1.0" encoding="UTF-8"?>
<!DOCTYPE svg PUBLIC "-//W3C//DTD SVG 1.1//EN" "http://www.w3.org/Graphics/SVG/1.1/DTD/svg11.dtd">
<!-- Creator: CorelDRAW -->
<svg xmlns="http://www.w3.org/2000/svg" xml:space="preserve" width="3.59999in" height="3.59999in" version="1.1" style="shape-rendering:geometricPrecision; text-rendering:geometricPrecision; image-rendering:optimizeQuality; fill-rule:evenodd; clip-rule:evenodd"
viewBox="0 0 3599.99 3599.99"
 xmlns:xlink="http://www.w3.org/1999/xlink"
 xmlns:xodm="http://www.corel.com/coreldraw/odm/2003">
 <defs>
  <style type="text/css">
   <![CDATA[
    .fil0 {fill:#004389}
    .fil1 {fill:white}
    .fil2 {fill:white;fill-rule:nonzero}
   ]]>
  </style>
 </defs>
 <g id="Capa_x0020_1">
  <metadata id="CorelCorpID_0Corel-Layer"/>
  <rect class="fil0" x="-0.01" y="-0" width="3600" height="3600"/>
  <g id="_2144828880048">
   <path class="fil1" d="M2880.2 1766.72c80.23,-38.45 86.57,-113.38 58.44,-181.28l-695.59 324.21c-46.19,21.53 -76.24,9.9 -102.83,-32.39l-5.3 -7.41c-13.7,-19.86 -29.38,-42.11 -45,-64.3 -21.53,-30.56 -43.04,-61.11 -63.29,-91.08 -26.9,-39.83 -54.08,-77.99 -80.88,-115.61l-27.61 -38.91c-7.42,-10.48 -23.48,-33.07 -41.76,-58.05 -16.78,-22.91 -33.66,-45.31 -41.89,-54.26 -3.99,-4.33 -9.96,-9.63 -17.23,-13.29 -5.02,-2.53 -10.65,-4.3 -16.63,-4.41 -6.02,-0.09 -11.63,1.42 -16.59,3.7 -7.15,3.3 -13.01,8.19 -17.15,12.39 -3.9,3.98 -8.83,9.87 -13.83,16.27l-293.21 415.23c-33.75,51.25 -80.3,62.04 -130.78,38.54 -236.19,-109.95 -430.08,-204.18 -667.44,-317.96 -25.97,60.1 -27.57,140.5 61.85,180.45l538.14 268.28c54.72,25.96 125.04,49.74 182.5,36.28 72.36,-19.5 97.19,-58.26 133.95,-115.63l0.49 -0.78c17.25,-26.92 36.78,-56.51 56.31,-86.13 15,-22.76 30.13,-45.7 47.86,-73.16l77.99 -118.87 5.17 -7.86c20.94,-31.91 52.57,-27.95 69.95,1.5 1.73,2.94 3.74,5.72 5.6,8.57 63.61,97.54 129.06,195.31 191.23,293.91 13.81,22.03 22.29,35.57 42.54,55.21 57.87,65.34 123.45,57.09 199.81,16.9l605.19 -290.06z"/>
   <path class="fil1" d="M1155.45 1316.02c-7.81,9.61 -14.89,18.77 -20.44,26.74l142.77 69.39 18.81 -23.53c7.44,-9.38 15.78,-18.54 24.4,-27.35 8.52,-8.71 17.16,-17 25.47,-24.9 1.55,-1.48 2.94,-3.07 4.26,-4.6 2.46,-2.84 4.85,-5.6 8.65,-8.71l13.41 -11.19c13.3,-11.08 26.57,-22.2 42.4,-33.58 9.72,-7 19.73,-13.74 30.08,-20.32 9.9,-6.33 20.51,-12.72 31.86,-19.18 96.09,-54.81 210.31,-83.43 324.44,-83.81 111.56,-0.36 223.18,26.26 317.87,81.8 20.26,11.86 34.23,20.42 47.42,29.3 13.45,9.05 25.94,18.28 43.2,31.43 13.54,11.48 28.37,24.44 41.24,36.59 7.84,8.43 14.29,14.63 20.52,20.57 12.02,11.54 23.2,22.24 40.43,44.47l4.06 5.13c1.95,2.41 4.12,5.11 6.28,7.87l142.44 -69.22c-4.86,-6.92 -11.13,-15.03 -18.09,-23.64 -24.26,-29.97 -56.5,-64.78 -71.19,-80.27 -43.79,-46.14 -98.52,-88.26 -157.66,-123.44 -61.17,-36.35 -126.98,-65.22 -190.24,-83.28 -125.62,-35.92 -253.03,-41.28 -374.03,-19.31 -123.44,22.41 -240.26,73.3 -341.74,149.22 -15.17,11.34 -30.61,23.86 -45.6,36.96 -14.51,12.67 -28.51,25.84 -41.38,39.03 -15.69,16.11 -45.83,48.57 -69.63,77.83z"/>
   <path class="fil1" d="M1000.93 1972.14c7.06,40.52 19.4,71.8 32.68,110.63 7.9,23.08 17.01,45.34 26.89,66.78 10.12,21.94 20.8,42.63 31.64,62.22 17.18,31.06 35.29,58.52 55.07,84.76 19.91,26.41 41.23,51.22 64.85,76.96 9.24,10.1 19.65,19.65 29.9,29.07 5.59,5.13 11.15,10.24 17.22,16.14 2.08,2.01 4.13,3.62 6.16,5.22 2.27,1.82 4.6,3.65 7.02,5.9 10.3,9.5 20.76,18.09 31.45,26.24 10.51,8 21.84,16.04 33.65,24.24 113.71,79.11 242.6,126.24 375.51,140.22 133.12,14.03 270.37,-5.09 400.57,-58.48 48.41,-19.84 100.78,-48.8 149.9,-82.72 47.23,-32.61 91.41,-69.79 126.09,-107.81 39.39,-43.17 74.18,-87.62 103.85,-135.34 29.6,-47.6 54.19,-98.54 73.3,-154.8 6.32,-18.63 18.78,-57.93 27.3,-92.69 2.4,-9.82 3.53,-14.19 5.08,-22.61l-190.76 99.68c-1.98,1.65 -2.12,3.65 -7.32,14.91l-2.52 5.46c-6.33,13.63 -13.42,27.44 -20.85,40.9 -8.1,14.67 -16.54,28.87 -24.83,41.93 -30.89,48.66 -50.24,68.95 -78.29,98.34l-17.18 18.12c-19.29,20.6 -49.26,44.51 -81.05,66.32 -33.95,23.28 -70.26,44.39 -98.04,56.67 -42.89,18.96 -85.67,34.48 -131.28,45.22 -45.57,10.73 -93.95,16.66 -148.07,16.44 -90.61,-0.38 -180.35,-19.79 -262.29,-55.19 -82.09,-35.41 -156.42,-86.98 -216.07,-151.59 -20.6,-22.31 -39.9,-45.98 -57.67,-71.12 -26.78,-37.9 -50.12,-76.56 -70.81,-116.15 -63.13,-35.27 -127.56,-69.26 -191.11,-103.89z"/>
   <g>
    <path class="fil2" d="M2185.87 1837.95l-56.04 -80.11 1027.59 -480.12c28.38,67.57 22.87,138.07 -60.87,178.8l-839.2 390.89c-47.91,24.23 -48.81,22.96 -71.48,-9.45z"/>
    <path class="fil2" d="M2080.69 1687.25l-56.36 -81.35 1342.28 -630.89c31.06,51.31 33.88,138.3 -63.89,180.85 -380.5,177.77 -781.17,358.24 -1151.93,539.53 -7.43,3.63 -13.8,6.55 -19.24,8.95 -33.7,14.87 -34.23,4.86 -50.86,-17.09z"/>
    <path class="fil2" d="M1414.13 1838.98l56.04 -80.11 -1027.59 -480.13c-28.37,67.57 -22.87,138.07 60.87,178.8l839.2 390.89c47.91,24.23 48.81,22.96 71.47,-9.45z"/>
    <path class="fil2" d="M1519.31 1688.28l56.36 -81.35 -1342.28 -630.89c-31.06,51.31 -33.88,138.3 63.89,180.85 380.5,177.77 781.17,358.24 1151.93,539.53 7.43,3.63 13.8,6.55 19.24,8.95 33.7,14.87 34.23,4.86 50.86,-17.09z"/>
   </g>
  </g>
 </g>
</svg>
