<svg viewBox="0 0 120 80" stroke="currentColor" stroke-width="1.5" stroke-linecap="round" stroke-linejoin="round" fill="none" xmlns="http://www.w3.org/2000/svg">
  <path d="M 30 55 L 80 55 L 80 25 L 50 25 L 30 45 Z" />
  <path d="M 35 50 L 35 46 L 48 30 L 48 50 Z" fill="rgba(255,255,255,0.15)" />
  <path d="M 80 55 L 80 15" />
  <path d="M 80 40 L 105 40 L 105 45" />
  <path d="M 105 45 L 80 45" />
  <path d="M 30 55 A 10 10 0 0 1 50 55" />
  <path d="M 60 55 A 10 10 0 0 1 80 55" />
  <circle cx="40" cy="55" r="8" />
  <circle cx="40" cy="55" r="3" />
  <circle cx="70" cy="55" r="8" />
  <circle cx="70" cy="55" r="3" />
</svg>
