<svg viewBox="0 0 120 80" stroke="currentColor" stroke-width="1.5" stroke-linecap="round" stroke-linejoin="round" fill="none" xmlns="http://www.w3.org/2000/svg">
  <path d="M 20 55 L 80 55 L 80 35 L 20 35 Z" />
  <path d="M 25 35 L 25 25 L 45 25 L 45 35" />
  <path d="M 28 33 L 28 28 L 42 28 L 42 33 Z" fill="rgba(255,255,255,0.15)" />
  <path d="M 80 40 L 110 40 L 110 45" />
  <path d="M 110 45 L 115 45" />
  <path d="M 20 55 A 10 10 0 0 1 40 55" />
  <path d="M 60 55 A 10 10 0 0 1 80 55" />
  <circle cx="30" cy="55" r="8" />
  <circle cx="30" cy="55" r="3" />
  <circle cx="70" cy="55" r="8" />
  <circle cx="70" cy="55" r="3" />
</svg>
