<?xml version="1.0" encoding="UTF-8"?>
<!DOCTYPE svg PUBLIC "-//W3C//DTD SVG 1.1//EN" "http://www.w3.org/Graphics/SVG/1.1/DTD/svg11.dtd">
<!-- Creator: CorelDRAW -->
<svg xmlns="http://www.w3.org/2000/svg" xml:space="preserve" width="2900" height="680" version="1.1" style="shape-rendering:geometricPrecision; text-rendering:geometricPrecision; image-rendering:optimizeQuality; fill-rule:evenodd; clip-rule:evenodd"
viewBox="380 1480 2900 680"
 xmlns:xlink="http://www.w3.org/1999/xlink"
 xmlns:xodm="http://www.corel.com/coreldraw/odm/2003">
 <defs>
  <style type="text/css">
   <![CDATA[
    .fil0 {fill:#001E50}
    .fil1 {fill:#001E50;fill-rule:nonzero}
   ]]>
  </style>
 </defs>
 <g id="Capa_x0020_1">
  <metadata id="CorelCorpID_0Corel-Layer"/>
  <g id="_2188221291440">
   <path class="fil0" d="M854.81 1745.95c-19.25,-9.24 -39.57,-18.99 -57.64,-28.46 -6.55,-2.3 -16.51,-7.52 -24.1,-11.5l-3.87 -2.02c-5.97,-3.09 -12.21,-6.04 -18.48,-8.99l-9.03 -4.3c-20.33,-9.81 -42.69,-20.76 -65,-31.7 -33.32,-16.33 -66.64,-32.67 -101.17,-48.94l-8.85 -4.17c-15.24,-7.15 -35.13,-16.47 -46.61,-22.54 -9.42,-4.98 -19.2,-9.48 -28.98,-13.98 -8.99,-4.13 -17.98,-8.26 -26.76,-12.78 -11.78,-6.06 -23.42,-11.53 -35.07,-17 -7.15,-3.35 -14.29,-6.71 -20.56,-9.75l-10.34 -5.09c-12.67,-6.25 -31.75,-15.67 -40.69,-19.66 -0.72,2.28 -1.11,5.12 -1.22,8.13 -0.26,6.74 0.85,14.02 2.42,18.67 0.56,1.66 1.45,3.52 2.43,5.32 1.43,2.63 3.12,5.24 4.38,7.09 1.15,1.7 2.26,3.06 3.38,4.44l0.98 1.21c0.74,0.93 1.6,1.7 2.45,2.47 1.01,0.93 2.02,1.85 3.07,3.07 13.34,15.58 52.9,32.91 82.63,45.92 10.75,4.7 20.25,8.86 26.95,12.26 10.38,5.26 20.72,10.11 31.06,14.95 9.08,4.26 18.16,8.52 26.64,12.72 19.04,9.44 38.18,18.8 57.38,28.06 19.12,9.23 38.35,18.4 57.65,27.5 10.02,4.72 18.98,9.09 27.94,13.47 10.33,5.04 20.65,10.08 29.64,14.3l42.86 20.62 2.5 1.14c4.03,1.86 9.57,4.42 12.4,6.22l85.96 41.31c5.39,-7.66 10.75,-15.32 16.21,-22.93l3.51 -5.09c0.72,-1.06 1.58,-2.26 2.48,-3.5l1.92 -2.68c-4.36,-2.24 -11.3,-5.55 -15.17,-7.39l-13.28 -6.39z"/>
   <path class="fil0" d="M1088.31 1791.57l82.85 -39.56c8.6,-4.76 19.3,-9.66 30.09,-14.6 9.38,-4.3 18.85,-8.63 27.11,-12.98 7.24,-3.82 15.26,-7.56 23.08,-11.22l20.26 -9.57 14.48 -7.01 17.62 -8.6c32.09,-15.66 63.89,-31.18 97.07,-46.8 9.97,-4.7 18.88,-9.06 27.78,-13.42 9.72,-4.76 19.46,-9.53 29.31,-14.16l7.1 -3.38c2.28,-1.1 4.54,-2.22 6.94,-3.46 2.74,-1.41 5.71,-2.59 8.69,-3.77 2.29,-0.91 4.59,-1.82 6.4,-2.65 5.02,-2.33 9.91,-4.49 14.91,-6.7 32.23,-14.27 69.63,-30.82 82.04,-60.85 4.26,-10.33 3.37,-17.96 1,-27.35 -27.29,12.68 -161.59,77.6 -249.52,120.1 -41.33,19.98 -72.44,35.02 -77.48,37.39 -2.07,0.97 -10.78,5.28 -22.47,11.05 -29.3,14.46 -77.12,38.07 -87.66,42.43 -0.48,0.39 -0.97,0.67 -1.38,0.88 -14.08,7.75 -30.26,14.81 -44.8,22.08 -3.8,1.83 -7.57,3.72 -11.35,5.59 -3.57,1.79 -7.19,3.59 -11.79,5.81 -1.59,0.77 -3.53,1.65 -5.7,2.64 -3.93,1.78 -8.65,3.93 -12.17,5.75 3.61,5.35 7.44,10.72 11.28,16.11 3.48,4.88 6.99,9.8 10.39,14.78 0.09,0.13 0.18,0.28 0.28,0.41 1.31,1.62 2.19,2.63 5.63,1.08z"/>
   <path class="fil0" d="M733.98 1644.36c-3.78,4.64 -7.09,9.02 -9.28,12.47l52.28 25.81 9.17 -11.46c2.75,-3.47 5.83,-6.85 9.01,-10.11 3.15,-3.22 6.34,-6.28 9.41,-9.2 0.57,-0.54 1.08,-1.13 1.57,-1.7 0.91,-1.05 1.79,-2.06 3.19,-3.21l4.96 -4.14c4.91,-4.1 9.81,-8.2 15.67,-12.41 3.59,-2.59 7.29,-5.08 11.11,-7.51 3.65,-2.34 7.57,-4.69 11.78,-7.09 35.51,-20.25 77.72,-30.83 119.9,-30.97 41.22,-0.14 82.48,9.7 117.47,30.22 7.48,4.39 12.64,7.55 17.52,10.83 4.97,3.34 9.59,6.75 15.97,11.61 5,4.24 10.48,9.04 15.24,13.53 2.9,3.11 5.29,5.4 7.58,7.59 4.44,4.26 8.58,8.22 14.94,16.43l1.5 1.9c1.23,1.52 2.68,3.32 3.96,5.08l52.57 -25.44c-1.91,-2.96 -4.85,-6.84 -8.26,-11.05 -8.96,-11.07 -20.88,-23.94 -26.31,-29.67 -16.18,-17.05 -36.41,-32.62 -58.26,-45.61 -22.6,-13.44 -46.93,-24.1 -70.3,-30.78 -46.42,-13.27 -93.52,-15.25 -138.22,-7.13 -45.62,8.29 -88.8,27.09 -126.29,55.15 -5.61,4.19 -11.31,8.81 -16.85,13.65 -5.36,4.68 -10.54,9.56 -15.29,14.43 -5.8,5.95 -16.94,17.94 -25.74,28.76z"/>
   <path class="fil0" d="M1127.19 1846.59l58.4 -27.85 207.85 -99.66c7.27,-3.38 14.2,-6.68 20.63,-9.98 6.48,-3.33 12.83,-6.85 19.1,-10.77 6.02,-3.76 12.27,-8.48 17.8,-13.54 5.02,-4.59 9.46,-9.49 12.61,-14.22 4.34,-6.52 7.31,-13.2 8.3,-20.25 0.77,-5.47 0.35,-11.26 -1.52,-17.49l-73.61 35.44c-4.15,1.96 -23.98,11.57 -50.56,24.44 -65.6,31.77 -172.09,83.36 -187.35,89.7l0.07 0.15 -61.21 29.86c1.35,2.02 2.96,4.22 4.28,6.04l1.01 1.39c2.03,2.83 4.35,6.26 6.71,9.74 3.69,5.44 7.48,11.04 10.6,14.86l1.02 1.26c0.72,0.9 1.22,1.52 1.89,1.78 0.82,0.31 1.91,0.07 3.98,-0.91z"/>
   <path class="fil0" d="M845.91 1812.96l-60.64 -29.62 -312.58 -150.71c-0.28,1.13 -0.54,2.46 -0.76,3.87 -0.8,5.09 -0.92,10.81 -0.47,14.09 0.46,3.41 1.44,6.74 2.68,9.84 1.52,3.78 3.42,7.19 5.31,9.98 15.13,22.32 41.23,34.55 65.9,46.1l3.62 1.7c6.33,2.97 12.74,6.06 19.14,9.13 7.26,3.49 14.51,6.97 22.94,10.89 24.52,11.39 48.72,23.17 72.93,34.94 24.59,11.96 49.19,23.94 73,34.99l3.92 1.78c5.62,2.53 13.48,6.07 17.16,8.49l58.11 27.71c5.41,2.56 5.49,2.44 15.04,-11.57l14.7 -21.61z"/>
   <path class="fil0" d="M1165.2 1913.06c24.8,-13.78 49.79,-27.23 74.7,-40.81 5.42,-3.12 11,-6.23 16.57,-9.26 5.51,-3 11.17,-6 16.75,-8.92l66.6 -36.24c5.2,-3.01 10.25,-5.65 14.92,-8.09 16.69,-8.7 28.14,-14.67 38.52,-36.96 2.43,-5.2 5.15,-13.57 6.75,-22 0.68,-3.59 1.16,-7.17 1.32,-10.46l-237.8 113.99c-4.51,1.69 -9.51,4.3 -14.5,6.91 -6.67,3.48 -13.33,6.96 -19.51,8.73 -16.74,4.78 -25.54,-8.68 -31.74,-18.15l-1.83 -2.77c-5.06,-7.34 -10.85,-15.57 -16.63,-23.76 -7.96,-11.3 -15.91,-22.58 -23.39,-33.66 -9.94,-14.72 -19.99,-28.82 -29.89,-42.73l-10.2 -14.37c-2.74,-3.87 -8.68,-12.22 -15.43,-21.45 -6.2,-8.47 -12.44,-16.74 -15.48,-20.05 -1.48,-1.6 -3.68,-3.56 -6.37,-4.91 -1.85,-0.93 -3.93,-1.59 -6.15,-1.63 -2.22,-0.04 -4.3,0.52 -6.13,1.37 -2.64,1.22 -4.81,3.03 -6.33,4.58 -1.44,1.47 -3.26,3.65 -5.11,6.01 -1.72,2.17 -3.65,4.79 -5.33,7.11l-6.82 9.42c-4.79,6.64 -9.57,13.27 -13.58,18.74l-40.2 57.16c-4.61,6.59 -9.74,14.02 -14.87,21.47 -8.23,11.94 -16.43,23.85 -25.13,35.97 -0.79,1.09 -1.58,2.3 -2.42,3.57 -6.42,9.75 -15.09,22.87 -31.71,18.06l-0.75 -0.27c-90.76,-42.16 -180.75,-86.16 -271,-129.43 0.15,3.33 0.63,6.94 1.31,10.57 1.6,8.47 4.3,16.81 6.72,21.97 10.43,22.26 21.87,28.23 38.55,36.93 4.67,2.46 9.73,5.1 14.93,8.1l66.59 36.25c5.58,2.92 11.24,5.93 16.75,8.92 5.57,3.03 11.15,6.13 16.56,9.26l66.13 36.09c0.78,0.21 1.53,0.51 2.2,1.22 3.14,1.72 5.95,3.32 8.71,4.9 18.66,10.65 34.96,19.94 59.19,13.41 26.74,-7.21 35.92,-21.53 49.5,-42.74l0.19 -0.28c6.37,-9.95 13.59,-20.89 20.81,-31.83 5.55,-8.41 11.14,-16.89 17.69,-27.04l28.82 -43.93 1.91 -2.91c7.74,-11.79 19.43,-10.33 25.85,0.56 0.65,1.09 1.38,2.11 2.07,3.17 23.51,36.04 47.69,72.17 70.67,108.61 5.1,8.14 8.24,13.15 15.72,20.41 8.4,8.14 20.14,13.96 32.6,16.48 11.9,2.41 24.41,1.8 35.2,-2.69 3.25,-1.35 8.95,-4.55 14.3,-7.55 3.33,-1.87 6.53,-3.67 9.22,-5.05z"/>
   <path class="fil0" d="M706.96 1899.34l-30.42 -16.57c0.65,3.69 1.53,7.7 2.54,11.81 3,12.21 7.18,25.19 9.9,33.13 2.92,8.53 6.29,16.76 9.94,24.67 3.74,8.11 7.69,15.76 11.69,23 6.35,11.48 13.04,21.62 20.35,31.32 7.36,9.76 15.24,18.93 23.96,28.45 3.42,3.73 7.26,7.26 11.06,10.74 2.06,1.89 4.12,3.78 6.36,5.96 0.77,0.75 1.52,1.34 2.28,1.93 0.83,0.67 1.7,1.35 2.59,2.18 3.8,3.51 7.67,6.68 11.62,9.7 3.88,2.96 8.07,5.93 12.43,8.96 42.02,29.23 89.65,46.65 138.77,51.82 49.2,5.19 99.92,-1.89 148.03,-21.61 17.89,-7.33 37.24,-18.04 55.39,-30.57 17.46,-12.05 33.78,-25.79 46.6,-39.84 14.56,-15.95 27.41,-32.38 38.38,-50.02 10.94,-17.59 20.03,-36.42 27.09,-57.21 2.33,-6.88 6.94,-21.41 10.08,-34.25 0.89,-3.63 1.67,-7.11 2.24,-10.22 -10.41,5.67 -20.85,11.56 -31.33,17.07 -6.3,3.29 -13.09,6.85 -19.64,10.65 -7.33,4.24 -11.99,6.46 -15.12,7.95 -2.11,1.02 -3.41,1.63 -4,2.11 -0.79,0.64 -1.54,2.28 -3.46,6.44l-0.93 2.02c-2.34,5.04 -4.96,10.14 -7.7,15.11 -2.99,5.42 -6.11,10.67 -9.17,15.49 -11.41,17.98 -18.57,25.48 -28.93,36.34l-6.35 6.7c-7.13,7.61 -18.2,16.45 -29.95,24.51 -12.55,8.61 -25.96,16.41 -36.23,20.94 -15.85,7 -31.67,12.74 -48.52,16.71 -16.84,3.96 -34.72,6.15 -54.72,6.07 -33.49,-0.14 -66.65,-7.31 -96.93,-20.39 -30.33,-13.08 -57.81,-32.14 -79.85,-56.02 -7.61,-8.25 -14.74,-16.99 -21.31,-26.28 -6.53,-9.24 -12.53,-19.09 -17.94,-29.63 -0.91,-1.77 -1.87,-3.87 -2.88,-6.07 -2.32,-5.07 -4.99,-10.88 -5.7,-11.28 -11.62,-6.5 -21.93,-12.02 -32.38,-17.63l-7.83 -4.19z"/>
  </g>
  <g id="_2188221291392">
   <path class="fil1" d="M2983.19 1985.98c-32.55,0 -71.38,-4 -116.49,-11.99l14.99 -77.52c12.56,3.71 30.27,7.28 53.11,10.7 22.84,3.43 40.97,5.14 54.39,5.14 4.57,0 9.57,-0.28 14.99,-0.85 5.43,-0.57 11.35,-1.64 17.77,-3.21 6.43,-1.57 11.78,-4.14 16.06,-7.71 4.28,-3.57 6.43,-7.78 6.43,-12.63 0,-8.28 -9.85,-12.85 -29.56,-13.7 -11.7,-0.57 -22.13,-1.36 -31.26,-2.36 -9.14,-1 -19.41,-3.07 -30.83,-6.21 -11.43,-3.14 -20.92,-7.21 -28.48,-12.21 -7.56,-4.99 -13.99,-11.92 -19.27,-20.77 -5.28,-8.85 -7.92,-19.13 -7.92,-30.83 0,-20.28 4.71,-39.33 14.13,-57.18 9.42,-17.85 22.56,-32.34 39.4,-43.47 27.7,-18.27 66.39,-27.41 116.07,-27.41 42.26,0 76.67,3.28 103.22,9.85l-14.99 75.81c-38.26,-8.57 -68.09,-12.85 -89.51,-12.85 -11.42,0 -23.77,1.71 -37.05,5.14 -13.28,3.43 -19.92,9.13 -19.92,17.13 0,2.86 4,5.43 12,7.71 5.43,1.43 17.13,3.57 35.12,6.43 11.42,1.71 20.63,3.29 27.63,4.71 7,1.43 15.63,3.93 25.91,7.49 10.28,3.57 18.35,7.71 24.2,12.42 5.85,4.71 10.99,11.06 15.42,19.06 4.43,8 6.64,17.28 6.64,27.84 0,20.28 -5.21,39.98 -15.63,59.11 -10.42,19.13 -24.06,33.98 -40.9,44.54 -28.84,18.56 -67.39,27.84 -115.64,27.84z"/>
   <path class="fil1" d="M2688.43 1983.41c-19.13,0 -36.98,-2.21 -53.54,-6.64 -16.56,-4.43 -31.48,-11.14 -44.75,-20.13 -13.28,-9 -23.77,-20.99 -31.48,-35.98 -7.71,-14.99 -11.57,-32.2 -11.57,-51.61 0,-28.55 6.78,-57.32 20.35,-86.3 13.56,-28.98 31.62,-51.75 54.18,-68.31 34.26,-25.98 80.52,-38.97 138.77,-38.97 34.83,0 75.8,5.52 110.64,13.8l-12.99 70.74c-34.26,-6 -66.67,-10.45 -83.51,-10.45 -18.56,0 -33.69,0.93 -45.4,2.78 -11.7,1.86 -22.63,5.64 -32.76,11.35 -10.14,5.71 -18.13,13.92 -23.99,24.63 -5.85,10.7 -10.49,24.63 -13.92,41.76 -2.85,13.42 -4.28,25.41 -4.28,35.98 0,18.56 4.93,30.69 14.78,36.41 9.85,5.71 24.91,8.56 45.19,8.56l13.28 -0.86 17.84 -2.72 8.43 -35.57 -47.23 -0.69 12.04 -65.39 131.35 0.09 -30.78 162.11c-51.4,10.28 -94.94,15.42 -130.63,15.42z"/>
   <polygon class="fil1" points="2134.96,1979.13 2031.74,1979.13 2089.98,1679.33 2193.2,1679.33 "/>
   <path class="fil1" d="M1723.44 1979.13l-122.92 0c-9.7,-92.22 -19.98,-192.16 -30.83,-299.8l101.93 0 9.85 206.01 3.85 0 78.38 -205.58 105.36 0 -3.43 205.58 4.28 0 88.23 -206.01 96.8 0 -140.05 299.8 -117.35 0 -3 -163.61 -4.28 0 -66.81 163.61z"/>
   <path class="fil1" d="M2488.54 1979.7l37.1 -195.24c13.81,-72.67 -12.65,-105.13 -85.3,-105.13 -35.87,0 -72.33,-3.85 -98.65,28.97l-4.36 0.02 4.79 -28.99 -105.74 0 -56.92 300.37 107.06 0 41.4 -218.5c25.25,0 50.49,0 75.73,0 9.32,0.24 17.62,8.93 15.54,23.15l-36.98 195.15 106.33 0.2z"/>
   <path class="fil0" d="M3222.78 1955.01c-1.4,11.05 -11.22,20.26 -23.89,18.73 -11.02,-1.33 -20.46,-11.4 -18.78,-24.28 1.42,-10.87 11.41,-19.97 24.03,-18.5 10.94,1.27 20.24,11.41 18.63,24.05zm-25.08 -29.17c-13.54,1.84 -25,14.28 -22.81,30.26 1.86,13.64 14.48,24.99 30.44,22.74 13.36,-1.88 24.65,-14.35 22.61,-30.09 -1.76,-13.59 -14.35,-25.07 -30.24,-22.91z"/>
   <path class="fil0" d="M3195.11 1950.44l0.02 -7.66c4.16,-0.15 11.07,-0.93 11.06,3.75 -0.01,4.75 -6.67,4.22 -11.08,3.91zm-5.8 16.21l5.81 0.05 0 -11.65c7.56,-0.62 7.85,5.42 11.82,11.57l7.05 0.07c-0.47,-1.28 -4.81,-8.54 -6.02,-10.06 -1,-1.26 -1.59,-1.56 -2.98,-2.33 0.77,-0.46 2.13,-0.65 3.02,-1.11 3.02,-1.54 4.72,-4.32 4.26,-8.11 -0.59,-4.78 -4.5,-6.84 -9.7,-6.84l-13.28 0.03 0 28.37z"/>
  </g>
 </g>
</svg>
