<?xml version="1.0" encoding="UTF-8"?>
<!DOCTYPE svg PUBLIC "-//W3C//DTD SVG 1.1//EN" "http://www.w3.org/Graphics/SVG/1.1/DTD/svg11.dtd">
<!-- Creator: CorelDRAW -->
<svg xmlns="http://www.w3.org/2000/svg" xml:space="preserve" width="3.59999in" height="3.59999in" version="1.1" style="shape-rendering:geometricPrecision; text-rendering:geometricPrecision; image-rendering:optimizeQuality; fill-rule:evenodd; clip-rule:evenodd"
viewBox="0 0 3599.99 3599.99"
 xmlns:xlink="http://www.w3.org/1999/xlink"
 xmlns:xodm="http://www.corel.com/coreldraw/odm/2003">
 <defs>
  <style type="text/css">
   <![CDATA[
    .fil0 {fill:none}
    .fil2 {fill:#001E50}
    .fil1 {fill:#001E50;fill-rule:nonzero}
   ]]>
  </style>
 </defs>
 <g id="Capa_x0020_1">
  <metadata id="CorelCorpID_0Corel-Layer"/>
  <rect class="fil0" x="-0.01" y="-0" width="3600" height="3600"/>
  <g id="_2188224363168">
   <g>
    <path class="fil1" d="M2578.54 2836.38c-43.31,0 -94.98,-5.32 -155.02,-15.96l19.95 -103.15c16.72,4.94 40.27,9.69 70.67,14.25 30.39,4.56 54.52,6.83 72.38,6.83 6.08,0 12.73,-0.38 19.94,-1.14 7.22,-0.76 15.11,-2.19 23.65,-4.27 8.55,-2.09 15.67,-5.51 21.37,-10.26 5.7,-4.75 8.55,-10.35 8.55,-16.81 0,-11.02 -13.11,-17.1 -39.33,-18.24 -15.57,-0.76 -29.44,-1.81 -41.6,-3.13 -12.16,-1.33 -25.83,-4.08 -41.03,-8.26 -15.2,-4.18 -27.83,-9.59 -37.9,-16.24 -10.07,-6.65 -18.62,-15.86 -25.65,-27.64 -7.03,-11.78 -10.54,-25.45 -10.54,-41.03 0,-26.98 6.27,-52.33 18.81,-76.08 12.54,-23.75 30.02,-43.03 52.43,-57.85 36.86,-24.31 88.34,-36.47 154.45,-36.47 56.23,0 102.02,4.37 137.35,13.11l-19.95 100.87c-50.91,-11.4 -90.61,-17.09 -119.11,-17.09 -15.2,0 -31.63,2.28 -49.3,6.84 -17.67,4.56 -26.5,12.16 -26.5,22.8 0,3.8 5.32,7.22 15.96,10.26 7.22,1.9 22.79,4.75 46.73,8.55 15.2,2.28 27.45,4.37 36.76,6.27 9.3,1.9 20.8,5.22 34.48,9.97 13.68,4.75 24.41,10.26 32.2,16.53 7.79,6.27 14.63,14.72 20.52,25.36 5.89,10.64 8.83,22.98 8.83,37.04 0,26.98 -6.94,53.2 -20.8,78.65 -13.87,25.46 -32.01,45.21 -54.43,59.27 -38.37,24.7 -89.67,37.05 -153.88,37.05z"/>
    <path class="fil1" d="M2186.32 2832.96c-25.46,0 -49.2,-2.94 -71.24,-8.83 -22.03,-5.89 -41.89,-14.82 -59.55,-26.79 -17.67,-11.97 -31.63,-27.93 -41.89,-47.87 -10.26,-19.94 -15.39,-42.84 -15.39,-68.67 0,-38 9.02,-76.28 27.07,-114.83 18.05,-38.57 42.08,-68.87 72.09,-90.9 45.59,-34.57 107.15,-51.86 184.65,-51.86 46.35,0 100.87,7.35 147.22,18.37l-17.29 94.13c-45.59,-7.98 -88.71,-13.91 -111.12,-13.91 -24.7,0 -44.83,1.23 -60.41,3.7 -15.57,2.47 -30.11,7.5 -43.59,15.1 -13.49,7.6 -24.13,18.52 -31.92,32.77 -7.79,14.25 -13.96,32.77 -18.52,55.57 -3.8,17.85 -5.7,33.81 -5.7,47.87 0,24.7 6.55,40.84 19.66,48.44 13.11,7.59 33.15,11.39 60.13,11.39l17.67 -1.14 23.74 -3.62 11.22 -47.34 -62.84 -0.91 16.02 -87.02 174.79 0.12 -40.96 215.7c-68.39,13.68 -126.33,20.52 -173.82,20.52z"/>
    <polygon class="fil1" points="1449.83,2827.26 1312.48,2827.26 1389.99,2428.32 1527.34,2428.32 "/>
    <path class="fil1" d="M902.26 2827.26l-163.57 0c-12.92,-122.72 -26.6,-255.7 -41.04,-398.94l135.64 0 13.11 274.13 5.13 0 104.29 -273.56 140.2 0 -4.56 273.56 5.7 0 117.4 -274.13 128.8 0 -186.36 398.94 -156.16 0 -3.99 -217.7 -5.7 0 -88.9 217.7z"/>
    <path class="fil1" d="M1920.34 2828.02l49.37 -259.8c18.37,-96.7 -16.83,-139.89 -113.51,-139.89 -47.73,0 -96.24,-5.13 -131.27,38.55l-5.8 0.02 6.37 -38.57 -140.7 0 -75.74 399.69 142.47 0 55.09 -290.74c33.59,0 67.18,0 100.77,0 12.4,0.32 23.45,11.88 20.69,30.81l-49.2 259.67 141.48 0.26z"/>
    <path class="fil2" d="M2897.37 2795.17c-1.86,14.7 -14.93,26.95 -31.79,24.92 -14.66,-1.77 -27.22,-15.17 -24.98,-32.3 1.89,-14.46 15.17,-26.57 31.98,-24.62 14.56,1.69 26.92,15.18 24.8,32zm-33.37 -38.82c-18.02,2.46 -33.26,19 -30.36,40.28 2.47,18.15 19.27,33.26 40.51,30.26 17.78,-2.51 32.8,-19.09 30.08,-40.05 -2.34,-18.08 -19.09,-33.37 -40.23,-30.49z"/>
    <path class="fil2" d="M2860.54 2789.09l0.03 -10.2c5.54,-0.2 14.73,-1.24 14.72,4.99 -0.01,6.32 -8.87,5.61 -14.75,5.21zm-7.72 21.57l7.74 0.06 0 -15.49c10.06,-0.83 10.45,7.21 15.72,15.39l9.39 0.1c-0.63,-1.7 -6.41,-11.37 -8.01,-13.38 -1.33,-1.67 -2.11,-2.08 -3.96,-3.11 1.03,-0.6 2.83,-0.87 4.02,-1.47 4.02,-2.05 6.28,-5.76 5.66,-10.79 -0.78,-6.36 -5.99,-9.1 -12.9,-9.1l-17.67 0.04 0 37.75z"/>
   </g>
   <g>
    <path class="fil2" d="M1524.22 1331.82c-45.41,-21.79 -93.35,-44.8 -135.98,-67.13 -15.44,-5.42 -38.95,-17.75 -56.84,-27.13l-9.14 -4.78c-14.07,-7.28 -28.8,-14.24 -43.59,-21.21l-21.3 -10.13c-47.97,-23.13 -100.7,-48.98 -153.33,-74.78 -78.6,-38.52 -157.2,-77.05 -238.66,-115.44l-20.89 -9.83c-35.95,-16.85 -82.88,-38.86 -109.96,-53.17 -22.22,-11.74 -45.29,-22.36 -68.37,-32.98 -21.2,-9.74 -42.4,-19.49 -63.13,-30.16 -27.78,-14.3 -55.25,-27.2 -82.72,-40.11 -16.85,-7.91 -33.71,-15.83 -48.48,-22.99l-24.4 -12c-29.88,-14.74 -74.9,-36.97 -95.98,-46.37 -1.71,5.38 -2.61,12.07 -2.89,19.19 -0.62,15.9 1.99,33.06 5.7,44.03 1.32,3.91 3.41,8.29 5.73,12.54 3.37,6.19 7.35,12.37 10.33,16.74 2.72,4 5.33,7.21 7.98,10.47l2.3 2.85c1.76,2.19 3.78,4.02 5.78,5.82 2.39,2.21 4.78,4.37 7.24,7.25 31.47,36.76 124.79,77.62 194.94,108.32 25.35,11.1 47.76,20.91 63.57,28.92 24.49,12.41 48.87,23.85 73.26,35.28 21.41,10.04 42.84,20.09 62.84,30.01 44.91,22.26 90.07,44.33 135.36,66.19 45.11,21.77 90.48,43.4 136,64.87 23.63,11.14 44.76,21.46 65.9,31.77 24.38,11.9 48.72,23.78 69.91,33.72l101.11 48.63 5.89 2.7c9.51,4.39 22.57,10.42 29.25,14.67l202.79 97.44c12.71,-18.06 25.35,-36.15 38.24,-54.09l8.28 -12.02c1.69,-2.51 3.74,-5.34 5.85,-8.26l4.52 -6.33c-10.28,-5.29 -26.67,-13.09 -35.78,-17.43l-31.32 -15.08z"/>
    <path class="fil2" d="M2075.06 1439.43l195.45 -93.32c20.3,-11.24 45.52,-22.79 71,-34.44 22.13,-10.13 44.48,-20.37 63.94,-30.63 17.09,-9.02 36,-17.84 54.46,-26.46l47.79 -22.57 34.16 -16.53 41.57 -20.28c75.7,-36.94 150.73,-73.55 228.98,-110.41 23.52,-11.08 44.53,-21.37 65.52,-31.66 22.93,-11.23 45.9,-22.49 69.14,-33.4l16.75 -7.97c5.37,-2.59 10.71,-5.24 16.38,-8.17 6.46,-3.33 13.47,-6.11 20.5,-8.89 5.41,-2.14 10.84,-4.3 15.09,-6.26 11.85,-5.48 23.39,-10.59 35.17,-15.81 76.03,-33.66 164.24,-72.71 193.52,-143.56 10.06,-24.37 7.94,-42.37 2.37,-64.53 -64.39,29.92 -381.2,183.06 -588.61,283.32 -97.5,47.12 -170.9,82.61 -182.77,88.2 -4.88,2.3 -25.42,12.44 -53.01,26.06 -69.11,34.12 -181.93,89.81 -206.79,100.08 -1.13,0.92 -2.28,1.56 -3.25,2.07 -33.21,18.29 -71.37,34.93 -105.68,52.09 -8.95,4.33 -17.85,8.76 -26.76,13.18 -8.44,4.23 -16.97,8.47 -27.82,13.71 -3.76,1.82 -8.33,3.91 -13.45,6.22 -9.26,4.21 -20.42,9.28 -28.71,13.56 8.52,12.61 17.56,25.28 26.62,37.99 8.21,11.52 16.5,23.11 24.52,34.88 0.21,0.31 0.41,0.67 0.65,0.96 3.1,3.82 5.16,6.22 13.28,2.56z"/>
    <path class="fil2" d="M1239.18 1092.17c-8.91,10.94 -16.73,21.27 -21.88,29.42l123.31 60.89 21.62 -27.02c6.49,-8.19 13.76,-16.17 21.26,-23.85 7.42,-7.6 14.95,-14.81 22.2,-21.71 1.35,-1.28 2.56,-2.67 3.72,-4.02 2.14,-2.47 4.22,-4.87 7.52,-7.58l11.7 -9.76c11.57,-9.67 23.15,-19.34 36.96,-29.28 8.47,-6.1 17.19,-11.98 26.22,-17.72 8.61,-5.52 17.87,-11.07 27.78,-16.71 83.77,-47.77 183.35,-72.72 282.84,-73.05 97.24,-0.33 194.56,22.89 277.11,71.3 17.65,10.35 29.82,17.81 41.33,25.55 11.72,7.88 22.63,15.93 37.67,27.39 11.79,10.02 24.73,21.33 35.95,31.92 6.83,7.33 12.47,12.73 17.89,17.92 10.48,10.05 20.23,19.39 35.24,38.75l3.53 4.48c2.91,3.58 6.31,7.83 9.35,11.98l124.01 -60c-4.49,-7 -11.44,-16.15 -19.47,-26.06 -21.15,-26.13 -49.26,-56.49 -62.06,-69.98 -38.17,-40.22 -85.88,-76.95 -137.44,-107.61 -53.33,-31.7 -110.7,-56.86 -165.84,-72.62 -109.51,-31.3 -220.6,-35.98 -326.06,-16.83 -107.61,19.55 -209.47,63.9 -297.93,130.09 -13.22,9.89 -26.69,20.8 -39.76,32.21 -12.64,11.04 -24.86,22.54 -36.07,34.04 -13.69,14.04 -39.96,42.33 -60.71,67.85z"/>
    <path class="fil2" d="M2166.78 1569.24l137.77 -65.69 490.31 -235.1c17.14,-7.97 33.5,-15.76 48.66,-23.54 15.3,-7.86 30.27,-16.17 45.05,-25.41 14.21,-8.87 28.95,-20 41.99,-31.94 11.83,-10.83 22.32,-22.38 29.74,-33.54 10.24,-15.38 17.25,-31.15 19.57,-47.77 1.81,-12.9 0.83,-26.56 -3.59,-41.25l-173.65 83.59c-9.8,4.63 -56.57,27.28 -119.26,57.65 -154.75,74.94 -405.98,196.65 -441.97,211.59l0.17 0.35 -144.38 70.44c3.19,4.77 6.96,9.97 10.08,14.26l2.39 3.29c4.79,6.68 10.27,14.76 15.83,22.98 8.7,12.84 17.66,26.06 25,35.06l2.42 2.98c1.69,2.13 2.88,3.59 4.46,4.19 1.94,0.74 4.5,0.16 9.4,-2.14z"/>
    <path class="fil2" d="M1503.23 1489.89l-143.04 -69.87 -737.38 -355.52c-0.67,2.68 -1.28,5.79 -1.81,9.12 -1.89,12.02 -2.17,25.5 -1.11,33.24 1.09,8.04 3.39,15.91 6.33,23.22 3.58,8.92 8.07,16.95 12.54,23.54 35.69,52.65 97.27,81.49 155.46,108.74l8.53 4c14.93,7.01 30.06,14.28 45.16,21.54 17.12,8.22 34.23,16.45 54.11,25.69 57.84,26.87 114.94,54.65 172.03,82.43 58.01,28.23 116.05,56.47 172.2,82.54l9.25 4.19c13.26,5.96 31.8,14.31 40.48,20.03l137.07 65.38c12.76,6.04 12.96,5.75 35.49,-27.31l34.69 -50.98z"/>
    <path class="fil2" d="M2256.43 1726.02c58.5,-32.5 117.46,-64.24 176.22,-96.28 12.79,-7.37 25.94,-14.7 39.09,-21.84 13,-7.07 26.35,-14.15 39.5,-21.04l157.11 -85.48c12.26,-7.11 24.18,-13.33 35.2,-19.07 39.37,-20.52 66.37,-34.61 90.88,-87.19 5.71,-12.27 12.14,-32.02 15.91,-51.9 1.61,-8.48 2.74,-16.91 3.11,-24.67l-560.96 268.89c-10.63,3.99 -22.44,10.15 -34.21,16.3 -15.72,8.21 -31.46,16.43 -46.03,20.59 -39.48,11.26 -60.24,-20.48 -74.87,-42.81l-4.31 -6.53c-11.94,-17.31 -25.61,-36.72 -39.23,-56.06 -18.76,-26.65 -37.51,-53.27 -55.17,-79.4 -23.45,-34.72 -47.15,-67.98 -70.51,-100.79l-24.06 -33.91c-6.46,-9.13 -20.47,-28.83 -36.41,-50.6 -14.62,-19.98 -29.34,-39.5 -36.52,-47.3 -3.48,-3.78 -8.67,-8.39 -15.02,-11.59 -4.37,-2.2 -9.28,-3.75 -14.5,-3.83 -5.25,-0.08 -10.14,1.24 -14.46,3.22 -6.23,2.87 -11.35,7.14 -14.95,10.8 -3.41,3.47 -7.69,8.61 -12.06,14.18 -4.05,5.11 -8.61,11.3 -12.59,16.78l-16.09 22.22c-11.29,15.65 -22.58,31.3 -32.05,44.21l-94.81 134.85c-10.89,15.54 -22.98,33.07 -35.08,50.65 -19.41,28.17 -38.77,56.27 -59.28,84.84 -1.86,2.59 -3.74,5.43 -5.71,8.42 -15.14,22.99 -35.59,53.96 -74.81,42.59l-1.77 -0.64c-214.1,-99.46 -426.38,-203.26 -639.28,-305.31 0.36,7.85 1.48,16.38 3.1,24.94 3.78,19.98 10.16,39.65 15.85,51.81 24.59,52.53 51.59,66.61 90.95,87.12 11.02,5.8 22.95,12.02 35.22,19.11l157.09 85.51c13.16,6.9 26.52,13.98 39.52,21.05 13.14,7.15 26.29,14.47 39.07,21.84l156 85.13c1.83,0.5 3.62,1.2 5.19,2.89 7.4,4.05 14.04,7.84 20.55,11.56 44.02,25.11 82.46,47.04 139.61,31.63 63.08,-17 84.73,-50.78 116.78,-100.81l0.43 -0.67c15.04,-23.48 32.06,-49.27 49.08,-75.09 13.08,-19.84 26.27,-39.85 41.73,-63.78l67.99 -103.64 4.5 -6.85c18.26,-27.81 45.83,-24.37 60.98,1.3 1.52,2.57 3.26,4.99 4.88,7.48 55.46,85.03 112.51,170.26 166.71,256.21 12.04,19.21 19.43,31.02 37.09,48.13 19.81,19.2 47.5,32.94 76.9,38.89 28.08,5.69 57.57,4.24 83.04,-6.34 7.67,-3.19 21.11,-10.74 33.72,-17.82 7.85,-4.41 15.41,-8.65 21.74,-11.9z"/>
    <path class="fil2" d="M1175.46 1693.65l-71.75 -39.09c1.52,8.7 3.59,18.17 5.98,27.87 7.09,28.81 16.94,59.41 23.35,78.15 6.89,20.12 14.83,39.52 23.44,58.2 8.82,19.13 18.13,37.17 27.58,54.25 14.98,27.07 30.76,51.01 48.01,73.89 17.36,23.02 35.95,44.66 56.53,67.11 8.07,8.8 17.13,17.13 26.07,25.34 4.87,4.47 9.72,8.92 15.02,14.07 1.81,1.76 3.59,3.16 5.37,4.56 1.98,1.59 4.01,3.19 6.13,5.14 8.97,8.28 18.09,15.76 27.41,22.88 9.16,6.98 19.04,13.98 29.33,21.14 99.14,68.96 211.49,110.05 327.36,122.24 116.06,12.23 235.7,-4.44 349.21,-50.98 42.19,-17.3 87.85,-42.55 130.67,-72.12 41.17,-28.42 79.68,-60.84 109.93,-93.98 34.33,-37.63 64.66,-76.38 90.53,-117.98 25.81,-41.5 47.24,-85.91 63.91,-134.96 5.51,-16.23 16.37,-50.49 23.79,-80.8 2.1,-8.56 3.93,-16.77 5.28,-24.12 -24.57,13.37 -49.2,27.26 -73.92,40.26 -14.85,7.76 -30.87,16.17 -46.33,25.12 -17.28,10 -28.28,15.25 -35.67,18.76 -4.99,2.4 -8.05,3.86 -9.44,4.99 -1.85,1.51 -3.64,5.36 -8.17,15.18l-2.2 4.75c-5.52,11.88 -11.69,23.93 -18.17,35.65 -7.06,12.8 -14.43,25.17 -21.65,36.55 -26.92,42.43 -43.8,60.1 -68.25,85.72l-14.97 15.8c-16.82,17.95 -42.94,38.8 -70.66,57.81 -29.59,20.3 -61.24,38.71 -85.46,49.41 -37.39,16.52 -74.7,30.06 -114.46,39.43 -39.72,9.35 -81.9,14.52 -129.07,14.33 -79,-0.33 -157.23,-17.24 -228.66,-48.11 -71.56,-30.87 -136.37,-75.83 -188.37,-132.15 -17.96,-19.45 -34.78,-40.07 -50.27,-62 -15.4,-21.8 -29.57,-45.04 -42.33,-69.9 -2.14,-4.17 -4.41,-9.12 -6.8,-14.33 -5.49,-11.96 -11.78,-25.67 -13.45,-26.61 -27.42,-15.32 -51.74,-28.36 -76.39,-41.58l-18.46 -9.9z"/>
   </g>
  </g>
 </g>
</svg>
