<?xml version="1.0" encoding="UTF-8"?>
<!DOCTYPE svg PUBLIC "-//W3C//DTD SVG 1.1//EN" "http://www.w3.org/Graphics/SVG/1.1/DTD/svg11.dtd">
<!-- Creator: CorelDRAW -->
<svg xmlns="http://www.w3.org/2000/svg" xml:space="preserve" width="6.39999in" height="3.59999in" version="1.1" style="shape-rendering:geometricPrecision; text-rendering:geometricPrecision; image-rendering:optimizeQuality; fill-rule:evenodd; clip-rule:evenodd"
viewBox="0 0 6399.99 3599.99"
 xmlns:xlink="http://www.w3.org/1999/xlink"
 xmlns:xodm="http://www.corel.com/coreldraw/odm/2003">
 <defs>
  <style type="text/css">
   <![CDATA[
    .fil0 {fill:none}
    .fil2 {fill:#004389}
    .fil1 {fill:#004389;fill-rule:nonzero}
   ]]>
  </style>
 </defs>
 <g id="Capa_x0020_1">
  <metadata id="CorelCorpID_0Corel-Layer"/>
  <rect class="fil0" x="-0.01" y="-0" width="6400" height="3600"/>
  <path class="fil1" d="M1645.67 1877.83l37.47 -173.31 -382.22 0 -38.41 183.62 166.75 0 -21.55 101.18 -269.8 0 82.44 -384.1 436.56 0 40.28 -187.36 -359.74 0c-237.95,0 -315.71,61.83 -367.23,303.53l-33.73 156.45c-51.52,241.7 12.18,303.53 251.07,303.53l77.76 0c237.95,0 329.76,-61.83 380.35,-303.53z"/>
  <polygon id="_1" class="fil1" points="2279.85,2176.68 2320.13,1989.32 1961.33,1989.32 2083.11,1417.86 1858.28,1417.86 1696.21,2176.68 "/>
  <path id="_2" class="fil1" d="M3109.82 1877.83l34.66 -162.07c50.59,-241.7 -14.05,-302.59 -252,-302.59l-101.18 0c-238.89,0 -328.82,60.89 -380.35,302.59l-34.67 162.07c-51.52,241.7 12.18,303.53 251.07,303.53l101.18 0c238.89,0 329.76,-61.83 381.29,-303.53zm-249.19 111.48l-282.92 0 82.44 -384.1 281.98 0 -81.5 384.1z"/>
  <path id="_3" class="fil1" d="M3921.99 1944.35c17.8,-79.63 5.62,-131.15 -51.52,-172.37 74.01,-44.97 99.3,-89.94 113.35,-160.2 26.23,-126.47 -28.11,-193.92 -178.93,-193.92l-482.46 0 -162.07 758.82 463.72 0c166.76,0 265.12,-74.94 297.91,-232.33zm-180.81 -229.52l-256.69 0 23.42 -109.61 256.69 0 -23.42 109.61zm-49.65 274.49l-266.06 0 23.42 -109.61 267 0 -24.36 109.61z"/>
  <path id="_4" class="fil1" d="M4752.9 2176.68l-107.74 -758.82 -299.78 0 -432.81 758.82 209.85 0 83.38 -143.33 310.09 0 20.61 143.33 216.41 0zm-264.19 -322.26l-180.8 0 144.27 -253.88 36.54 253.88z"/>
  <polygon id="_5" class="fil1" points="5406.75,2176.68 5447.04,1989.32 5088.23,1989.32 5210.02,1417.86 4985.19,1417.86 4823.11,2176.68 "/>
  <path class="fil1" d="M4717.54 1251.44c-80.3,0 -176.1,-9.86 -287.4,-29.58l36.98 -191.25c30.99,9.15 74.67,17.96 131.02,26.41 56.35,8.45 101.08,12.68 134.19,12.68 11.27,0 23.6,-0.7 36.98,-2.11 13.38,-1.41 28,-4.05 43.85,-7.93 15.85,-3.88 29.06,-10.21 39.63,-19.02 10.56,-8.8 15.85,-19.2 15.85,-31.17 0,-20.43 -24.3,-31.7 -72.91,-33.81 -28.87,-1.41 -54.59,-3.35 -77.13,-5.81 -22.54,-2.47 -47.9,-7.57 -76.07,-15.32 -28.18,-7.75 -51.6,-17.78 -70.27,-30.11 -18.67,-12.32 -34.52,-29.41 -47.55,-51.25 -13.03,-21.83 -19.54,-47.19 -19.54,-76.07 0,-50.02 11.62,-97.04 34.87,-141.06 23.24,-44.03 55.65,-79.78 97.21,-107.25 68.33,-45.08 163.78,-67.63 286.35,-67.63 104.26,0 189.14,8.1 254.65,24.3l-36.98 187.03c-94.4,-21.13 -168,-31.7 -220.84,-31.7 -28.18,0 -58.64,4.22 -91.4,12.69 -32.76,8.45 -49.14,22.54 -49.14,42.26 0,7.05 9.87,13.38 29.59,19.02 13.39,3.52 42.26,8.8 86.64,15.85 28.18,4.22 50.9,8.1 68.16,11.62 17.26,3.52 38.57,9.68 63.93,18.48 25.36,8.81 45.26,19.02 59.7,30.65 14.44,11.62 27.13,27.3 38.04,47.02 10.92,19.72 16.38,42.62 16.38,68.68 0,50.02 -12.86,98.63 -38.57,145.81 -25.71,47.2 -59.35,83.83 -100.91,109.89 -71.15,45.79 -166.25,68.68 -285.3,68.68z"/>
  <path class="fil1" d="M3990.35 1245.11c-47.2,0 -91.22,-5.45 -132.08,-16.37 -40.85,-10.92 -77.66,-27.48 -110.41,-49.66 -32.76,-22.19 -58.65,-51.78 -77.67,-88.76 -19.02,-36.98 -28.53,-79.42 -28.53,-127.32 0,-70.44 16.73,-141.41 50.19,-212.91 33.46,-71.5 78.02,-127.68 133.67,-168.54 84.53,-64.1 198.65,-96.15 342.35,-96.15 85.94,0 187.01,13.62 272.95,34.05l-32.06 174.53c-84.53,-14.79 -164.47,-25.78 -206.02,-25.78 -45.79,0 -83.13,2.29 -112.01,6.87 -28.88,4.58 -55.82,13.91 -80.83,28 -25.01,14.09 -44.73,34.34 -59.18,60.76 -14.43,26.41 -25.89,60.76 -34.33,103.02 -7.04,33.11 -10.57,62.69 -10.57,88.76 0,45.79 12.15,75.72 36.45,89.81 24.3,14.09 61.46,21.13 111.48,21.13l32.76 -2.11 44.02 -6.72 17.61 -74.5 -116.52 -1.69 32.89 -174.58 324.06 0.22 -75.94 399.93c-126.8,25.36 -234.22,38.04 -322.28,38.04z"/>
  <polygon class="fil1" points="2624.87,1234.54 2370.22,1234.54 2513.92,494.89 2768.57,494.89 "/>
  <path class="fil1" d="M1599.87 1234.54l-303.26 0c-23.94,-227.53 -49.31,-474.08 -76.07,-739.65l251.48 0 24.3 508.25 9.51 0 193.37 -507.19 259.93 0 -8.45 507.19 10.56 0 217.67 -508.25 238.8 0 -345.52 739.65 -289.52 0 -7.39 -403.63 -10.57 0 -164.83 403.63z"/>
  <path class="fil1" d="M3497.21 1235.95l91.53 -481.69c34.05,-179.28 -31.17,-259.37 -210.45,-259.37l-503.2 0 -140.43 741.06 264.14 0 102.13 -539.06c62.28,0 124.56,0 186.84,0 23,0.59 43.47,22.02 38.35,57.12l-91.23 481.44 262.32 0.5z"/>
  <polygon class="fil1" points="1893.44,2547.37 1932.79,2360.01 1232.98,2360.01 1192.7,2547.37 1430.65,2547.37 1308.87,3118.83 1533.7,3118.83 1655.49,2547.37 "/>
  <path id="_1_0" class="fil1" d="M2674.7 2581.1c32.79,-156.45 -15.93,-221.09 -195.8,-221.09l-467.47 0 -162.07 758.82 225.78 0 55.27 -260.44 257.62 0 -55.27 260.44 226.71 0 35.6 -169.56c20.61,-97.43 41.22,-161.13 -46.84,-207.98 66.52,-31.85 106.8,-69.32 126.47,-160.19zm-246.39 90.87l-258.56 0 27.17 -124.6 257.63 0 -26.23 124.6z"/>
  <path id="_2_1" class="fil1" d="M3468.14 3118.83l-107.74 -758.82 -299.78 0 -432.81 758.82 209.85 0 83.38 -143.33 310.09 0 20.61 143.33 216.41 0zm-264.19 -322.26l-180.8 0 144.27 -253.88 36.54 253.88z"/>
  <path id="_3_2" class="fil1" d="M4321.53 2814.37l32.79 -150.83c51.53,-241.7 -13.11,-303.53 -252,-303.53l-401.89 0 -162.07 758.82 402.83 0c237.95,0 329.76,-62.77 380.35,-304.46zm-249.19 117.1l-268.87 0 82.44 -384.1 267.93 0 -81.5 384.1z"/>
  <polygon id="_4_3" class="fil1" points="4977.26,3118.83 5017.54,2931.47 4636.25,2931.47 4657.8,2831.23 5025.97,2831.23 5064.38,2647.61 4697.15,2647.61 4718.69,2547.37 5099.04,2547.37 5139.33,2360.01 4533.2,2360.01 4371.13,3118.83 "/>
  <path class="fil2" d="M5495.8 616c-4.98,39.33 -39.95,72.11 -85.06,66.68 -39.22,-4.73 -72.85,-40.6 -66.85,-86.43 5.06,-38.69 40.61,-71.1 85.56,-65.87 38.95,4.53 72.04,40.61 66.35,85.63zm-89.3 -103.88c-48.23,6.57 -89,50.83 -81.23,107.77 6.62,48.55 51.55,88.99 108.4,80.97 47.57,-6.71 87.76,-51.08 80.49,-107.15 -6.28,-48.38 -51.1,-89.28 -107.66,-81.58z"/>
  <path class="fil2" d="M5397.25 599.73l0.08 -27.28c14.8,-0.54 39.42,-3.31 39.38,13.35 -0.04,16.91 -23.75,15.02 -39.46,13.93zm-20.65 57.71l20.69 0.17 0.02 -41.46c26.93,-2.2 27.96,19.29 42.07,41.17l25.11 0.27c-1.68,-4.56 -17.14,-30.41 -21.42,-35.8 -3.56,-4.47 -5.66,-5.57 -10.59,-8.31 2.75,-1.62 7.57,-2.32 10.76,-3.94 10.76,-5.48 16.81,-15.4 15.15,-28.86 -2.1,-17.02 -16.03,-24.35 -34.53,-24.35l-47.27 0.11 0 101.02z"/>
 </g>
</svg>
