<svg xmlns="http://www.w3.org/2000/svg" viewBox="0 0 1299 677" preserveAspectRatio="xMinYMid meet" role="img" aria-label="Firma de Saad Muhammad"><path d="M1298.47 618.50C1298.47 586.05 1298.60 572.92 1298.75 589.32C1298.90 605.72 1298.90 632.27 1298.75 648.32C1298.59 664.37 1298.47 650.95 1298.47 618.50ZM1298.46 508.00C1298.46 480.23 1298.59 468.86 1298.75 482.75C1298.91 496.64 1298.91 519.36 1298.75 533.25C1298.59 547.14 1298.46 535.77 1298.46 508.00ZM215.60 384.27C215.43 384.10 196.66 383.72 173.90 383.43C151.13 383.13 127.55 382.44 121.50 381.88C115.45 381.32 100.60 380.45 88.50 379.93C57.44 378.61 20.91 375.60 18.25 374.16C15.54 372.68 15.28 368.93 17.75 366.79C18.77 365.90 22.42 365.02 26.50 364.69C34.45 364.03 45.41 361.39 58.41 357.01C63.31 355.35 67.81 354.00 68.41 354.01C69.60 354.01 85.00 349.88 94.50 346.99C97.80 345.99 105.22 343.74 111.00 341.99C116.78 340.25 123.53 338.16 126.00 337.35C135.86 334.14 154.29 329.09 165.60 326.49C168.96 325.72 172.78 324.65 174.10 324.11C177.28 322.80 188.80 319.77 229.00 309.66C247.43 305.03 269.70 299.14 278.50 296.57C287.30 294.01 298.10 291.02 302.50 289.94C306.90 288.85 311.86 287.53 313.52 287.00C317.52 285.72 331.84 281.99 335.00 281.40C336.38 281.14 340.20 280.21 343.50 279.34C349.46 277.77 351.52 277.33 364.00 274.96C367.57 274.28 370.73 273.42 371.00 273.05C371.27 272.69 376.23 271.20 382.00 269.75C387.77 268.30 400.38 265.12 410.00 262.68C428.30 258.06 442.36 254.84 452.50 252.96C455.80 252.35 460.07 251.45 462.00 250.95C468.18 249.36 479.35 247.02 484.50 246.22C487.90 245.70 489.50 244.98 489.50 243.98C489.50 242.53 457.42 225.85 444.50 220.59C432.86 215.84 414.38 209.10 404.50 206.00C399.00 204.27 392.93 202.24 391.00 201.48C389.07 200.73 384.12 199.10 380.00 197.87C361.96 192.50 323.96 179.60 310.50 174.27C299.16 169.78 293.57 164.81 295.87 161.25C296.22 160.72 301.00 159.03 306.50 157.49C312.00 155.96 321.68 153.01 328.00 150.94C362.14 139.77 419.81 126.04 439.50 124.39C446.62 123.80 449.67 125.15 446.56 127.52C445.49 128.33 442.94 129.00 440.89 129.00C438.84 129.00 429.59 130.61 420.33 132.59C411.07 134.56 399.45 137.01 394.50 138.02C377.26 141.57 350.85 148.71 328.00 156.01C319.48 158.74 310.59 161.44 308.25 162.02C298.69 164.39 303.19 166.70 344.00 180.32C359.68 185.55 377.23 191.27 383.00 193.03C388.77 194.79 399.12 198.24 406.00 200.69C412.88 203.15 419.85 205.51 421.50 205.93C428.79 207.78 459.71 220.85 470.00 226.43C471.38 227.18 476.32 229.79 481.00 232.22C485.68 234.66 491.52 237.97 494.00 239.58C500.58 243.85 501.25 243.80 549.00 235.13C558.08 233.48 572.25 231.20 580.50 230.07C603.89 226.85 610.15 225.92 615.00 224.94C623.59 223.20 659.09 218.14 673.50 216.61C676.25 216.31 685.25 215.17 693.50 214.06C701.75 212.96 717.95 211.09 729.50 209.91C741.05 208.73 751.85 207.61 753.50 207.42C755.15 207.22 761.23 206.58 767.00 206.00C772.77 205.41 778.62 204.78 780.00 204.59C781.38 204.40 787.00 203.71 792.50 203.05C798.00 202.39 807.49 201.01 813.58 199.97C819.68 198.94 830.70 197.41 838.08 196.57C860.58 194.01 889.77 189.96 904.00 187.41C911.42 186.08 923.35 184.31 930.50 183.46C937.65 182.61 947.33 181.23 952.00 180.39C956.67 179.55 965.90 178.03 972.50 177.01C979.10 176.00 988.55 174.44 993.50 173.54C998.45 172.65 1007.45 171.06 1013.50 170.01C1019.55 168.95 1029.00 167.15 1034.50 166.01C1040.00 164.86 1047.03 163.49 1050.13 162.96C1053.23 162.43 1057.67 161.32 1060.01 160.50C1062.34 159.67 1065.04 159.00 1066.00 159.00C1068.21 159.00 1088.84 152.69 1091.79 151.11C1093.01 150.46 1094.00 149.58 1094.00 149.15C1094.00 147.93 1087.23 145.01 1084.22 144.93C1077.70 144.76 1078.00 143.44 1084.97 141.65C1094.19 139.27 1098.31 140.39 1100.08 145.74C1101.22 149.18 1101.13 149.48 1098.39 151.67C1092.92 156.03 1073.26 162.16 1054.05 165.49C1048.85 166.39 1044.24 167.35 1043.80 167.62C1042.31 168.55 1013.26 173.53 966.00 180.97C955.27 182.66 941.10 184.91 934.50 185.96C927.90 187.02 915.30 188.84 906.50 189.99C897.70 191.15 886.23 192.72 881.00 193.49C875.77 194.25 866.33 195.57 860.00 196.42C853.67 197.26 841.75 198.86 833.50 199.96C825.25 201.06 808.38 203.31 796.00 204.97C774.22 207.88 759.98 209.53 747.50 210.60C740.50 211.20 717.81 213.71 707.00 215.08C702.88 215.60 695.45 216.44 690.50 216.93C685.55 217.42 677.00 218.53 671.50 219.38C666.00 220.24 655.42 221.64 648.00 222.50C640.58 223.35 630.67 224.71 626.00 225.51C618.32 226.83 575.39 233.69 560.50 235.98C557.20 236.48 551.80 237.15 548.50 237.45C545.20 237.76 540.48 238.44 538.00 238.95C535.52 239.47 529.45 240.64 524.50 241.56C519.55 242.48 513.92 243.52 512.00 243.88C509.91 244.27 508.50 245.12 508.50 245.98C508.50 246.78 513.76 251.39 520.19 256.23C532.47 265.47 546.50 279.70 552.53 289.03C556.58 295.31 560.00 305.42 560.00 311.13C560.00 316.81 556.63 325.52 552.47 330.60C548.34 335.64 544.61 338.21 545.70 335.27C546.06 334.30 547.37 332.15 548.61 330.50C552.26 325.63 555.00 318.18 555.00 313.11C555.00 304.95 549.00 291.08 542.57 284.39C541.98 283.78 538.97 280.62 535.89 277.36C530.15 271.31 520.48 262.74 516.00 259.74C514.62 258.82 511.57 256.70 509.21 255.03C506.86 253.36 504.68 252.00 504.37 252.00C504.07 252.00 502.67 251.10 501.27 250.00C498.01 247.43 492.91 247.43 480.29 249.98C474.90 251.07 465.55 252.91 459.50 254.06C448.47 256.17 447.06 256.48 435.00 259.39C431.43 260.25 422.65 262.35 415.50 264.06C408.35 265.77 400.02 267.82 397.00 268.63C393.98 269.44 389.93 270.52 388.00 271.03C386.07 271.55 377.98 273.61 370.00 275.61C330.44 285.54 264.56 303.18 252.50 307.05C249.20 308.12 242.22 310.09 237.00 311.45C231.78 312.80 224.12 314.83 220.00 315.95C215.88 317.07 208.68 318.91 204.00 320.05C195.64 322.08 178.96 326.79 149.00 335.57C144.32 336.94 138.93 338.49 137.00 339.00C131.86 340.37 112.90 345.99 110.00 347.00C106.94 348.07 82.80 355.53 66.50 360.46C49.85 365.49 37.00 370.10 37.00 371.04C37.00 371.47 40.49 372.11 44.75 372.46C49.01 372.80 57.22 373.52 63.00 374.05C68.78 374.58 86.10 375.70 101.50 376.54C116.90 377.38 130.23 378.29 131.13 378.56C134.55 379.60 277.51 380.53 283.57 379.55C285.18 379.29 294.82 378.84 305.00 378.55C324.12 378.01 335.22 377.36 382.00 374.01C407.48 372.18 431.44 370.14 435.00 369.49C435.82 369.34 441.90 368.47 448.50 367.57C455.10 366.67 462.30 365.52 464.50 365.03C466.70 364.54 471.43 363.60 475.00 362.96C478.57 362.31 483.98 361.11 487.00 360.30C490.02 359.48 494.30 358.36 496.50 357.79C506.17 355.33 532.03 345.52 533.02 343.95C533.31 343.50 534.86 342.62 536.47 342.01C539.26 340.95 539.32 340.98 537.76 342.70C536.86 343.69 534.41 345.38 532.31 346.46C530.22 347.54 527.38 349.14 526.00 350.02C519.34 354.30 495.32 362.89 482.97 365.40C478.83 366.24 472.53 367.59 468.97 368.41C461.05 370.23 445.92 372.59 436.50 373.48C432.65 373.84 428.38 374.31 427.00 374.53C423.22 375.11 354.80 379.99 329.50 381.47C303.29 383.01 282.97 383.88 270.00 384.00C262.02 384.08 246.59 384.24 235.71 384.37C224.82 384.49 215.78 384.44 215.60 384.27ZM656.17 305.34C653.21 300.05 662.11 286.65 681.40 267.33C696.14 252.56 701.14 248.98 702.94 251.91C703.66 253.07 696.10 269.99 694.87 270.00C694.52 270.00 694.00 269.10 693.71 268.00C692.74 264.28 689.56 265.97 680.90 274.83C670.64 285.32 663.00 295.51 663.00 298.70C663.00 301.60 663.10 301.59 669.88 298.11C683.48 291.12 702.12 278.37 713.00 268.62C737.57 246.60 738.43 245.86 745.02 241.34C755.37 234.23 777.31 225.00 783.85 225.00C787.33 225.00 790.00 227.25 790.00 230.19C790.00 232.25 779.53 243.05 758.18 263.03C747.45 273.07 745.98 275.91 749.75 279.23C752.54 281.70 761.72 283.23 766.97 282.10C769.46 281.57 776.11 280.18 781.75 279.01C787.39 277.85 794.81 276.02 798.25 274.95C801.69 273.88 806.08 272.52 808.00 271.93C811.90 270.73 829.78 263.99 837.50 260.81C840.25 259.67 846.77 256.94 852.00 254.74C862.60 250.27 873.80 247.04 878.82 247.02C887.19 246.97 888.43 251.87 881.50 257.66C876.57 261.79 876.00 263.39 878.93 264.96C881.49 266.33 900.54 266.29 907.02 264.90C912.53 263.72 914.56 264.38 911.75 266.44C906.92 269.97 879.19 271.11 872.83 268.04C871.36 267.33 869.85 265.57 869.49 264.12C868.91 261.86 869.53 260.86 874.10 256.75L879.38 252.00L876.30 252.00C872.93 252.00 861.84 255.20 855.50 258.00C853.30 258.97 849.92 260.31 848.00 260.98C846.08 261.65 842.80 263.09 840.73 264.17C837.18 266.03 822.33 271.47 803.00 277.98C798.33 279.56 791.12 281.60 787.00 282.52C782.88 283.45 777.18 284.83 774.35 285.60C767.60 287.43 754.91 287.41 750.47 285.55C745.67 283.54 742.00 279.32 742.00 275.80C742.00 269.92 742.74 269.10 769.67 245.17C774.71 240.69 779.79 235.81 780.95 234.34C785.82 228.14 778.41 229.38 761.55 237.57C746.73 244.77 741.52 248.56 724.23 264.82C715.38 273.13 697.44 287.12 691.88 290.04C690.57 290.73 687.79 292.63 685.70 294.27C680.08 298.68 663.24 307.00 659.95 307.00C658.34 307.00 656.70 306.28 656.17 305.34ZM914.02 253.25C909.84 246.59 910.29 244.10 915.45 245.40C918.11 246.07 918.57 246.96 919.53 253.37C920.11 257.25 919.97 258.00 918.62 258.00C917.73 258.00 915.66 255.86 914.02 253.25ZM577.26 176.04C574.27 174.75 571.00 169.23 571.03 165.50C571.08 156.30 582.41 143.81 597.27 136.59C604.76 132.94 607.76 132.00 611.87 132.00C620.12 132.00 628.63 138.51 627.83 144.19C627.56 146.06 626.79 146.56 623.75 146.81C619.91 147.13 619.09 146.31 621.18 144.22C622.70 142.70 619.78 139.26 615.35 137.39C612.69 136.26 611.31 136.29 606.47 137.55C600.56 139.09 595.00 141.84 595.00 143.22C595.00 143.65 594.23 144.00 593.29 144.00C590.96 144.00 580.56 155.20 578.02 160.46C576.32 163.97 576.14 165.25 577.04 167.60C578.50 171.45 579.56 171.97 586.12 171.98C594.38 172.01 612.73 165.51 621.25 159.54C626.66 155.75 629.25 158.92 624.70 163.74C623.01 165.51 621.97 167.30 622.37 167.71C623.81 169.14 636.59 169.12 643.00 167.67C653.02 165.40 663.67 162.41 672.94 159.24L681.38 156.36L682.50 151.38C684.72 141.53 695.58 129.92 708.58 123.49C718.38 118.65 722.09 118.10 724.86 121.08C726.04 122.34 727.00 124.16 727.00 125.11C727.00 127.29 701.03 152.05 696.93 153.77C691.33 156.13 694.55 157.32 704.89 156.72C718.18 155.95 729.93 152.02 744.67 143.41C747.71 141.63 747.93 141.63 749.81 143.32C752.11 145.41 754.66 145.01 763.25 141.25C769.14 138.67 770.14 137.19 767.50 135.00C764.46 132.47 766.37 127.84 772.32 123.33C779.67 117.75 800.23 112.00 812.84 112.00C820.89 112.00 824.28 113.80 823.81 117.82C823.54 120.08 821.94 121.21 812.26 125.97C806.08 129.01 801.01 131.80 801.01 132.16C800.98 134.55 830.93 126.79 847.00 120.25C853.96 117.41 874.83 107.09 875.37 106.21C875.71 105.66 875.10 103.24 874.02 100.85C869.89 91.75 872.01 79.32 879.17 70.66C885.95 62.46 899.77 51.04 909.77 45.39C912.37 43.91 916.08 41.69 918.00 40.45C923.64 36.81 941.99 27.47 950.06 24.15C963.37 18.65 973.40 15.86 978.62 16.19C983.34 16.49 983.51 16.61 983.82 19.81C984.15 23.26 982.40 25.95 972.56 37.10C970.33 39.64 967.38 43.61 966.00 45.94C963.19 50.69 947.13 66.91 939.50 72.70C936.75 74.79 933.15 77.53 931.50 78.78C924.42 84.15 908.90 94.12 901.50 98.03C889.85 104.18 887.00 106.02 887.00 107.37C887.00 108.53 894.39 114.55 898.50 116.72C900.59 117.84 910.62 121.22 922.50 124.82C926.35 125.98 933.55 127.39 938.50 127.94C960.92 130.45 976.77 131.98 986.72 132.61C992.65 132.99 998.40 133.62 999.50 134.03C1007.62 137.05 962.63 135.53 938.00 131.96C914.08 128.50 898.30 123.42 888.55 116.04C885.10 113.43 881.75 110.97 881.12 110.57C880.48 110.18 875.58 111.97 870.23 114.54C839.51 129.32 814.92 136.69 785.00 140.06C775.37 141.15 768.22 143.20 758.00 147.79C756.08 148.65 751.80 149.46 748.50 149.59C744.39 149.75 740.21 150.80 735.21 152.95C718.56 160.10 700.73 163.54 692.74 161.13C684.58 158.68 683.79 158.79 665.15 164.99C643.89 172.06 639.71 172.98 628.26 173.10C620.99 173.18 619.52 172.90 617.59 171.08L615.34 168.97L604.42 172.57C593.00 176.33 581.37 177.81 577.26 176.04ZM693.76 150.45C695.80 149.60 699.51 146.79 702.00 144.20C704.50 141.62 709.62 136.57 713.38 133.00C719.98 126.74 720.13 126.49 717.52 126.18C709.89 125.26 688.03 143.08 688.01 150.25C688.00 152.40 689.02 152.44 693.76 150.45ZM790.84 130.40C806.56 124.19 817.15 118.95 816.68 117.61C815.62 114.62 791.89 118.56 781.50 123.44C776.42 125.83 772.00 129.34 772.00 130.98C772.00 132.18 776.08 135.00 777.81 135.00C778.56 135.00 784.42 132.93 790.84 130.40ZM902.49 91.72C926.84 77.52 939.94 67.81 952.79 54.45C969.48 37.10 979.00 25.20 979.00 21.68C979.00 17.90 969.93 20.24 950.00 29.18C942.34 32.62 921.58 43.22 920.00 44.50C919.17 45.17 915.80 47.14 912.50 48.87C900.51 55.18 884.19 69.33 879.51 77.47C876.54 82.64 875.58 88.72 876.93 93.76C878.38 99.12 881.58 103.09 883.79 102.27C884.73 101.92 893.15 97.17 902.49 91.72Z" fill="#0f1216" fill-rule="evenodd"/></svg>