<svg viewBox="0 0 120 80" stroke="currentColor" stroke-width="1.5" stroke-linecap="round" stroke-linejoin="round" fill="none" xmlns="http://www.w3.org/2000/svg">
  <rect x="30" y="20" width="60" height="40" rx="2" />
  <path d="M 35 20 L 35 60" />
  <path d="M 40 20 L 40 60" />
  <path d="M 45 20 L 45 60" />
  <path d="M 50 20 L 50 60" />
  <path d="M 55 20 L 55 60" />
  <path d="M 60 20 L 60 60" />
  <path d="M 65 20 L 65 60" />
  <path d="M 70 20 L 70 60" />
  <path d="M 75 20 L 75 60" />
  <path d="M 80 20 L 80 60" />
  <path d="M 85 20 L 85 60" />
  <path d="M 50 20 L 50 15 L 70 15 L 70 20" />
  <path d="M 30 30 L 20 30" />
  <path d="M 90 50 L 100 50" />
</svg>
