<?xml version="1.0" encoding="UTF-8"?>
<!DOCTYPE svg PUBLIC "-//W3C//DTD SVG 1.1//EN" "http://www.w3.org/Graphics/SVG/1.1/DTD/svg11.dtd">
<!-- Mister mark variant. Cut from mister-lockup-solid.svg by layer deletion.
     Geometry is VERBATIM from the master; coordinates must never be edited.
     viewBox = element bounding box + 1b clearspace (b=271.389 master user units). -->
<svg xmlns="http://www.w3.org/2000/svg" xml:space="preserve" width="5.93in" height="1.86in" version="1.1" style="shape-rendering:geometricPrecision; text-rendering:geometricPrecision; image-rendering:optimizeQuality; fill-rule:evenodd; clip-rule:evenodd"
viewBox="4240.77 3216.99 5934.51 1860.18"
 xmlns:xlink="http://www.w3.org/1999/xlink">
 <defs>
  <style type="text/css">
   <![CDATA[
    .fil0 {fill:#1D83F2;fill-rule:nonzero}
   ]]>
  </style>
 </defs>
 <g id="Capa_x0020_1">
  <polygon class="fil0" points="4512.9,4779.57 4512.9,3488.71 4807.95,3488.71 5150.95,4681.83 5174.93,4681.83 5517.93,3488.71 5812.98,3488.71 5812.98,4779.57 5663.61,4779.57 5663.61,3590.14 5637.79,3590.14 5296.63,4779.57 5029.24,4779.57 4688.09,3590.14 4662.27,3590.14 4662.27,4779.57 "/>
  <path id="_1" class="fil0" d="M6113.56 4779.57l0 -901.76 145.68 0 0 901.76 -145.68 0zm73.76 -1041.91c-31.96,0 -58.7,-10.45 -80.22,-31.35 -21.52,-20.9 -32.27,-47.33 -32.27,-79.3 0,-33.19 10.76,-60.24 32.27,-81.14 21.51,-20.9 48.25,-31.35 80.22,-31.35 31.96,0 58.39,10.45 79.3,31.35 20.9,20.9 31.35,47.95 31.35,81.14 0,31.96 -10.45,58.39 -31.35,79.3 -20.9,20.9 -47.33,31.35 -79.3,31.35z"/>
  <path id="_2" class="fil0" d="M6928.65 4805.39c-111.87,0 -206.23,-25.82 -283.07,-77.45 -76.83,-51.63 -123.24,-133.39 -139.23,-245.26l138.31 -31.35c9.83,59.01 28.28,105.42 55.32,139.23 27.05,33.81 60.55,57.78 100.5,71.92 39.95,14.14 82.67,21.2 128.16,21.2 67.62,0 121.09,-13.52 160.44,-40.57 39.34,-27.05 59.01,-63.31 59.01,-108.8 0,-46.72 -18.75,-79.6 -56.24,-98.66 -37.5,-19.06 -88.82,-34.73 -153.98,-47.02l-75.61 -12.91c-57.78,-9.83 -110.65,-25.2 -158.59,-46.1 -47.95,-20.9 -86.06,-49.17 -114.33,-84.83 -28.28,-35.65 -42.41,-80.52 -42.41,-134.62 0,-81.14 31.35,-144.45 94.05,-189.94 62.7,-45.49 145.69,-68.23 248.95,-68.23 102.04,0 184.72,23.05 248.03,69.15 63.31,46.1 104.19,110.95 122.63,194.55l-136.46 35.04c-11.06,-65.16 -37.5,-110.95 -79.3,-137.39 -41.8,-26.43 -93.43,-39.65 -154.9,-39.65 -61.47,0 -110.03,11.37 -145.69,34.11 -35.65,22.74 -53.48,56.24 -53.48,100.5 0,43.03 16.91,74.69 50.71,94.97 33.81,20.28 78.99,35.35 135.54,45.18l75.61 12.91c63.93,11.07 121.4,26.13 172.42,45.18 51.02,19.06 91.59,46.41 121.71,82.06 30.12,35.65 45.18,82.37 45.18,140.15 0,88.52 -32.89,156.75 -98.66,204.69 -65.77,47.94 -153.98,71.92 -264.63,71.92z"/>
  <path id="_3" class="fil0" d="M7848.84 4779.57c-51.63,0 -91.28,-14.14 -118.94,-42.41 -27.66,-28.28 -41.49,-67 -41.49,-116.18l0 -615.93 -271.08 0 0 -127.24 271.08 0 0 -320.87 145.68 0 0 320.87 295.06 0 0 127.24 -295.06 0 0 593.8c0,36.88 17.83,55.32 53.48,55.32l201 0 0 125.4 -239.73 0z"/>
  <path id="_4" class="fil0" d="M8745.07 4805.39c-90.98,0 -170.89,-19.37 -239.73,-58.09 -68.85,-38.72 -122.32,-93.13 -160.43,-163.2 -38.11,-70.07 -57.17,-151.22 -57.17,-243.42l0 -22.13c0,-93.43 19.06,-175.19 57.17,-245.26 38.11,-70.07 90.97,-124.48 158.59,-163.2 67.61,-38.73 145.07,-58.09 232.35,-58.09 84.83,0 159.82,18.13 224.98,54.4 65.16,36.27 116.18,88.21 153.06,155.83 36.88,67.61 55.32,146.91 55.32,237.89l0 66.39 -735.79 0c3.69,97.12 35.04,173.04 94.05,227.74 59.01,54.71 132.78,82.06 221.29,82.06 77.45,0 137.07,-17.83 178.87,-53.48 41.8,-35.65 73.76,-78.07 95.89,-127.24l125.4 60.85c-18.44,38.11 -43.95,76.22 -76.53,114.33 -32.58,38.11 -74.99,70.07 -127.24,95.89 -52.25,25.82 -118.94,38.73 -200.08,38.73zm-309.81 -558.76l586.42 0c-4.92,-83.6 -33.5,-148.76 -85.75,-195.47 -52.25,-46.72 -118.94,-70.07 -200.08,-70.07 -82.37,0 -149.98,23.36 -202.85,70.07 -52.86,46.72 -85.44,111.87 -97.74,195.47z"/>
  <path id="_5" class="fil0" d="M9423.69 4779.57l0 -901.76 142 0 0 110.65 25.81 0c15.98,-39.34 40.57,-68.23 73.76,-86.67 33.19,-18.44 76.84,-27.66 130.93,-27.66l106.96 0 0 132.78 -116.18 0c-65.16,0 -117.71,18.13 -157.67,54.4 -39.95,36.27 -59.93,92.51 -59.93,168.74l0 549.54 -145.68 0z"/>
 </g>
</svg>
