<?xml version="1.0" encoding="UTF-8"?>
<!DOCTYPE svg PUBLIC "-//W3C//DTD SVG 1.1//EN" "http://www.w3.org/Graphics/SVG/1.1/DTD/svg11.dtd">
<!-- Creator: CorelDRAW -->
<svg xmlns="http://www.w3.org/2000/svg" xml:space="preserve" width="100%" height="100%" version="1.1" style="shape-rendering:geometricPrecision; text-rendering:geometricPrecision; image-rendering:optimizeQuality; fill-rule:evenodd; clip-rule:evenodd"
viewBox="430 830 2667 2206"
 xmlns:xlink="http://www.w3.org/1999/xlink"
 xmlns:xodm="http://www.corel.com/coreldraw/odm/2003">
 <defs>
  <style type="text/css">
   <![CDATA[
    .fil0 {fill:#001E50}
    .fil1 {fill:#001E50;fill-rule:nonzero}
   ]]>
  </style>
 </defs>
 <g id="Capa_x0020_1">
  <metadata id="CorelCorpID_0Corel-Layer"/>
  <path class="fil0" d="M1251.03 1658.41l117.43 64.06c26.63,13.93 18.59,8.86 29.13,31.64 22.47,48.51 50.2,88.71 85.82,126.06 5.44,5.71 9.26,10.68 15.13,16.03 50.91,46.27 77.54,67.26 144.61,98.48 57.98,26.98 127.86,42.72 200.28,43.05 96.58,0.43 206.12,-32.66 279.07,-85.85 72.08,-52.54 129.55,-111.73 167.89,-196.75 10.74,-23.79 5.38,-15.59 30.28,-30.42 35.46,-21.12 79.64,-46.56 116.45,-64.58 -6.24,58.07 -45.85,144.86 -74.15,194.3 -22.43,39.2 -44.86,65.09 -71.95,97.07l-33.85 34.25c-4.96,5.1 -11.76,10.54 -18.13,15.94 -167.67,142.35 -396.69,190.98 -621.15,102.7 -61.55,-24.2 -100.13,-49.9 -149.73,-87.43 -17.98,-13.59 -45.61,-39.59 -61.4,-55.66 -25.78,-26.24 -63.35,-75.9 -81.23,-107.05 -35.25,-61.41 -57.62,-115.7 -74.52,-195.87zm-267.66 -284.59c8.52,2.44 114.1,53.54 127.26,59.49 43.02,19.46 84.09,40.09 127.37,59.43 42.87,19.17 83.07,40.81 125.38,61.28 41.8,20.2 82.92,39.97 125.48,59.86 53.08,24.81 72.29,30.82 115.15,-33.74l192.09 -274.79c43.85,-62.92 57.18,-56.49 97.15,-1l154.91 218.61c13.02,18.94 25.69,36.76 38.33,55.05 38.11,55.2 54.97,65.43 116.08,37.48 21.41,-9.8 41.33,-20.19 62.11,-31.25 20.78,-11.06 42.14,-20.34 62.22,-31.2 19.14,-10.35 43.12,-20.82 63.3,-30.03 66.45,-30.32 125.26,-59.66 190.18,-89.94l94.37 -45.05c8.26,-4.21 23.19,-12.34 30.9,-14.26 -2.64,64.89 -37.24,95.95 -74.99,121.35 -76.44,51.43 -175.66,92.03 -254.49,139.78 -34.55,20.93 -87.8,46.42 -127.59,69.54 -38.3,22.24 -96.79,54.22 -151.45,33.4 -60.22,-22.94 -118.67,-131.74 -155.23,-190.13 -16.63,-26.56 -84.72,-133.91 -99.92,-144.92l-117.05 179.67c-12.54,20 -25.02,38.92 -38.48,59.3 -29.46,44.58 -39.02,74.48 -99.78,97.39 -34.31,12.93 -47.94,9.65 -79.89,-3.8 -84.57,-35.58 -177.74,-90.98 -257.79,-136.5 -10.67,-6.06 -21.27,-11.25 -32.27,-16.7l-96.42 -51.76c-22.19,-12.26 -40.38,-23.74 -61.07,-36.69 -22.95,-14.37 -37.27,-23.98 -51.86,-45.98 -10.52,-15.88 -25.69,-49.37 -23.96,-73.91zm1119.82 138.93c4.48,-4.16 166.22,-81.3 186.08,-90.63 62.52,-29.39 124.92,-60.04 187.37,-89.93 62.5,-29.89 124.03,-60.8 186.91,-90.17l140.16 -67.37c12.33,-6.35 33.67,-17.69 45.54,-21.49 9.2,47.14 -15.62,78.1 -37.87,100.31 -3.57,3.56 -6.17,4.68 -9.76,8.08 -3.92,3.72 -4.99,4.58 -9.79,7.98 -26.11,18.45 -36.19,25.37 -68.2,38.55 -62.24,25.64 -174.52,81.27 -240.57,113.57l-190.81 92.41c-27.09,12.72 -129.85,64.64 -146.68,65.93 -6.15,-15.11 -36.63,-54.68 -42.39,-67.23zm-754.54 -23.91c-32.23,-15.04 -64.36,-30.87 -96.72,-45.65l-96.49 -45.78c-31.58,-16.24 -65.31,-30.03 -95.94,-46.4 -30.18,-16.13 -64.3,-32.16 -97.07,-45.16 -8.76,-3.47 -18.32,-5.39 -25.95,-9.59 -25.14,-13.83 -41.82,-25.37 -62.69,-44.03 -18.12,-16.22 -50.7,-58.04 -36.4,-99.56l749.52 361.57c-3.35,9.52 -39.26,53.94 -43.78,66 -9.92,-2.31 -179.52,-84.41 -194.48,-91.39zm-0.17 -288.35c9.19,-20.05 67.13,-83.89 87.93,-102.11l52.45 -42.46c185.43,-135.89 452.15,-156.5 653.95,-36.72 29.71,17.63 85.93,54.67 108.86,79.38 7.78,8.39 16.29,14.65 24.19,23.23 15.45,16.79 30.11,32.06 44.3,50.59l19.45 25.98c-5.06,5.46 -86.2,42.81 -99.94,49.89 -6.2,-6.52 -10.16,-12.67 -16.79,-20.06 -21.67,-24.16 -27.3,-32.52 -54.96,-56.19 -158.56,-135.7 -372.78,-159.92 -560.83,-60.14 -16.05,8.52 -31.5,18.59 -45.79,28.37 -44.73,30.61 -63.52,53.1 -96.44,88.8 -3.7,4.02 -12.89,15.34 -15.64,20.69l-100.74 -49.22zm-726.28 -227.3c-11.14,-14.11 -29.26,-53.52 -16.35,-77.28 9.42,2.64 24.65,11.5 34.5,16.13 71.28,33.51 164.47,77.21 230.96,111.38l132.04 63.62c44.41,20.93 87.5,42.62 132.15,63.56 132.54,62.15 263.13,128.65 394.64,192.26 9.66,4.68 124.63,60.05 130.7,64.66 -2.63,5.99 -7.07,11.4 -11,16.85 -9.41,13.07 -26.19,39.81 -34.24,49.53l-673.56 -324.02c-36.12,-19.03 -81.42,-38.11 -118.11,-56.83 -7.2,-3.67 -10.67,-3.98 -16.83,-6.84 -71.52,-33.14 -137.47,-52.95 -184.89,-113.01zm1473.68 399.24c22.19,-10.68 43.56,-21.54 65.58,-32.21 43.89,-21.26 86.32,-42.71 130.22,-63.91 173.2,-83.65 351.93,-172.29 525.73,-254l132.07 -63.58c14.77,-7.46 125.02,-61.6 131.54,-62.58 10.97,27.98 -4.14,59.8 -16.49,76.91 -12.09,16.74 -33.89,35.69 -51.84,47.47 -21.48,14.11 -38.54,23.11 -64.61,34.69l-336.37 158.64c-45.24,21.24 -89.31,43.34 -134.17,64.52 -36.29,17.13 -100.25,47.07 -133.84,64.66 -21.23,11.11 -45.18,21.87 -67.17,32.21l-167.09 80.45c-10.84,5.13 -22.2,12.11 -33.3,15.74l-45.88 -67.05 65.63 -31.97zm797.65 -240.84c10,-2.38 38.55,-16.26 49.96,-21.65 41.32,-19.53 78.99,-34.36 114.59,-63.3 7.2,-5.84 12.61,-10.88 19.13,-16.46 23.67,-20.28 47.32,-55.81 53.35,-88.76 6.06,-33.03 -1.15,-59.19 -14.2,-88.07 -3.61,-8 -8.17,-14.89 -11.44,-22.9l-720.51 346.91c-5.53,-4.43 -16.64,-22.22 -22.27,-29.19l-35.63 -42.94c-10.11,-11.8 -40,-39.49 -52.48,-51.23l-28.48 -23.41c-110.55,-85.61 -246.31,-138.63 -402.11,-138.08 -209.64,0.75 -397.5,99.16 -517.76,256.61 -5.6,7.33 -15.88,23.94 -21.87,29.21l-721.67 -347.02c-6.89,9 -18.61,35.5 -22.6,48.2 -6.13,19.55 -7.94,42.08 -3.43,63.51 7.7,36.53 23.69,55.72 45.39,79.02 13.61,14.62 31.86,29.45 48.57,40.35 32.1,20.92 105.98,55.16 142.42,69.46 -6.03,31.35 -12.78,46.37 -2.09,80.73 14.05,45.17 47.86,74.8 83.6,101.66 21.75,16.34 46.33,26.08 57.49,34.1 -1.39,44.93 3.68,80.72 23.83,114.33 12.97,21.65 28.49,38.96 47.49,54.79 33.95,28.26 63.21,43.62 104.79,65.59 9.44,4.99 88.79,43.34 90.28,46.13 7.96,14.99 4.33,152.22 139.93,325.46 13.52,17.27 29.84,34.38 44.14,49.24 13.75,14.28 32.34,30.66 48.88,44.47 81.34,67.93 203.86,127.32 322.2,141.62 113.28,13.69 225.91,2.82 323.59,-36.46 96.47,-38.81 154.46,-78.85 226.36,-145.68 60.03,-55.8 118.93,-150.37 147.77,-224.21 8.97,-22.94 16.36,-45.2 23.33,-70.07 7.39,-26.38 10.59,-50.37 15.69,-77.75 1.52,-8.16 5.58,-7.39 12.54,-11.15 5.36,-2.9 9.98,-5.74 15.24,-8.41 10.72,-5.46 19.52,-10.89 29.7,-16.22 55.62,-29.15 131.87,-66.67 168.35,-108.85 32.28,-37.31 38.64,-83.24 41.64,-143.65 5.19,-4.89 21.72,-11.97 29.15,-16.73 9.63,-6.17 19.37,-11.93 28.01,-17.98 33.8,-23.73 69.03,-58.68 81.4,-100.89 10.96,-37.42 2.55,-51.81 -2.27,-80.32z"/>
  <g id="_2187331210320">
   <path class="fil1" d="M2534.83 2736.29c-38.48,0 -84.39,-4.73 -137.72,-14.18l17.72 -91.64c14.85,4.39 35.78,8.6 62.78,12.66 27,4.05 48.44,6.07 64.3,6.07 5.4,0 11.31,-0.33 17.72,-1.01 6.41,-0.67 13.42,-1.94 21.01,-3.8 7.59,-1.86 13.93,-4.89 18.99,-9.11 5.06,-4.22 7.59,-9.2 7.59,-14.94 0,-9.79 -11.65,-15.19 -34.94,-16.2 -13.83,-0.68 -26.16,-1.61 -36.96,-2.79 -10.8,-1.18 -22.95,-3.63 -36.45,-7.34 -13.5,-3.72 -24.72,-8.52 -33.67,-14.43 -8.94,-5.91 -16.54,-14.09 -22.78,-24.56 -6.24,-10.46 -9.37,-22.61 -9.37,-36.46 0,-23.96 5.57,-46.5 16.71,-67.59 11.14,-21.1 26.67,-38.22 46.58,-51.39 32.74,-21.6 78.48,-32.41 137.22,-32.41 49.96,0 90.63,3.88 122.02,11.65l-17.72 89.62c-45.23,-10.13 -80.5,-15.19 -105.82,-15.19 -13.5,0 -28.1,2.02 -43.8,6.08 -15.69,4.05 -23.54,10.8 -23.54,20.25 0,3.38 4.73,6.41 14.18,9.12 6.41,1.69 20.25,4.22 41.52,7.59 13.5,2.02 24.39,3.88 32.66,5.57 8.27,1.69 18.48,4.64 30.63,8.86 12.15,4.22 21.69,9.11 28.61,14.68 6.92,5.57 13,13.08 18.23,22.53 5.23,9.45 7.85,20.42 7.85,32.91 0,23.96 -6.16,47.26 -18.48,69.87 -12.32,22.62 -28.44,40.17 -48.35,52.66 -34.09,21.94 -79.66,32.91 -136.71,32.91z"/>
   <path class="fil1" d="M2186.38 2733.25c-22.62,0 -43.72,-2.61 -63.29,-7.85 -19.57,-5.23 -37.21,-13.17 -52.91,-23.8 -15.7,-10.63 -28.1,-24.81 -37.22,-42.54 -9.11,-17.72 -13.67,-38.06 -13.67,-61.01 0,-33.75 8.02,-67.76 24.05,-102.02 16.04,-34.26 37.39,-61.19 64.05,-80.76 40.51,-30.72 95.19,-46.07 164.05,-46.07 41.19,0 89.61,6.53 130.8,16.31l-15.36 83.63c-40.5,-7.09 -78.81,-12.35 -98.72,-12.35 -21.94,0 -39.83,1.1 -53.67,3.29 -13.84,2.2 -26.75,6.67 -38.73,13.42 -11.98,6.75 -21.43,16.45 -28.35,29.11 -6.92,12.66 -12.41,29.11 -16.46,49.37 -3.37,15.86 -5.06,30.04 -5.06,42.53 0,21.94 5.82,36.29 17.46,43.04 11.65,6.75 29.45,10.12 53.42,10.12l15.7 -1.01 21.09 -3.22 9.96 -42.06 -55.83 -0.81 14.24 -77.31 155.29 0.1 -36.39 191.64c-60.76,12.15 -112.24,18.23 -154.43,18.23z"/>
   <polygon class="fil1" points="1532.06,2728.19 1410.04,2728.19 1478.9,2373.76 1600.93,2373.76 "/>
   <path class="fil1" d="M1045.58 2728.19l-145.31 0c-11.48,-109.03 -23.63,-227.17 -36.45,-354.43l120.5 0 11.64 243.54 4.56 0 92.66 -243.04 124.56 0 -4.05 243.04 5.06 0 104.3 -243.54 114.43 0 -165.57 354.43 -138.73 0 -3.54 -193.41 -5.06 0 -78.99 193.41z"/>
   <path class="fil1" d="M1950.07 2728.86l43.86 -230.81c16.32,-85.91 -14.95,-124.28 -100.84,-124.28 -42.41,0 -85.5,-4.55 -116.63,34.25l-5.15 0.02 5.66 -34.27 -125 0 -67.3 355.1 126.57 0 48.94 -258.3c29.84,0 59.68,0 89.53,0 11.02,0.28 20.83,10.55 18.38,27.37l-43.72 230.7 125.7 0.24z"/>
   <path class="fil0" d="M2818.09 2699.68c-1.65,13.06 -13.26,23.94 -28.24,22.14 -13.02,-1.57 -24.19,-13.48 -22.2,-28.7 1.68,-12.85 13.48,-23.61 28.41,-21.87 12.93,1.5 23.92,13.48 22.03,28.43zm-29.65 -34.49c-16.02,2.18 -29.55,16.88 -26.97,35.78 2.2,16.12 17.11,29.54 35.99,26.88 15.8,-2.23 29.14,-16.96 26.73,-35.58 -2.08,-16.06 -16.97,-29.64 -35.74,-27.09z"/>
   <path class="fil0" d="M2785.37 2694.28l0.03 -9.06c4.92,-0.18 13.09,-1.1 13.08,4.43 -0.01,5.61 -7.89,4.99 -13.11,4.63zm-6.85 19.16l6.87 0.06 0 -13.77c8.94,-0.73 9.28,6.41 13.97,13.67l8.34 0.09c-0.56,-1.51 -5.69,-10.1 -7.11,-11.89 -1.18,-1.48 -1.88,-1.85 -3.52,-2.76 0.91,-0.54 2.52,-0.77 3.57,-1.31 3.57,-1.82 5.58,-5.11 5.03,-9.58 -0.69,-5.65 -5.32,-8.09 -11.46,-8.09l-15.69 0.04 0 33.54z"/>
  </g>
 </g>
</svg>
