<?xml version="1.0" encoding="UTF-8"?>
<!DOCTYPE svg PUBLIC "-//W3C//DTD SVG 1.1//EN" "http://www.w3.org/Graphics/SVG/1.1/DTD/svg11.dtd">
<!-- Creator: CorelDRAW -->
<svg xmlns="http://www.w3.org/2000/svg" xml:space="preserve" width="3.59999in" height="3.59999in" version="1.1" style="shape-rendering:geometricPrecision; text-rendering:geometricPrecision; image-rendering:optimizeQuality; fill-rule:evenodd; clip-rule:evenodd"
viewBox="0 0 3599.99 3599.99"
 xmlns:xlink="http://www.w3.org/1999/xlink"
 xmlns:xodm="http://www.corel.com/coreldraw/odm/2003">
 <defs>
  <style type="text/css">
   <![CDATA[
    .fil0 {fill:none}
    .fil2 {fill:black;fill-rule:nonzero}
    .fil1 {fill:#E20613;fill-rule:nonzero}
   ]]>
  </style>
 </defs>
 <g id="Capa_x0020_1">
  <metadata id="CorelCorpID_0Corel-Layer"/>
  <rect class="fil0" x="-0.01" y="-0" width="3600" height="3600"/>
  <g id="_2357959860256">
   <path class="fil1" d="M1801.29 1751.43l-175.66 -233.31 301.69 0 46.8 -66.12 -395.47 0 -218.83 -294.32 879.03 0 -437.54 593.75zm-259.49 352.17l-438.13 -587.74 442.85 0 215.15 289.35 -219.87 298.4zm1046.55 -632.34c-5.42,-10.77 -16.45,-17.57 -28.5,-17.58l-408.78 0 -45.56 62.82 0 1.04 390.88 0 -434.38 584.51 -220.84 -297.04 486.6 -660.32c7.11,-9.69 8.2,-22.62 2.78,-33.35 -5.43,-10.73 -16.41,-17.52 -28.5,-17.52l-1005.7 0c-12.08,0 -23.07,6.79 -28.5,17.58 -5.43,10.79 -4.26,23.72 2.91,33.41l228.46 307.19 -459 0c-0.02,0 -0.05,0 -0.07,0 -17.61,0 -31.88,14.28 -31.88,31.88 0,6.89 2.24,13.6 6.37,19.11l501.85 673.25c6.02,8.08 15.52,12.86 25.59,12.86l0.06 0c10.08,0 19.58,-4.85 25.59,-12.99l233.89 -317.39 234.8 315.84c6.01,8.08 15.51,12.86 25.59,12.86 10.08,0 19.58,-4.78 25.59,-12.86l497.91 -669.95c7.18,-9.7 8.34,-22.62 2.91,-33.41l-0.06 0.06z"/>
   <path class="fil2" d="M468.56 2504.3l0 -117.24 -61.98 117.24 -34.38 0 -61.4 -117.24 0 117.24 -40.26 0 0 -153.95 68.12 0 51.64 101.98 51.06 -101.98 67.67 0 0 153.95 -40.46 0zm142.57 -59.78l60.3 0 -30.11 -60.94 -30.19 60.94zm-28.89 59.78l-47.7 0 78.46 -153.95 57.78 0 76.78 153.95 -47.24 0 -13.31 -27.92 -90.87 0 -13.9 27.92zm230.93 -46.41c0,6.14 1.87,10.15 5.69,12.02 4.2,1.55 9.63,2.33 16.29,2.33l20.3 0 28.76 -0.91c7.89,0 13.06,-1.1 15.44,-3.23 2.39,-2.13 3.62,-5.5 3.62,-10.08 0,-4.14 -1.35,-7.37 -4.07,-9.82 -2.78,-2.46 -8.01,-3.69 -15.7,-3.69l-6.98 0 -70.44 -1.87c-13.06,0 -22.43,-3.62 -28.05,-10.86 -5.36,-7.56 -8.01,-18.81 -8.01,-33.67 0,-12.6 1.68,-22.43 5.04,-29.41 3.36,-6.98 9.63,-11.89 18.74,-14.67 4.91,-1.43 10.34,-2.52 16.35,-3.36 5.94,-0.84 12.41,-1.23 19.26,-1.23l29.73 -0.71 29.93 0c6.2,0 11.57,0.2 16.16,0.71 4.59,0.45 8.79,1.36 12.73,2.59 7.17,1.87 12.28,5.62 15.32,11.18 3.04,5.56 4.98,10.66 5.88,15.25 0.91,4.59 1.36,10.86 1.36,18.74l-41.94 0c0,-5.23 -1.42,-8.98 -4.33,-11.18 -2.91,-2.2 -6.91,-3.36 -12.15,-3.36l-20.68 -0.26 -32.7 1.17c-4.07,0 -7.69,0.91 -10.86,2.71 -3.17,1.81 -4.72,4.85 -4.72,9.11 0,5.69 1.74,9.56 5.3,11.63 1.68,0.78 3.75,1.42 6.2,1.87 2.46,0.45 5.3,0.71 8.53,0.71l61.33 0c18.29,0 31.41,3.17 39.43,9.5 8.27,6.01 12.41,18.48 12.41,37.36 0,18.16 -3.68,30.63 -11.05,37.42 -7.37,6.78 -19.58,10.15 -36.58,10.15l-54.87 1.61 -28.7 -0.71c-15.31,0 -26.56,-2.65 -33.67,-8.02 -7.11,-5.36 -10.66,-16.16 -10.66,-32.38l0 -9.24 41.94 0 0.19 2.52 0.26 0.06zm207.27 0c0,6.14 1.87,10.15 5.69,12.02 4.2,1.55 9.63,2.33 16.29,2.33l20.3 0 28.76 -0.91c7.88,0 13.06,-1.1 15.44,-3.23 2.39,-2.13 3.62,-5.5 3.62,-10.08 0,-4.14 -1.35,-7.37 -4.07,-9.82 -2.78,-2.46 -8.01,-3.69 -15.7,-3.69l-6.98 0 -70.44 -1.87c-13.06,0 -22.43,-3.62 -28.05,-10.86 -5.36,-7.56 -8.01,-18.81 -8.01,-33.67 0,-12.6 1.68,-22.43 5.04,-29.41 3.36,-6.98 9.63,-11.89 18.74,-14.67 4.91,-1.43 10.34,-2.52 16.35,-3.36 5.94,-0.84 12.41,-1.23 19.26,-1.23l29.73 -0.71 29.93 0c6.2,0 11.57,0.2 16.16,0.71 4.59,0.45 8.85,1.36 12.73,2.59 7.17,1.87 12.28,5.62 15.32,11.18 3.04,5.56 4.97,10.66 5.88,15.25 0.91,4.59 1.36,10.86 1.36,18.74l-41.94 0c0,-5.23 -1.42,-8.98 -4.33,-11.18 -2.84,-2.2 -6.91,-3.36 -12.15,-3.36l-20.68 -0.26 -32.7 1.17c-4.07,0 -7.69,0.91 -10.86,2.71 -3.17,1.81 -4.72,4.85 -4.72,9.11 0,5.69 1.74,9.56 5.3,11.63 1.68,0.78 3.75,1.42 6.2,1.87 2.46,0.45 5.3,0.71 8.53,0.71l61.33 0c18.29,0 31.41,3.17 39.43,9.5 8.27,6.01 12.41,18.48 12.41,37.36 0,18.16 -3.68,30.63 -11.05,37.42 -7.37,6.78 -19.58,10.15 -36.58,10.15l-54.87 1.61 -28.7 -0.71c-15.31,0 -26.56,-2.65 -33.67,-8.02 -7.11,-5.36 -10.66,-16.16 -10.66,-32.38l0 -9.24 41.94 0 0.19 2.52 0.26 0.06zm323.92 -107.54l0 35.09 -114.07 0 0 26.3 106.44 0 0 30.44 -106.44 0 0 27.21 114.07 0 0 34.83 -156.92 0 0 -153.88 156.92 0zm219.94 0l-79.11 100.37 0 53.51 -42.98 0 0 -53.51 -80.33 -100.37 53.96 0 47.63 63.46 47.24 -63.46 53.58 0zm251.35 0l0 35.09 -108.71 0 0 26.3 108.71 0 0 30.5 -108.71 0 0 62.11 -43.69 0 0 -154.01 152.4 0zm186.52 0l0 35.09 -116.4 0 0 26.3 108.7 0 0 30.5 -108.7 0 0 27.28 116.4 0 0 34.83 -160.09 0 0 -154.01 160.09 0zm147.68 77.36c9.89,0 16.03,-1.3 18.48,-3.94 2.46,-2.65 3.69,-8.59 3.69,-17.77 0,-5.3 -0.45,-9.05 -1.42,-11.31 -0.91,-2.26 -2.91,-4.01 -5.88,-5.24l-7.11 -1.61 -79.36 0 0 39.94 71.67 0 -0.07 -0.06zm18.29 -77.36c17.39,0 29.67,3.62 36.78,10.86 3.75,3.56 6.53,8.4 8.4,14.61 1.87,6.14 2.78,13.96 2.78,23.39l0 2.59c0,6.46 -0.32,11.89 -1.04,16.22 -0.71,4.33 -2.13,8.28 -4.33,11.83 -2.13,3.55 -4.65,6.33 -7.56,8.33 -2,1.23 -8.02,3.75 -18.1,7.43 9.76,1.36 17.06,4.14 21.98,8.15 4.91,4.07 7.3,11.18 7.3,21.26l0 29.41 -44.34 -0 0 -14.67c0,-7.37 -0.58,-13.25 -1.81,-17.77 -1.23,-4.52 -6.92,-6.79 -17.13,-6.79l-72.9 0 0 39.23 -43.69 -0 0 -154.01 133.65 0 0 -0.06zm268.34 67.21l0.19 32.38c0,19.13 -3.04,33.28 -9.18,42.4 -6.07,9.11 -17.96,13.63 -35.61,13.63l-71.48 0c-16.35,0 -29.34,-1.16 -38.97,-3.43 -9.63,-2.33 -17.32,-7.63 -23.14,-15.9 -5.81,-8.21 -8.72,-20.74 -8.72,-37.55l-0.45 -19.45c0,-30.05 3.43,-50.86 10.34,-62.43 6.91,-11.57 23.07,-17.32 48.6,-17.32l32.7 -1.17 12.09 0 29.28 1.17c18.94,0 32.7,3.49 41.24,10.41 8.53,6.91 12.8,20.36 12.8,40.2l0 2.71 -42.59 0c0,-3.62 -0.45,-6.66 -1.42,-9.18 -0.97,-2.52 -2.59,-4.2 -4.98,-5.04 -2.39,-0.84 -5.3,-1.55 -8.72,-2.13l-10.8 0 -50.67 -0.91c-10.34,0 -16.87,2.78 -19.65,8.27 -2.72,5.56 -4.07,14.67 -4.07,27.41l0 14.41c0,10.73 1.3,18.61 3.88,23.72 2.59,5.11 6.53,8.14 11.83,9.05l11.63 1.17 49.31 0c7.43,0 13.25,-1.36 17.45,-4.01 4.14,-2.65 6.27,-7.69 6.27,-15.06l0 -4.46 -55.52 0 0 -28.89 98.37 0zm218.71 20.75l0 8.98c0,23.85 -5.94,39.62 -17.78,47.31 -11.83,7.69 -29.79,11.57 -53.9,11.57l-35.74 0c-9.89,0 -18.29,-0.26 -25.2,-0.71 -6.91,-0.45 -12.99,-1.29 -18.29,-2.52 -9.89,-2 -17.96,-7.5 -24.24,-16.42 -6.27,-8.92 -9.37,-22.75 -9.37,-41.43l0 -94.56 43.69 0 0 80.92c0,15.12 1.75,25.14 5.17,29.92 3.49,4.78 12.15,7.18 26.04,7.18l37.68 0c11.89,0 19.52,-2 22.88,-6.01 3.36,-4.01 5.04,-12.15 5.04,-24.37l0 -87.57 43.94 0 0 87.76 0.07 -0.06zm78.52 19.65c0,6.14 1.94,10.15 5.82,12.02 4.33,1.55 9.89,2.33 16.61,2.33l20.68 0 29.34 -0.91c8.08,0 13.31,-1.1 15.7,-3.23 2.45,-2.13 3.68,-5.49 3.68,-10.08 0,-4.13 -1.42,-7.43 -4.2,-9.82 -2.78,-2.46 -8.14,-3.69 -16.03,-3.69l-7.11 0 -71.87 -1.87c-13.38,0 -22.88,-3.62 -28.63,-10.86 -5.5,-7.56 -8.21,-18.81 -8.21,-33.67 0,-12.6 1.68,-22.43 5.17,-29.47 3.43,-6.98 9.82,-11.89 19.13,-14.67 5.04,-1.36 10.6,-2.52 16.68,-3.36 6.07,-0.84 12.67,-1.29 19.71,-1.29l30.38 -0.71 30.57 0c6.33,0 11.83,0.19 16.48,0.71 4.65,0.45 8.98,1.35 12.99,2.58 7.3,1.87 12.54,5.56 15.57,11.18 3.1,5.62 5.11,10.67 6.01,15.25 0.91,4.59 1.42,10.86 1.42,18.74l-42.85 0c0,-5.24 -1.48,-8.98 -4.39,-11.18 -2.97,-2.2 -7.11,-3.36 -12.41,-3.36l-21.07 -0.26 -33.35 1.16c-4.2,0 -7.82,0.91 -11.11,2.72 -3.23,1.81 -4.85,4.85 -4.85,9.11 0,5.69 1.81,9.57 5.37,11.63 1.68,0.78 3.81,1.42 6.33,1.87 2.52,0.45 5.43,0.71 8.72,0.71l62.63 0c18.68,0 32.06,3.17 40.26,9.5 8.46,6.01 12.67,18.48 12.67,37.42 0,18.16 -3.75,30.63 -11.31,37.42 -7.5,6.78 -19.97,10.15 -37.36,10.15l-55.97 1.61 -29.28 -0.71c-15.64,0 -27.08,-2.65 -34.32,-8.02 -7.24,-5.36 -10.86,-16.16 -10.86,-32.38l0 -9.24 42.85 0 0.19 2.52 0.19 0.13zm239.32 10.34l45.82 0c12.22,0 21.01,-1.42 26.5,-4.2 5.43,-2.78 8.21,-9.89 8.21,-21.39l0.45 -20.94c0,-6.98 -0.39,-12.99 -1.17,-18.09 -0.78,-5.11 -2.39,-8.85 -4.72,-11.18 -2.33,-2.33 -5.95,-3.88 -10.67,-4.65 -4.72,-0.78 -8.21,-1.23 -10.41,-1.29 -2.2,-0.06 -4.01,-0.13 -5.3,-0.13l-43.5 0c-10.21,0 -17.71,1.1 -22.62,3.3 -5.17,2 -8.15,6.72 -9.05,14.02l-1.1 17.52 0 10.47c0,14.15 1.49,23.78 4.52,28.82 3.04,5.04 10.67,7.56 23.01,7.56l0 0.19zm23.66 -119.63l34.83 0.71c25.53,0 43.04,4.52 52.41,13.57 9.44,9.05 14.09,27.15 14.09,54.35l0 7.37c0,31.93 -3.75,53.32 -11.18,64.11 -7.43,10.79 -26.3,16.22 -56.61,16.22l-32.9 0.91 -13.77 0 -29.73 -0.91c-16.48,0 -29.28,-4.07 -38.39,-12.15 -9.11,-8.08 -13.64,-21.13 -13.64,-39.23l-0.45 -28.44c0,-31.28 3.69,-51.77 11.05,-61.4 7.37,-9.63 25.14,-14.48 53.26,-14.48l31.02 -0.71 0 0.06zm263.3 155.69l-86.6 -115.69 0 115.69 -41.11 0 0 -154.01 69.54 0 86.54 115.43 0 -115.43 41.11 0 0 154.01 -69.48 0z"/>
  </g>
 </g>
</svg>
