<?xml version="1.0" encoding="UTF-8"?>
<!DOCTYPE svg PUBLIC "-//W3C//DTD SVG 1.1//EN" "http://www.w3.org/Graphics/SVG/1.1/DTD/svg11.dtd">
<!-- Creator: CorelDRAW -->
<svg xmlns="http://www.w3.org/2000/svg" xml:space="preserve" width="6.39999in" height="2.55906in" version="1.1" style="shape-rendering:geometricPrecision; text-rendering:geometricPrecision; image-rendering:optimizeQuality; fill-rule:evenodd; clip-rule:evenodd"
viewBox="0 0 6399.99 2559.06"
 xmlns:xlink="http://www.w3.org/1999/xlink"
 xmlns:xodm="http://www.corel.com/coreldraw/odm/2003">
 <defs>
  <style type="text/css">
   <![CDATA[
    .fil0 {fill:none}
    .fil1 {fill:#004389}
    .fil2 {fill:#004389;fill-rule:nonzero}
    .fil3 {fill:#004389;fill-rule:nonzero}
   ]]>
  </style>
 </defs>
 <g id="Capa_x0020_1">
  <metadata id="CorelCorpID_0Corel-Layer"/>
  <rect class="fil0" x="-0.01" y="0.47" width="6400" height="2559.06"/>
  <g id="_1210098368176">
   <path class="fil1" d="M3045.77 1248.69c86.59,-41.49 93.43,-122.35 63.07,-195.63l-750.67 349.88c-49.85,23.24 -82.28,10.69 -110.98,-34.95l-5.72 -7.99c-14.78,-21.44 -31.7,-45.45 -48.56,-69.39 -23.23,-32.98 -46.44,-65.95 -68.3,-98.29 -29.03,-42.98 -58.36,-84.17 -87.28,-124.77l-29.79 -41.99c-8.01,-11.31 -25.34,-35.69 -45.07,-62.65 -18.11,-24.72 -36.32,-48.9 -45.2,-58.56 -4.31,-4.68 -10.75,-10.39 -18.6,-14.34 -5.41,-2.72 -11.48,-4.64 -17.95,-4.75 -6.5,-0.09 -12.55,1.53 -17.9,3.99 -7.71,3.56 -14.04,8.83 -18.51,13.37 -4.2,4.3 -9.52,10.66 -14.93,17.56l-316.43 448.11c-36.43,55.31 -86.65,66.95 -141.14,41.59 -254.89,-118.65 -464.14,-220.35 -720.29,-343.13 -28.03,64.86 -29.76,151.62 66.74,194.74l580.75 289.52c59.05,28.02 134.94,53.69 196.95,39.16 78.09,-21.05 104.89,-62.87 144.56,-124.8l0.53 -0.84c18.61,-29.06 39.69,-60.98 60.77,-92.95 16.19,-24.56 32.52,-49.32 51.65,-78.96l84.17 -128.29 5.57 -8.48c22.61,-34.44 56.73,-30.17 75.49,1.61 1.87,3.17 4.04,6.17 6.04,9.26 68.65,105.27 139.28,210.78 206.37,317.19 14.91,23.78 24.06,38.39 45.91,59.58 62.44,70.52 133.22,61.62 215.63,18.24l653.11 -313.02z"/>
   <path class="fil1" d="M1184.44 762.31c-8.43,10.37 -16.07,20.25 -22.06,28.86l154.07 74.88 20.3 -25.39c8.03,-10.13 17.04,-20.01 26.33,-29.51 9.2,-9.41 18.52,-18.35 27.49,-26.87 1.68,-1.6 3.17,-3.31 4.59,-4.96 2.65,-3.06 5.23,-6.04 9.33,-9.41l14.47 -12.07c14.35,-11.96 28.67,-23.96 45.75,-36.24 10.49,-7.56 21.29,-14.83 32.46,-21.93 10.68,-6.84 22.14,-13.73 34.39,-20.7 103.7,-59.16 226.96,-90.04 350.13,-90.44 120.39,-0.39 240.85,28.34 343.04,88.28 21.87,12.8 36.94,22.04 51.18,31.62 14.52,9.76 27.99,19.72 46.62,33.91 14.61,12.38 30.61,26.38 44.51,39.48 8.46,9.09 15.42,15.78 22.15,22.19 12.97,12.45 25.04,24 43.63,48l4.37 5.53c2.11,2.61 4.45,5.51 6.78,8.5l153.71 -74.7c-5.24,-7.46 -12.01,-16.22 -19.52,-25.51 -26.19,-32.35 -60.98,-69.91 -76.82,-86.62 -47.26,-49.79 -106.32,-95.26 -170.15,-133.22 -66.02,-39.23 -137.04,-70.39 -205.3,-89.88 -135.57,-38.76 -273.07,-44.55 -403.65,-20.83 -133.22,24.19 -259.29,79.1 -368.8,161.03 -16.37,12.24 -33.04,25.75 -49.21,39.88 -15.66,13.67 -30.77,27.89 -44.66,42.12 -16.93,17.39 -49.46,52.42 -75.15,84z"/>
   <path class="fil1" d="M1017.69 1470.37c7.62,43.73 20.94,77.49 35.27,119.39 8.52,24.91 18.36,48.93 29.02,72.07 10.92,23.67 22.45,46 34.15,67.15 18.54,33.51 38.08,63.15 59.44,91.47 21.48,28.5 44.5,55.28 69.98,83.06 9.98,10.9 21.21,21.2 32.27,31.37 6.03,5.54 12.03,11.05 18.59,17.42 2.24,2.17 4.45,3.91 6.65,5.63 2.44,1.96 4.97,3.94 7.58,6.37 11.12,10.25 22.4,19.52 33.94,28.32 11.34,8.64 23.57,17.31 36.31,26.17 122.72,85.37 261.81,136.24 405.25,151.33 143.66,15.14 291.78,-5.49 432.29,-63.11 52.24,-21.41 108.76,-52.66 161.77,-89.27 50.97,-35.19 98.65,-75.31 136.07,-116.35 42.51,-46.58 80.05,-94.55 112.07,-146.05 31.94,-51.37 58.48,-106.35 79.11,-167.06 6.82,-20.1 20.27,-62.51 29.46,-100.04 2.59,-10.59 3.81,-15.3 5.48,-24.4l-205.87 107.57c-2.14,1.78 -2.29,3.94 -7.9,16.09l-2.72 5.89c-6.84,14.71 -14.48,29.62 -22.5,44.14 -8.74,15.84 -17.85,31.16 -26.79,45.24 -33.33,52.51 -54.22,74.41 -84.49,106.13l-18.54 19.56c-20.81,22.23 -53.15,48.03 -87.46,71.57 -36.63,25.12 -75.81,47.91 -105.8,61.16 -46.28,20.46 -92.45,37.2 -141.68,48.81 -49.17,11.58 -101.39,17.98 -159.79,17.74 -97.78,-0.41 -194.63,-21.35 -283.06,-59.56 -88.59,-38.22 -168.81,-93.87 -233.19,-163.59 -22.23,-24.08 -43.06,-49.61 -62.24,-76.76 -28.9,-40.9 -54.09,-82.62 -76.42,-125.34 -68.13,-38.06 -137.66,-74.75 -206.24,-112.11z"/>
   <g>
    <path class="fil2" d="M2296.46 1325.56l-60.47 -86.45 1108.96 -518.14c30.62,72.91 24.68,149 -65.69,192.95l-905.66 421.84c-51.71,26.15 -52.67,24.78 -77.13,-10.2z"/>
    <path class="fil2" d="M2182.95 1162.93l-60.82 -87.79 1448.57 -680.85c33.51,55.37 36.56,149.25 -68.95,195.17 -410.63,191.85 -843.03,386.61 -1243.15,582.26 -8.02,3.92 -14.89,7.06 -20.76,9.65 -36.37,16.05 -36.94,5.24 -54.89,-18.44z"/>
    <path class="fil2" d="M1463.61 1326.67l60.47 -86.45 -1108.96 -518.14c-30.62,72.92 -24.68,149 65.69,192.96l905.66 421.84c51.71,26.15 52.67,24.78 77.13,-10.2z"/>
    <path class="fil2" d="M1577.11 1164.04l60.82 -87.79 -1448.57 -680.85c-33.52,55.37 -36.56,149.26 68.95,195.18 410.63,191.85 843.03,386.61 1243.15,582.25 8.02,3.92 14.89,7.07 20.76,9.66 36.37,16.05 36.94,5.24 54.89,-18.44z"/>
   </g>
  </g>
  <g id="_1210098366256">
   <path class="fil3" d="M4180.99 1336.24l20.33 -94.05 -207.41 0 -20.84 99.64 90.49 0 -11.69 54.9 -146.41 0 44.74 -208.43 236.9 0 21.86 -101.67 -195.21 0c-129.13,0 -171.32,33.55 -199.28,164.71l-18.3 84.9c-27.96,131.16 6.61,164.71 136.24,164.71l42.2 0c129.12,0 178.94,-33.56 206.39,-164.71z"/>
   <polygon id="_1" class="fil3" points="4525.12,1498.41 4546.98,1396.74 4352.28,1396.74 4418.37,1086.63 4296.36,1086.63 4208.41,1498.41 "/>
   <path id="_2" class="fil3" d="M4975.51 1336.24l18.81 -87.94c27.45,-131.16 -7.63,-164.2 -136.75,-164.2l-54.91 0c-129.63,0 -178.44,33.04 -206.4,164.2l-18.81 87.94c-27.96,131.16 6.61,164.71 136.24,164.71l54.91 0c129.63,0 178.94,-33.56 206.91,-164.71zm-135.23 60.5l-153.52 0 44.74 -208.43 153.02 0 -44.23 208.43z"/>
   <path id="_3" class="fil3" d="M5416.23 1372.33c9.66,-43.21 3.05,-71.17 -27.96,-93.54 40.16,-24.4 53.89,-48.8 61.51,-86.93 14.24,-68.63 -15.25,-105.23 -97.09,-105.23l-261.81 0 -87.94 411.78 251.64 0c90.49,0 143.87,-40.67 161.66,-126.07zm-98.11 -124.55l-139.29 0 12.71 -59.48 139.29 0 -12.71 59.48zm-26.94 148.95l-144.37 0 12.71 -59.48 144.89 0 -13.22 59.48z"/>
   <path id="_4" class="fil3" d="M5867.12 1498.41l-58.46 -411.78 -162.68 0 -234.87 411.78 113.87 0 45.24 -77.78 168.27 0 11.18 77.78 117.43 0zm-143.36 -174.88l-98.11 0 78.29 -137.77 19.83 137.77z"/>
   <polygon id="_5" class="fil3" points="6221.93,1498.41 6243.79,1396.74 6049.09,1396.74 6115.17,1086.63 5993.17,1086.63 5905.22,1498.41 "/>
   <path class="fil3" d="M5675.67 996.29c-43.58,0 -95.57,-5.35 -155.97,-16.06l20.07 -103.79c16.82,4.97 40.52,9.74 71.11,14.33 30.58,4.59 54.85,6.88 72.82,6.88 6.12,0 12.81,-0.38 20.07,-1.15 7.26,-0.77 15.2,-2.2 23.8,-4.3 8.61,-2.1 15.78,-5.54 21.51,-10.32 5.73,-4.78 8.6,-10.41 8.6,-16.91 0,-11.09 -13.19,-17.2 -39.57,-18.35 -15.67,-0.76 -29.63,-1.82 -41.86,-3.15 -12.24,-1.34 -26,-4.11 -41.29,-8.31 -15.3,-4.21 -28,-9.65 -38.13,-16.34 -10.13,-6.69 -18.73,-15.96 -25.81,-27.81 -7.07,-11.85 -10.61,-25.61 -10.61,-41.28 0,-27.15 6.31,-52.66 18.92,-76.56 12.62,-23.89 30.2,-43.3 52.76,-58.2 37.08,-24.46 88.88,-36.7 155.4,-36.7 56.58,0 102.65,4.4 138.2,13.19l-20.07 101.5c-51.23,-11.47 -91.17,-17.2 -119.85,-17.2 -15.29,0 -31.82,2.29 -49.6,6.88 -17.78,4.59 -26.67,12.23 -26.67,22.93 0,3.83 5.36,7.26 16.06,10.32 7.26,1.91 22.94,4.78 47.02,8.6 15.3,2.29 27.62,4.4 36.99,6.31 9.37,1.91 20.93,5.26 34.69,10.04 13.76,4.78 24.56,10.32 32.4,16.63 7.84,6.31 14.72,14.81 20.65,25.52 5.93,10.7 8.89,23.13 8.89,37.28 0,27.14 -6.98,53.52 -20.93,79.13 -13.95,25.61 -32.21,45.49 -54.76,59.63 -38.61,24.85 -90.22,37.28 -154.83,37.28z"/>
   <path class="fil3" d="M5281.03 992.85c-25.61,0 -49.51,-2.96 -71.68,-8.89 -22.17,-5.93 -42.15,-14.91 -59.92,-26.95 -17.78,-12.04 -31.83,-28.1 -42.15,-48.17 -10.32,-20.07 -15.48,-43.1 -15.48,-69.1 0,-38.23 9.08,-76.74 27.24,-115.55 18.16,-38.8 42.34,-69.29 72.54,-91.46 45.87,-34.79 107.81,-52.18 185.79,-52.18 46.64,0 101.49,7.4 148.13,18.48l-17.4 94.72c-45.87,-8.03 -89.26,-13.99 -111.81,-13.99 -24.85,0 -45.11,1.24 -60.79,3.73 -15.67,2.48 -30.29,7.55 -43.86,15.2 -13.57,7.64 -24.28,18.63 -32.11,32.97 -7.83,14.34 -14.05,32.98 -18.64,55.91 -3.82,17.97 -5.73,34.02 -5.73,48.17 0,24.85 6.59,41.09 19.78,48.74 13.19,7.65 33.36,11.47 60.5,11.47l17.78 -1.15 23.89 -3.65 9.56 -40.44 -63.23 -0.92 17.85 -94.74 175.87 0.12 -41.22 217.04c-68.81,13.76 -127.11,20.64 -174.9,20.64z"/>
   <polygon class="fil3" points="4539.98,987.11 4401.78,987.11 4479.77,585.71 4617.97,585.71 "/>
   <path class="fil3" d="M3983.72 987.11l-164.58 0c-13,-123.48 -26.76,-257.28 -41.29,-401.41l136.48 0 13.19 275.82 5.16 0 104.94 -275.25 141.06 0 -4.59 275.25 5.73 0 118.13 -275.82 129.6 0 -187.52 401.41 -157.12 0 -4.01 -219.05 -5.74 0 -89.45 219.05z"/>
   <path class="fil3" d="M5013.4 987.88l49.67 -261.41c18.48,-97.3 -16.91,-140.76 -114.21,-140.76l-273.08 0 -76.22 402.17 143.35 0 55.43 -292.55c33.8,0 67.59,0 101.39,0 12.48,0.32 23.59,11.95 20.81,31l-49.51 261.28 142.36 0.27z"/>
   <polygon class="fil3" points="4158.1,1699.61 4179.45,1597.94 3799.7,1597.94 3777.84,1699.61 3906.96,1699.61 3840.88,2009.72 3962.89,2009.72 4028.97,1699.61 "/>
   <path id="_1_0" class="fil3" d="M4582.05 1717.91c17.79,-84.9 -8.64,-119.97 -106.25,-119.97l-253.68 0 -87.94 411.78 122.52 0 29.99 -141.33 139.8 0 -29.99 141.33 123.02 0 19.32 -92.02c11.19,-52.87 22.37,-87.44 -25.42,-112.85 36.09,-17.29 57.95,-37.62 68.63,-86.93zm-133.7 49.31l-140.31 0 14.74 -67.61 139.8 0 -14.23 67.61z"/>
   <path id="_2_1" class="fil3" d="M5012.6 2009.72l-58.46 -411.78 -162.68 0 -234.87 411.78 113.87 0 45.24 -77.78 168.27 0 11.18 77.78 117.43 0zm-143.36 -174.88l-98.11 0 78.29 -137.77 19.83 137.77z"/>
   <path id="_3_2" class="fil3" d="M5475.7 1844.5l17.79 -81.85c27.96,-131.16 -7.11,-164.71 -136.75,-164.71l-218.09 0 -87.94 411.78 218.59 0c129.13,0 178.94,-34.06 206.4,-165.22zm-135.22 63.55l-145.9 0 44.74 -208.43 145.39 0 -44.23 208.43z"/>
   <polygon id="_4_3" class="fil3" points="5831.52,2009.72 5853.39,1908.04 5646.48,1908.04 5658.17,1853.65 5857.96,1853.65 5878.8,1754.01 5679.52,1754.01 5691.22,1699.61 5897.61,1699.61 5919.47,1597.94 5590.56,1597.94 5502.61,2009.72 "/>
  </g>
 </g>
</svg>
