<?xml version="1.0" encoding="UTF-8"?>
<!DOCTYPE svg PUBLIC "-//W3C//DTD SVG 1.1//EN" "http://www.w3.org/Graphics/SVG/1.1/DTD/svg11.dtd">
<!-- Creator: CorelDRAW -->
<svg xmlns="http://www.w3.org/2000/svg" xml:space="preserve" width="3.59999in" height="3.59999in" version="1.1" style="shape-rendering:geometricPrecision; text-rendering:geometricPrecision; image-rendering:optimizeQuality; fill-rule:evenodd; clip-rule:evenodd"
viewBox="0 0 3599.99 3599.99"
 xmlns:xlink="http://www.w3.org/1999/xlink"
 xmlns:xodm="http://www.corel.com/coreldraw/odm/2003">
 <defs>
  <style type="text/css">
   <![CDATA[
    .fil0 {fill:none}
    .fil1 {fill:#0C0E0F}
    .fil2 {fill:white}
   ]]>
  </style>
 </defs>
 <g id="Capa_x0020_1">
  <metadata id="CorelCorpID_0Corel-Layer"/>
  <rect class="fil0" x="-0.01" y="-0" width="3600" height="3600"/>
  <g id="_2357955709008">
   <path class="fil1" d="M2434.28 997.42c-196.76,-94.46 -421.09,-147.58 -655.25,-147.58 -234.16,0 -458.47,53.12 -655.24,149.54 -68.89,165.3 -106.27,348.3 -106.27,537.21 0,190.87 37.39,371.9 106.27,539.15 196.77,94.45 421.08,149.54 655.24,149.54 234.16,0 458.49,-55.09 655.25,-149.54 68.89,-165.26 108.25,-348.27 108.25,-539.15 -0.02,-188.91 -39.35,-371.91 -108.25,-539.17l0 0z"/>
   <path class="fil2" d="M2387.05 1038.75c-182.98,-84.6 -391.59,-133.8 -608.03,-133.8 -216.44,0 -425.03,49.2 -608.03,133.8 -60.99,155.47 -94.45,322.71 -94.45,497.84 0,175.13 33.44,344.35 94.45,497.84 183,86.57 391.59,133.8 608.03,133.8 216.44,0 427,-47.22 608.03,-133.8 62.95,-153.5 96.41,-320.74 96.41,-497.84 0,-175.13 -35.4,-342.39 -96.41,-497.84z"/>
   <path class="fil1" d="M1566.5 1377.19c-31.48,64.94 -53.12,135.78 -62.97,216.46 -1.97,0 -17.72,1.98 -17.72,1.98 -68.87,5.91 -137.74,11.8 -204.65,37.37l3.93 25.59c110.2,135.78 277.45,218.42 277.45,218.42l-31.48 -61c-7.87,-5.9 -31.48,-11.81 -31.48,-11.81 -74.77,-23.61 -127.91,-122 -135.78,-137.74 61,0 116.1,17.7 167.26,35.42 35.42,9.85 68.88,21.64 102.32,25.59 59.03,9.83 120.04,0 177.09,-7.89 45.26,-5.89 88.57,-5.89 131.87,-1.98 5.88,5.91 51.14,61.01 96.41,84.62 55.09,27.55 214.48,76.73 222.35,78.7 3.92,1.98 64.94,64.93 104.28,135.78 -181.06,82.66 -383.7,125.91 -586.39,125.91 -202.68,0 -405.35,-43.27 -586.38,-125.91 -59.03,-153.48 -90.51,-314.84 -90.51,-480.13 0,-163.32 31.48,-324.69 90.51,-478.15 181.02,-82.66 383.7,-125.93 586.38,-125.93 204.65,0 407.33,43.29 586.39,125.93 59.03,153.48 90.5,314.83 90.5,478.15 0,0.33 0,0.98 0,1.3 0,148.93 -25.41,297.06 -74.79,437.47 -57.05,-98.4 -80.65,-127.91 -80.65,-127.91 -1.96,0 -80.68,-41.33 -100.36,-59.05 -15.76,-13.78 -23.59,-41.31 -33.46,-72.81 -11.81,-45.25 -27.52,-100.36 -70.82,-145.61l49.18 -19.69c-13.76,-92.47 -123.95,-151.5 -125.91,-151.5l-1.99 1.98c43.3,53.12 51.18,96.41 51.18,123.97 0,13.76 -1.96,23.59 -3.92,27.53 -11.82,-5.9 -92.49,-31.48 -279.42,-23.61 -25.59,0 -64.94,-1.96 -88.56,-23.61 -13.78,-11.81 -19.68,-31.48 -19.68,-53.13 0,-64.93 27.55,-151.52 31.48,-163.31l47.24 5.89c59.03,-31.48 80.67,-61 82.63,-64.93 -49.19,5.91 -114.11,17.7 -114.11,17.7 3.94,-9.85 15.74,-47.22 15.74,-88.55 0,-45.26 -13.77,-94.45 -70.84,-123.97l-3.95 1.98c1.98,1.96 33.44,37.38 33.44,84.6 0,13.78 -1.96,29.52 -7.87,43.29 -19.68,-5.89 -31.48,-7.85 -53.13,-7.85 -11.79,-39.37 -45.23,-70.85 -90.5,-86.59l-1.98 1.96c0,0 49.2,35.43 51.16,84.63 -23.61,1.96 -37.38,5.89 -66.9,13.76 -13.78,-19.67 -41.33,-35.42 -78.72,-39.35l0 3.95c0,0 43.29,13.76 51.16,47.22 -25.56,11.81 -57.05,29.51 -74.77,45.26l1.97 1.98c110.19,-41.33 212.51,-51.16 238.09,-19.67 5.9,5.89 7.87,11.8 7.87,19.67 0,7.85 -3.95,19.68 -11.81,31.48 -53.12,11.81 -135.76,33.44 -202.66,59.03l9.83 27.55c0,0 66.9,13.78 92.49,19.69 0,0 9.83,1.96 3.92,9.81l0.02 0.04zm-1223.04 1336.71c0,0 35.6,12.94 75.5,12.94 43.14,0 69.02,-6.45 84.11,-21.57 11.87,-11.86 17.26,-32.36 16.2,-63.61l0 -202.78 63.63 0 0 212.49c-1.07,93.81 -46.37,133.74 -152.07,133.74 -51.77,0 -87.37,-8.63 -87.37,-8.63l0 -62.58 0 0zm424.93 -213.53c101.38,0 160.7,53.93 160.7,144.52 0,64.71 -42.06,140.21 -160.7,140.21 -119.71,0 -161.77,-75.5 -161.77,-140.21 -0.02,-90.59 60.37,-144.52 161.77,-144.52zm98.14 141.3c0,-55 -35.58,-86.29 -98.14,-86.29 -62.56,0 -99.21,31.29 -99.21,86.29 0,76.55 62.54,87.37 99.21,87.37 36.67,0 98.14,-10.83 98.14,-87.37zm315.99 -134.82l0 107.84 -162.85 0 0 -107.84 -62.55 0 0 271.78 62.55 0 0 -108.94 162.85 0 0 108.94 63.64 0 0 -271.78 -63.64 0zm946.94 215.7l0 -52.86 144.5 0 0 -55 -144.5 0 0 -52.86 186.58 0 0 -54.98 -250.22 0 0 271.78 250.22 0 0 -56.08 -186.58 0zm282.58 0l0 -52.86 144.52 0 0 -55 -144.52 0 0 -52.86 187.63 0 0 -54.98 -250.21 0 0 271.78 250.21 0 0 -56.08 -187.63 0zm593.17 0l0 -52.86 144.52 0 0 -55 -144.52 0 0 -52.86 187.67 0 0 -54.98 -250.24 0 0 271.78 250.24 0 0 -56.08 -187.67 0zm-1154 -227.56c81.96,0 129.43,40.96 129.43,112.13 0,100.33 -80.88,115.42 -129.43,115.42l-89.52 0 0 -227.56 89.52 0zm0 -56.11l-152.07 0 0 339.75 152.07 0c142.37,0 191.97,-90.59 191.97,-167.17 -0.02,-107.87 -72.26,-172.59 -191.97,-172.59l0 0zm992.2 236.22c48.56,-11.85 65.78,-48.55 65.78,-80.91 0,-55 -35.58,-87.33 -97.04,-87.33l-177.95 0 0 271.76 62.53 0 0 -99.22 74.43 0 75.5 99.22 76.59 0 -79.84 -103.52zm-146.66 -51.77l0 -61.49 115.42 0c21.54,0 34.51,11.89 34.51,30.2 0,26.98 -21.57,31.29 -34.51,31.29l-115.42 0zm-1186.34 155.31l-163.96 -185.51 0 185.51 -62.53 0 0 -271.78 62.53 0 163.96 183.34 0 -183.34 62.54 0 0 271.78 -62.54 0z"/>
  </g>
 </g>
</svg>
