<?xml version="1.0" encoding="UTF-8"?>
<!DOCTYPE svg PUBLIC "-//W3C//DTD SVG 1.1//EN" "http://www.w3.org/Graphics/SVG/1.1/DTD/svg11.dtd">
<!-- Creator: CorelDRAW -->
<svg xmlns="http://www.w3.org/2000/svg" xml:space="preserve" width="162.56mm" height="91.4398mm" version="1.1" style="shape-rendering:geometricPrecision; text-rendering:geometricPrecision; image-rendering:optimizeQuality; fill-rule:evenodd; clip-rule:evenodd"
viewBox="0 0 16255.98 9143.98"
 xmlns:xlink="http://www.w3.org/1999/xlink"
 xmlns:xodm="http://www.corel.com/coreldraw/odm/2003">
 <defs>
  <style type="text/css">
   <![CDATA[
    .fil0 {fill:none}
    .fil3 {fill:black}
    .fil2 {fill:#779843}
    .fil4 {fill:#90A13E}
    .fil1 {fill:#779843;fill-rule:nonzero}
    .fil7 {fill:url(#id5)}
    .fil10 {fill:url(#id6)}
    .fil6 {fill:url(#id7)}
    .fil5 {fill:url(#id8)}
    .fil8 {fill:url(#id9)}
    .fil9 {fill:url(#id10)}
    .fil11 {fill:url(#id11)}
   ]]>
  </style>
     <clipPath id="id0">
      <path d="M10815.88 4250.99c0,0 195.89,288.72 64.74,649 -131.15,360.29 -156.33,632.35 -7.29,827.25 149.05,194.9 328.23,231.39 484.51,198.98 -141.27,-21 -210.25,-52.32 -227.2,-188.51 -11.66,-93.65 1.37,-227.35 120.7,-394.41 212.84,-297.97 493.1,-481.22 292.37,-1157.89 -222.24,-208.92 -351.99,-170.92 -509.48,-20.76 -85.22,81.26 -218.78,86.28 -218.35,86.34z"/>
     </clipPath>
     <clipPath id="id1">
      <path d="M11193.52 2763.97c0,0 363.32,205.3 176,484.43 265.61,-190.81 258.39,-504.15 -26.87,-670.51 -70.91,124.29 -149.13,186.08 -149.13,186.08z"/>
     </clipPath>
     <clipPath id="id2">
      <path d="M10862.2 3246.8c-91.44,-302.58 187.03,-340.41 295.04,-418.13 348.82,-222.71 244.08,-599.59 -11.43,-586.65 18.56,247.25 -293.07,256.06 -444.79,420.04 -281.06,301.33 -45.22,584.74 161.18,584.74z"/>
     </clipPath>
     <clipPath id="id3">
      <path d="M10831.97 3338.64c-508.14,89.62 -440.56,694.11 -111.07,906.32 393.03,253.13 547.35,-368.89 785.48,-364.38 -70.64,-29.47 -242.15,-152.95 -559.07,129.63 -87.03,-29.46 -602.2,-371.39 -115.34,-671.57z"/>
     </clipPath>
     <clipPath id="id4">
      <path d="M11317.56 3387.94c0,0 274.05,57.44 415.54,250.1 112.07,152.59 117.07,376.67 69.11,482.44 -104.16,229.75 -483.56,66.9 -608.69,-15.31 118.14,-206.54 275.14,-242.04 275.14,-242.04l143.07 61.63c23.55,-249.34 -81.98,-416.01 -294.17,-536.82z"/>
     </clipPath>
  <linearGradient id="id5" gradientUnits="userSpaceOnUse" x1="11393.19" y1="2841.51" x2="11329.94" y2="2656.64">
   <stop offset="0" style="stop-opacity:1; stop-color:#FFD754"/>
   <stop offset="1" style="stop-opacity:1; stop-color:#F2A222"/>
  </linearGradient>
  <radialGradient id="id6" gradientUnits="userSpaceOnUse" gradientTransform="matrix(1.07456 -0.473795 0.253865 0.575863 -1852 6938)" cx="11003.81" cy="4065" r="1375.46" fx="11003.81" fy="4065">
   <stop offset="0" style="stop-opacity:1; stop-color:#FFD754"/>
   <stop offset="1" style="stop-opacity:1; stop-color:#F2A222"/>
  </radialGradient>
  <radialGradient id="id7" gradientUnits="userSpaceOnUse" gradientTransform="matrix(-0.170668 0.603123 -1.76488 -0.446417 21739 177)" xlink:href="#id6" cx="11288.78" cy="4829.39" r="2846.34" fx="11288.78" fy="4829.39">
  </radialGradient>
  <radialGradient id="id8" gradientUnits="userSpaceOnUse" gradientTransform="matrix(0.271446 0.938575 -1.10543 0.270328 13782 -6252)" xlink:href="#id6" cx="10813.28" cy="5340.69" r="1890.13" fx="10813.28" fy="5340.69">
  </radialGradient>
  <radialGradient id="id9" gradientUnits="userSpaceOnUse" gradientTransform="matrix(0.618983 -0.0145711 0.0368539 0.629011 4053 1171)" xlink:href="#id6" cx="10901.94" cy="2728.53" r="1866.02" fx="10901.94" fy="2728.53">
  </radialGradient>
  <radialGradient id="id10" gradientUnits="userSpaceOnUse" gradientTransform="matrix(0.862563 0.889294 -1.17942 0.965013 5547 -9337)" xlink:href="#id6" cx="10635.92" cy="3463.8" r="385.72" fx="10635.92" fy="3463.8">
  </radialGradient>
  <radialGradient id="id11" gradientUnits="userSpaceOnUse" gradientTransform="matrix(0.635939 1.18594 -1.3494 0.658314 9199 -12548)" xlink:href="#id6" cx="11639.74" cy="3677.06" r="195.58" fx="11639.74" fy="3677.06">
  </radialGradient>
 </defs>
 <g id="Capa_x0020_1">
  <metadata id="CorelCorpID_0Corel-Layer"/>
  <rect class="fil0" x="-0.02" y="-0.01" width="16255.99" height="9143.99"/>
  <g id="_2711909385072">
   <path class="fil1" d="M7701 5443.08l-421.59 0c-29.08,0 -48.81,-3.45 -59.66,-10.36 -11.34,-7.39 -17.25,-19.72 -17.25,-35.99 0,-20.22 12.32,-36.49 36.49,-48.81 31.55,-19.24 52.76,-44.38 63.1,-75.44 8.88,-30.58 13.32,-89.75 13.32,-177.52l0 -1171.57c0,-68.54 -4.44,-112.92 -13.32,-133.14 -10.34,-21.2 -35.99,-41.41 -76.42,-60.65 -20.22,-10.36 -30.08,-23.66 -30.08,-40.43 0,-25.64 16.27,-41.91 48.81,-47.34 71.5,-14.79 131.17,-32.05 179.49,-52.26 43.89,-18.25 89.25,-45.36 135.6,-80.87 20.22,-17.25 36.49,-26.13 49.31,-26.13 30.57,0 45.85,21.69 45.85,65.09l0 1597.6c0,42.4 1.98,73.96 5.92,94.18 3.94,22.18 10.85,41.41 21.7,57.69 11.34,18.24 26.62,33.04 44.87,44.86 30.57,19.24 46.35,37.48 46.35,54.74 0,31.06 -24.16,46.35 -72.49,46.35z"/>
   <path class="fil2" d="M8663.02 5264.09c-43.39,71.99 -91.22,124.25 -144.48,155.81 -52.76,32.06 -118.34,47.83 -196.25,47.83 -126.22,0 -228.79,-40.92 -307.68,-122.77 -80.87,-82.84 -121.3,-186.39 -121.3,-310.65 0,-121.3 37.97,-221.39 113.91,-300.78 76.92,-79.88 172.08,-119.83 284.51,-119.83 50.29,0 96.15,9.87 137.56,29.1 40.44,19.23 71.01,46.84 92.21,82.35 21.21,35.5 31.56,77.41 31.56,125.73 0,33.53 -5.42,62.13 -17.25,85.31 -12.34,23.66 -27.13,35.99 -44.38,35.99 -8.88,0 -17.76,-7.88 -26.13,-23.17 -24.17,-50.3 -56.71,-74.96 -98.13,-74.96 -36,0 -64.6,14.31 -86.78,43.4 -23.18,29.58 -35.02,68.05 -35.02,115.38 0,55.72 16.28,102.07 47.83,138.56 32.06,35.5 71.99,53.74 119.82,53.74 56.21,0 101.58,-24.65 137.58,-73.96 35.5,-47.83 53.24,-109.96 53.24,-186.39 0,-82.83 -16.27,-207.59 -49.3,-374.24 -19.23,-95.18 -41.41,-161.74 -67.56,-199.22 -27.11,-38.45 -64.1,-57.68 -111.43,-57.68 -22.18,0 -40.93,6.41 -56.21,18.73 -16.27,13.32 -24.66,29.59 -24.66,47.83 0,20.22 11.84,37.47 34.52,51.78 18.74,11.83 27.61,22.68 27.61,33.52 0,18.25 -15.28,34.52 -46.34,48.82 -29.59,15.28 -64.6,23.18 -105.52,23.18 -73.97,0 -136.1,-25.15 -185.91,-74.95 -50.29,-50.29 -75.44,-111.93 -75.44,-184.91 0,-43.39 8.39,-84.31 24.66,-122.78 16.27,-36.98 35.01,-55.23 56.21,-55.23 12.82,0 30.58,4.93 53.75,14.79 59.66,23.18 114.39,34.52 164.69,34.52 39.45,0 77.42,-3.44 113.9,-9.86l101.08 -16.27c35.51,-4.44 64.11,-6.9 85.31,-6.9 98.13,0 175.04,30.07 231.26,90.72 54.73,59.67 91.71,152.87 110.95,279.09l106.99 685.89c4.94,31.06 10.35,53.74 15.78,68.04 5.91,19.23 14.3,35.01 24.65,47.83 9.87,11.34 21.7,21.7 36,31.56 33.03,20.22 49.31,39.94 49.31,59.17 0,30.08 -18.74,44.87 -56.22,44.87l-291.9 0c-31.07,0 -52.76,-7.4 -66.57,-21.7 -13.31,-12.32 -22.68,-35.99 -27.12,-71 -5.91,-41.91 -10.35,-71.01 -13.31,-86.29z"/>
   <path class="fil1" d="M10002.26 4811.93l0 -215.48c-49.81,61.64 -105.53,92.7 -167.17,92.7 -29.08,0 -56.21,-8.88 -80.86,-26.13 -25.15,-16.28 -37.97,-35.51 -37.97,-57.69 0,-9.86 4.44,-18.74 13.31,-27.62 7.4,-7.89 16.27,-11.34 26.14,-11.34 5.42,0 9.86,0.5 12.81,1.48 17.27,2.47 31.56,3.95 43.4,3.95 26.63,0 49.31,-10.36 67.55,-31.56 18.74,-21.2 27.61,-46.84 27.61,-76.43 0,-36.98 -11.82,-67.06 -35.99,-91.22 -24.16,-24.16 -55.22,-35.99 -94.18,-35.99 -46.84,0 -89.74,19.22 -128.2,57.69 -38.46,38.45 -69.03,90.73 -91.22,155.81 -23.17,64.6 -34.51,139.54 -34.51,224.36 0,123.76 23.66,224.35 70.51,300.29 48.31,76.92 109.95,115.38 184.9,115.38 46.35,0 89.25,-18.24 128.69,-54.73 36.49,-35.51 63.12,-83.34 79.39,-143 10.85,-40.44 15.79,-100.59 15.79,-180.47zm0 -540.43l0 -348.11c0,-49.32 -1.49,-83.83 -5.43,-104.04 -4.93,-23.18 -13.32,-40.44 -24.66,-51.78 -11.34,-11.84 -31.55,-24.16 -60.64,-37.97 -20.22,-10.36 -30.58,-23.66 -30.58,-40.43 0,-25.64 16.77,-41.91 49.31,-47.34 73.96,-14.79 134.62,-32.05 181.95,-52.26 46.35,-20.22 90.73,-47.34 133.13,-80.87 22.2,-17.25 38.47,-26.13 48.82,-26.13 31.07,0 46.35,21.69 46.35,65.09l0 1597.6c0,56.21 5.42,98.61 15.78,127.22 10.84,27.11 29.59,50.29 56.21,69.51 31.07,19.24 46.35,37.48 46.35,54.74 0,31.06 -24.16,46.35 -71.99,46.35l-307.69 0c-51.28,0 -76.91,-22.19 -76.91,-66.57l0 -12.82 0 -104.04c-41.92,71 -90.73,124.26 -145.47,158.78 -53.25,33.03 -118.83,49.3 -196.74,49.3 -91.22,0 -172.58,-26.13 -244.08,-77.91 -72.97,-53.24 -129.19,-125.24 -167.65,-216.95 -40.43,-91.23 -60.65,-195.26 -60.65,-312.12 0,-132.65 24.16,-255.42 72.49,-368.34 46.84,-110.45 111.93,-197.73 194.77,-261.33 82.84,-63.62 174.55,-95.17 274.64,-95.17 55.72,0 105.03,10.35 147.44,31.55 43.39,21.21 84.81,55.73 125.25,104.04z"/>
   <path class="fil1" d="M12236.57 4213.81l0 77.91c50.79,-53.74 101.58,-93.68 151.38,-119.81 51.28,-26.14 106.51,-38.96 166.17,-38.96 76.43,0 143.49,18.74 202.17,56.21 60.15,39.45 101.57,90.23 124.25,151.87 16.77,46.85 24.66,121.3 24.66,222.38l0 557.68c0,65.09 4.93,112.43 14.79,141.52 10.36,30.57 27.61,54.73 51.78,71.99l29.09 18.73c16.27,10.86 24.15,24.67 24.15,41.92 0,32.05 -24.15,47.83 -73.46,47.83l-417.64 0c-30.58,0 -50.8,-3.45 -60.66,-10.36 -11.34,-7.39 -17.25,-19.72 -17.25,-35.99 0,-18.25 7.89,-32.05 23.17,-41.91l21.7 -14.31c29.09,-20.2 47.83,-43.88 56.21,-71 8.87,-27.61 13.31,-75.44 13.31,-142.99l0 -27.12 0 -473.86c0,-60.65 -5.42,-105.52 -16.27,-134.61 -9.37,-29.59 -26.63,-53.26 -51.77,-70.51 -24.17,-17.26 -52.76,-26.13 -85.3,-26.13 -33.54,0 -64.6,10.35 -92.71,30.56 -28.6,22.68 -50.78,51.78 -66.07,86.3 -14.79,33.04 -21.7,81.85 -21.7,147.43l0 486.68c0,47.33 1.98,81.35 5.93,101.57 4.43,23.67 12.81,42.4 24.15,56.21 10.85,14.3 30.08,31.07 57.69,50.29 20.22,12.83 30.57,27.62 30.57,44.88 0,30.08 -24.16,44.87 -71.99,44.87l-420.6 0c-31.56,0 -52.27,-3.45 -62.13,-10.36 -11.34,-7.39 -17.26,-19.72 -17.26,-35.99 0,-11.34 2.47,-20.71 7.4,-27.12 7.4,-7.89 20.22,-17.76 37.47,-29.1 28.61,-20.2 47.83,-43.88 57.69,-71 8.39,-25.64 12.82,-73.47 12.82,-142.99l0 -27.12 0 -508.86c0,-66.08 -4.93,-110.45 -14.29,-132.65 -9.87,-23.17 -31.56,-43.39 -65.09,-60.65 -26.13,-14.29 -38.96,-29.58 -38.96,-44.87 0,-24.16 14.8,-39.45 44.88,-46.35l80.86 -18.73c76.92,-15.29 154.34,-53.26 232.74,-113.91 19.23,-15.28 35.5,-23.17 48.81,-23.17 33.04,0 49.31,21.2 49.31,63.6z"/>
   <path class="fil2" d="M6482.47 3479.19c-47.03,1 -55.37,48.81 -19.05,77.15 0,0 61.79,20.19 21.52,145.42 -151.28,468.38 -738.01,1484.9 -1129.85,1935.3 0,0 -1000.39,-606.31 -1962.76,-218.29 -962.37,388.03 -838.95,1478.21 183.67,1478.21 1022.62,0 1725.46,-782.1 1725.46,-782.1 728.43,356.56 2213.07,572.57 2474.79,-474.4 -642.49,642.72 -1697.3,377.41 -2129,114.55 150.76,-177.96 400.96,-562.77 556.89,-863.4l389.76 0 0.18 238.41c0,0 2.24,92.54 -52.3,165.93 -54.53,73.38 -81.82,82.95 -81.82,82.95 -22.34,9 -31.86,59.55 -1.71,63.81l618.67 0c30.93,-4.33 31.97,-64.78 0.43,-84.45 0,0 -135.2,-100.6 -134.68,-304.82 0.53,-204.2 -2.3,-1478.12 -2.3,-1478.12 10.83,-56.66 66.88,-101.03 -31.96,-96.15l-425.94 0zm-193.3 1218.77c200.27,-370.67 304.05,-665.56 304.05,-665.56l0.52 665.56 -304.57 0zm-1250.02 1292.2c0,0 -651.47,-325.99 -1171.32,-397.63 -1605.07,-221.22 -784.59,1962 1171.32,397.63z"/>
   <g>
    <path class="fil3" d="M11146.37 3456.66c0,64.34 -41.78,85.26 -41.78,170.2 0,34.9 11.66,68.05 32.75,81.75 23.74,15.43 62.49,22.58 86.4,1.8 -9.61,-2.23 -16.48,-3.62 -25.75,-6.74l-22.47 -11.57c-49.44,-33.91 -12.43,-92.38 6.46,-134.85l36.04 -80.01c9.71,-24.51 13.05,-66.16 7.18,-94.77 -2.13,-10.41 -4.86,-15.09 -9.2,-23.29l80.47 -63.44c-6.9,0.57 -73.68,27.32 -86.89,32.26 -4.46,1.66 -9.59,3.91 -13.69,4.87 -3.86,-2.83 -2.32,-2.73 -6.22,-6.16 -35.66,-31.26 -58.59,6.16 -89.72,6.16 -13.99,0 -64.1,-14.47 -80.47,-18.57 -13.51,-3.37 -25.37,-6.74 -39.31,-10.21 -10.99,-2.73 -30.86,-9.67 -41.16,-9.9 9.31,6.46 73.43,35.06 91.6,46.12 43.46,26.44 115.76,54.86 115.76,116.35z"/>
    <path class="fil4" d="M10815.88 4250.99c0,0 195.89,288.72 64.74,649 -131.15,360.29 -156.33,632.35 -7.29,827.25 149.05,194.9 328.23,231.39 484.51,198.98 -141.27,-21 -210.25,-52.32 -227.2,-188.51 -11.66,-93.65 1.37,-227.35 120.7,-394.41 212.84,-297.97 493.1,-481.22 292.37,-1157.89 -222.24,-208.92 -351.99,-170.92 -509.48,-20.76 -85.22,81.26 -218.78,86.28 -218.35,86.34z"/>
    <g style="clip-path:url(#id0)">
     <g>
      <path id="_1" class="fil5" d="M10771.55 4437.9c0,0 257.93,16.17 212.69,508.91 -45.23,492.74 -42.02,535.14 1.93,676.25 43.95,141.11 131.2,251.52 313.35,288.73 182.14,37.22 329.78,4.5 329.78,4.5l-310.61 51.77c0,0 -347.04,-0.01 -479.34,-164.9 -132.3,-164.89 -176.39,-446.74 -99.7,-684.49 76.69,-237.75 166.91,-354.7 139.76,-473.98 -27.16,-119.29 -107.86,-206.79 -107.86,-206.79z"/>
      <path class="fil6" d="M11157.24 4275.66c0,0 214.98,231.72 8.41,620.09 -206.57,388.37 -8.41,829.54 -8.41,829.54 0,0 -72.34,-19.8 117.99,-334.38 190.33,-314.58 261.81,-687.65 181.5,-953.01 -80.3,-265.35 -31.97,-306.13 -31.97,-306.13 0,0 -171.87,-129.55 -284.75,-24.37 -112.88,105.18 -45.15,87.22 -45.15,87.22l62.38 81.04z"/>
     </g>
    </g>
    <path class="fil0" d="M10815.88 4250.99c0,0 195.89,288.72 64.74,649 -131.15,360.29 -156.33,632.35 -7.29,827.25 149.05,194.9 328.23,231.39 484.51,198.98 -141.27,-21 -210.25,-52.32 -227.2,-188.51 -11.66,-93.65 1.37,-227.35 120.7,-394.41 212.84,-297.97 493.1,-481.22 292.37,-1157.89 -222.24,-208.92 -351.99,-170.92 -509.48,-20.76 -85.22,81.26 -218.78,86.28 -218.35,86.34z"/>
    <path class="fil7" d="M11193.52 2763.97c0,0 363.32,205.3 176,484.43 265.61,-190.81 258.39,-504.15 -26.87,-670.51 -70.91,124.29 -149.13,186.08 -149.13,186.08z"/>
    <g style="clip-path:url(#id1)">
     <g>
      <path id="_1_0" class="fil4" d="M11378.19 2577.89c0,0 97.6,144.47 79.22,311.14 -18.39,166.68 -134.49,235.64 -134.49,235.64l18.39 185.07 288.52 -187.37 -43.69 -427.6 -207.95 -116.88z"/>
     </g>
    </g>
    <path class="fil0" d="M11193.52 2763.97c0,0 363.32,205.3 176,484.43 265.61,-190.81 258.39,-504.15 -26.87,-670.51 -70.91,124.29 -149.13,186.08 -149.13,186.08z"/>
    <path class="fil4" d="M10862.2 3246.8c-91.44,-302.58 187.03,-340.41 295.04,-418.13 348.82,-222.71 244.08,-599.59 -11.43,-586.65 18.56,247.25 -293.07,256.06 -444.79,420.04 -281.06,301.33 -45.22,584.74 161.18,584.74z"/>
    <g style="clip-path:url(#id2)">
     <g>
      <path id="_1_1" class="fil8" d="M11133.33 2263.24c0,0 75.42,174.57 -120.34,268.99 -195.76,94.42 -312.4,236.46 -312.4,380.91 0,144.46 40.18,250.52 155.87,339.67 115.7,89.15 22.2,-155.7 22.2,-155.7 0,0 -55.02,-115.44 43.56,-231.15 98.58,-115.71 287.14,-260.54 305.44,-399.85 18.3,-139.32 -58.79,-130.95 -86.7,-237.35 -8.16,-31.12 -12.8,-42.91 -15.26,-44 -5.96,-2.63 7.63,78.48 7.63,78.48z"/>
     </g>
    </g>
    <path class="fil0" d="M10862.2 3246.8c-91.44,-302.58 187.03,-340.41 295.04,-418.13 348.82,-222.71 244.08,-599.59 -11.43,-586.65 18.56,247.25 -293.07,256.06 -444.79,420.04 -281.06,301.33 -45.22,584.74 161.18,584.74z"/>
    <path class="fil4" d="M10831.97 3338.64c-508.14,89.62 -440.56,694.11 -111.07,906.32 393.03,253.13 547.35,-368.89 785.48,-364.38 -70.64,-29.47 -242.15,-152.95 -559.07,129.63 -87.03,-29.46 -602.2,-371.39 -115.34,-671.57z"/>
    <g style="clip-path:url(#id3)">
     <g>
      <path id="_1_2" class="fil9" d="M10630.06 3411.35c0,0 -158.01,123.06 28.04,335.78 186.06,212.72 -67.73,-90.35 12.18,-229.72 79.92,-139.38 178.32,-179.37 205.2,-183.34 26.87,-3.96 -123.09,-6.76 -200,29.5 -76.91,36.27 -45.42,47.78 -45.42,47.78z"/>
      <path class="fil10" d="M10462.11 4049.65c8.04,-18.09 180.74,253.31 547.4,-94.91 366.66,-348.23 536,-84.01 536,-84.01l-561.27 484.56 -354.65 -69.02 -167.48 -236.62z"/>
     </g>
    </g>
    <path class="fil0" d="M10831.97 3338.64c-508.14,89.62 -440.56,694.11 -111.07,906.32 393.03,253.13 547.35,-368.89 785.48,-364.38 -70.64,-29.47 -242.15,-152.95 -559.07,129.63 -87.03,-29.46 -602.2,-371.39 -115.34,-671.57z"/>
    <path class="fil11" d="M11317.56 3387.94c0,0 274.05,57.44 415.54,250.1 112.07,152.59 117.07,376.67 69.11,482.44 -104.16,229.75 -483.56,66.9 -608.69,-15.31 118.14,-206.54 275.14,-242.04 275.14,-242.04l143.07 61.63c23.55,-249.34 -81.98,-416.01 -294.17,-536.82z"/>
    <g style="clip-path:url(#id4)">
     <g>
      <path id="_1_3" class="fil4" d="M11470.97 3864.19l15.74 6.72 75.92 30.83c11.99,4.86 29.54,13.85 49.1,23.02 41.05,19.26 110.06,43.29 255.71,18.78 3.82,36.52 -12.75,71.65 -12.75,71.65 -5.93,150.14 -60.19,243.59 -207.28,257.66 -184.96,17.7 -321.93,-50.63 -469.39,-141.06 0,0 103.03,-164.16 196.8,-224.72 93.77,-60.57 80.97,-40.12 80.97,-40.12l15.18 -2.76z"/>
     </g>
    </g>
    <path class="fil0" d="M11317.56 3387.94c0,0 274.05,57.44 415.54,250.1 112.07,152.59 117.07,376.67 69.11,482.44 -104.16,229.75 -483.56,66.9 -608.69,-15.31 118.14,-206.54 275.14,-242.04 275.14,-242.04l143.07 61.63c23.55,-249.34 -81.98,-416.01 -294.17,-536.82z"/>
   </g>
  </g>
 </g>
</svg>
