<?xml version="1.0" encoding="UTF-8"?>
<!DOCTYPE svg PUBLIC "-//W3C//DTD SVG 1.1//EN" "http://www.w3.org/Graphics/SVG/1.1/DTD/svg11.dtd">
<!-- Creator: CorelDRAW -->
<svg xmlns="http://www.w3.org/2000/svg" xml:space="preserve" width="162.56mm" height="91.4398mm" version="1.1" style="shape-rendering:geometricPrecision; text-rendering:geometricPrecision; image-rendering:optimizeQuality; fill-rule:evenodd; clip-rule:evenodd"
viewBox="0 0 16255.98 9143.98"
 xmlns:xlink="http://www.w3.org/1999/xlink"
 xmlns:xodm="http://www.corel.com/coreldraw/odm/2003">
 <defs>
  <style type="text/css">
   <![CDATA[
    .fil4 {fill:none}
    .fil0 {fill:black}
    .fil11 {fill:#779843}
    .fil1 {fill:#90A13E}
    .fil10 {fill:#779843;fill-rule:nonzero}
    .fil5 {fill:url(#id5)}
    .fil8 {fill:url(#id6)}
    .fil9 {fill:url(#id7)}
    .fil3 {fill:url(#id8)}
    .fil7 {fill:url(#id9)}
    .fil2 {fill:url(#id10)}
    .fil6 {fill:url(#id11)}
   ]]>
  </style>
     <clipPath id="id0">
      <path d="M7822.65 4701.16c0,0 214.98,316.85 71.05,712.24 -143.93,395.38 -171.56,693.95 -8,907.84 163.57,213.89 360.22,253.94 531.72,218.37 -155.04,-23.04 -230.74,-57.42 -249.34,-206.88 -12.79,-102.77 1.51,-249.5 132.46,-432.83 233.58,-327.01 541.15,-528.11 320.86,-1270.7 -243.9,-229.29 -386.28,-187.58 -559.12,-22.79 -93.53,89.17 -240.09,94.69 -239.63,94.75z"/>
     </clipPath>
     <clipPath id="id1">
      <path d="M8237.09 3069.26c0,0 398.72,225.3 193.15,531.62 291.49,-209.39 283.56,-553.27 -29.5,-735.84 -77.81,136.41 -163.65,204.22 -163.65,204.22z"/>
     </clipPath>
     <clipPath id="id2">
      <path d="M7873.49 3599.13c-100.35,-332.06 205.25,-373.57 323.79,-458.87 382.8,-244.41 267.86,-658 -12.55,-643.81 20.37,271.34 -321.63,281.01 -488.13,460.97 -308.44,330.69 -49.63,641.71 176.89,641.71z"/>
     </clipPath>
     <clipPath id="id3">
      <path d="M7840.31 3699.92c-557.65,98.35 -483.49,761.73 -121.89,994.62 431.32,277.8 600.68,-404.83 862.01,-399.88 -77.52,-32.34 -265.74,-167.86 -613.54,142.26 -95.51,-32.33 -660.87,-407.57 -126.58,-737z"/>
     </clipPath>
     <clipPath id="id4">
      <path d="M8373.21 3754.03c0,0 300.75,63.04 456.03,274.46 122.99,167.46 128.48,413.38 75.86,529.45 -114.31,252.13 -513.41,84.32 -650.74,-5.9 129.65,-226.65 284.68,-276.54 284.68,-276.54l157 67.64c25.85,-273.63 -89.96,-456.54 -322.83,-589.11z"/>
     </clipPath>
  <linearGradient id="id5" gradientUnits="userSpaceOnUse" x1="8456.21" y1="3154.35" x2="8386.8" y2="2951.47">
   <stop offset="0" style="stop-opacity:1; stop-color:#FFD754"/>
   <stop offset="1" style="stop-opacity:1; stop-color:#F2A222"/>
  </linearGradient>
  <radialGradient id="id6" gradientUnits="userSpaceOnUse" gradientTransform="matrix(1.07456 -0.473785 0.253864 0.575851 -1740 5711)" cx="8028.89" cy="4497.05" r="1375.46" fx="8028.89" fy="4497.05">
   <stop offset="0" style="stop-opacity:1; stop-color:#FFD754"/>
   <stop offset="1" style="stop-opacity:1; stop-color:#F2A222"/>
  </radialGradient>
  <radialGradient id="id7" gradientUnits="userSpaceOnUse" gradientTransform="matrix(0.617866 1.18597 -1.31103 0.658318 8676 -8964)" xlink:href="#id6" cx="8731.97" cy="4072.54" r="215.46" fx="8731.97" fy="4072.54">
  </radialGradient>
  <radialGradient id="id8" gradientUnits="userSpaceOnUse" gradientTransform="matrix(-0.170654 0.603128 -1.76474 -0.446421 19182 2687)" xlink:href="#id6" cx="8341.63" cy="5335.92" r="2846.34" fx="8341.63" fy="5335.92">
  </radialGradient>
  <radialGradient id="id9" gradientUnits="userSpaceOnUse" gradientTransform="matrix(0.862597 0.889262 -1.17947 0.964978 5574 -6646)" xlink:href="#id6" cx="7625.16" cy="3837.28" r="385.72" fx="7625.16" fy="3837.28">
  </radialGradient>
  <radialGradient id="id10" gradientUnits="userSpaceOnUse" gradientTransform="matrix(0.271445 0.938572 -1.10542 0.270327 12216 -3037)" xlink:href="#id6" cx="7819.81" cy="5897.03" r="1890.13" fx="7819.81" fy="5897.03">
  </radialGradient>
  <radialGradient id="id11" gradientUnits="userSpaceOnUse" gradientTransform="matrix(0.618998 -0.0145709 0.0368548 0.629002 2905 1240)" xlink:href="#id6" cx="7917.1" cy="3030.36" r="1866.02" fx="7917.1" fy="3030.36">
  </radialGradient>
 </defs>
 <g id="Capa_x0020_1">
  <metadata id="CorelCorpID_0Corel-Layer"/>
  <g id="_2711962013520">
   <g>
    <path class="fil0" d="M8185.34 3829.43c0,70.62 -45.85,93.57 -45.85,186.79 0,38.31 12.81,74.68 35.94,89.72 26.06,16.93 68.58,24.78 94.82,1.98 -10.54,-2.46 -18.08,-3.98 -28.26,-7.41l-24.66 -12.69c-54.25,-37.22 -13.64,-101.38 7.1,-147.99l39.55 -87.8c10.65,-26.91 14.31,-72.61 7.88,-104.01 -2.34,-11.43 -5.34,-16.57 -10.1,-25.57l88.31 -69.61c-7.57,0.62 -80.86,29.98 -95.36,35.4 -4.89,1.82 -10.52,4.3 -15.03,5.35 -4.23,-3.11 -2.54,-3.01 -6.82,-6.76 -39.13,-34.31 -64.29,6.76 -98.46,6.76 -15.35,0 -70.34,-15.89 -88.31,-20.38 -14.83,-3.7 -27.84,-7.41 -43.13,-11.21 -12.07,-2.99 -33.87,-10.61 -45.17,-10.86 10.21,7.09 80.58,38.48 100.52,50.61 47.69,29.02 127.03,60.21 127.03,127.68z"/>
    <path class="fil1" d="M7822.65 4701.16c0,0 214.98,316.85 71.05,712.24 -143.93,395.38 -171.56,693.95 -8,907.84 163.57,213.89 360.22,253.94 531.72,218.37 -155.04,-23.04 -230.74,-57.42 -249.34,-206.88 -12.79,-102.77 1.51,-249.5 132.46,-432.83 233.58,-327.01 541.15,-528.11 320.86,-1270.7 -243.9,-229.29 -386.28,-187.58 -559.12,-22.79 -93.53,89.17 -240.09,94.69 -239.63,94.75z"/>
    <g style="clip-path:url(#id0)">
     <g>
      <path id="_1" class="fil2" d="M7774.01 4906.29c0,0 283.05,17.73 233.41,558.48 -49.64,540.75 -46.11,587.28 2.12,742.14 48.23,154.86 143.98,276.03 343.88,316.87 199.89,40.84 361.9,4.93 361.9,4.93l-340.87 56.81c0,0 -380.85,0 -526.04,-180.96 -145.18,-180.95 -193.58,-490.26 -109.41,-751.18 84.16,-260.91 183.17,-389.26 153.37,-520.17 -29.8,-130.9 -118.36,-226.92 -118.36,-226.92z"/>
      <path class="fil3" d="M8197.28 4728.23c0,0 235.92,254.3 9.23,680.51 -226.7,426.21 -9.23,910.36 -9.23,910.36 0,0 -79.4,-21.73 129.48,-366.96 208.87,-345.23 287.32,-754.65 199.19,-1045.85 -88.13,-291.21 -35.09,-335.97 -35.09,-335.97 0,0 -188.62,-142.17 -312.5,-26.74 -123.87,115.42 -49.55,95.72 -49.55,95.72l68.47 88.93z"/>
     </g>
    </g>
    <path class="fil4" d="M7822.65 4701.16c0,0 214.98,316.85 71.05,712.24 -143.93,395.38 -171.56,693.95 -8,907.84 163.57,213.89 360.22,253.94 531.72,218.37 -155.04,-23.04 -230.74,-57.42 -249.34,-206.88 -12.79,-102.77 1.51,-249.5 132.46,-432.83 233.58,-327.01 541.15,-528.11 320.86,-1270.7 -243.9,-229.29 -386.28,-187.58 -559.12,-22.79 -93.53,89.17 -240.09,94.69 -239.63,94.75z"/>
    <path class="fil5" d="M8237.09 3069.26c0,0 398.72,225.3 193.15,531.62 291.49,-209.39 283.56,-553.27 -29.5,-735.84 -77.81,136.41 -163.65,204.22 -163.65,204.22z"/>
    <g style="clip-path:url(#id1)">
     <g>
      <path id="_1_0" class="fil1" d="M8439.75 2865.04c0,0 107.12,158.55 86.94,341.46 -20.19,182.92 -147.59,258.6 -147.59,258.6l20.18 203.1 316.63 -205.62 -47.94 -469.26 -228.22 -128.28z"/>
     </g>
    </g>
    <path class="fil4" d="M8237.09 3069.26c0,0 398.72,225.3 193.15,531.62 291.49,-209.39 283.56,-553.27 -29.5,-735.84 -77.81,136.41 -163.65,204.22 -163.65,204.22z"/>
    <path class="fil1" d="M7873.49 3599.13c-100.35,-332.06 205.25,-373.57 323.79,-458.87 382.8,-244.41 267.86,-658 -12.55,-643.81 20.37,271.34 -321.63,281.01 -488.13,460.97 -308.44,330.69 -49.63,641.71 176.89,641.71z"/>
    <g style="clip-path:url(#id2)">
     <g>
      <path id="_1_1" class="fil6" d="M8171.04 2519.74c0,0 82.76,191.58 -132.07,295.2 -214.83,103.62 -342.83,259.49 -342.83,418.02 0,158.53 44.08,274.93 171.05,372.77 126.97,97.84 24.36,-170.88 24.36,-170.88 0,0 -60.38,-126.68 47.81,-253.67 108.18,-126.98 315.11,-285.92 335.2,-438.81 20.08,-152.89 -64.52,-143.7 -95.15,-260.47 -8.96,-34.16 -14.05,-47.09 -16.75,-48.28 -6.54,-2.89 8.38,86.12 8.38,86.12z"/>
     </g>
    </g>
    <path class="fil4" d="M7873.49 3599.13c-100.35,-332.06 205.25,-373.57 323.79,-458.87 382.8,-244.41 267.86,-658 -12.55,-643.81 20.37,271.34 -321.63,281.01 -488.13,460.97 -308.44,330.69 -49.63,641.71 176.89,641.71z"/>
    <path class="fil1" d="M7840.31 3699.92c-557.65,98.35 -483.49,761.73 -121.89,994.62 431.32,277.8 600.68,-404.83 862.01,-399.88 -77.52,-32.34 -265.74,-167.86 -613.54,142.26 -95.51,-32.33 -660.87,-407.57 -126.58,-737z"/>
    <g style="clip-path:url(#id3)">
     <g>
      <path id="_1_2" class="fil7" d="M7618.73 3779.71c0,0 -173.41,135.05 30.78,368.49 204.18,233.45 -74.34,-99.14 13.36,-252.1 87.7,-152.95 195.69,-196.85 225.19,-201.2 29.49,-4.34 -135.08,-7.42 -219.49,32.38 -84.4,39.8 -49.84,52.43 -49.84,52.43z"/>
      <path class="fil8" d="M7434.41 4480.2c8.83,-19.85 198.36,277.99 600.74,-104.16 402.38,-382.15 588.23,-92.19 588.23,-92.19l-615.96 531.77 -389.21 -75.74 -183.8 -259.68z"/>
     </g>
    </g>
    <path class="fil4" d="M7840.31 3699.92c-557.65,98.35 -483.49,761.73 -121.89,994.62 431.32,277.8 600.68,-404.83 862.01,-399.88 -77.52,-32.34 -265.74,-167.86 -613.54,142.26 -95.51,-32.33 -660.87,-407.57 -126.58,-737z"/>
    <path class="fil9" d="M8373.21 3754.03c0,0 300.75,63.04 456.03,274.46 122.99,167.46 128.48,413.38 75.86,529.45 -114.31,252.13 -513.41,84.32 -650.74,-5.9 129.65,-226.65 284.68,-276.54 284.68,-276.54l157 67.64c25.85,-273.63 -89.96,-456.54 -322.83,-589.11z"/>
    <g style="clip-path:url(#id4)">
     <g>
      <path id="_1_3" class="fil1" d="M8541.57 4276.67l17.28 7.37 83.31 33.84c13.16,5.34 32.42,15.2 53.88,25.26 45.06,21.14 120.79,47.51 280.63,20.62 4.19,40.08 -13.99,78.63 -13.99,78.63 -6.51,164.77 -66.05,267.31 -227.48,282.76 -202.98,19.43 -353.29,-55.56 -515.12,-154.8 0,0 113.07,-180.16 215.98,-246.62 102.9,-66.47 88.86,-44.03 88.86,-44.03l16.65 -3.03z"/>
     </g>
    </g>
    <path class="fil4" d="M8373.21 3754.03c0,0 300.75,63.04 456.03,274.46 122.99,167.46 128.48,413.38 75.86,529.45 -114.31,252.13 -513.41,84.32 -650.74,-5.9 129.65,-226.65 284.68,-276.54 284.68,-276.54l157 67.64c25.85,-273.63 -89.96,-456.54 -322.83,-589.11z"/>
   </g>
   <g>
    <path class="fil10" d="M6194.1 7136.48c-41.42,11.67 -83.58,12.81 -126.51,3.46 -42.89,-9.34 -82.23,-29.5 -117.98,-60.47 -34.48,-29.84 -61.58,-63.5 -81.33,-100.92 -19.75,-37.39 -30.77,-76.24 -33.01,-116.43 -2.25,-40.2 4.41,-81.66 19.99,-124.47 15.55,-42.69 41.43,-84.92 77.58,-126.67 36.16,-41.71 74.6,-73.05 115.37,-93.98 40.73,-20.94 81.49,-32.85 122.3,-35.75 40.77,-2.94 80.93,2.57 120.43,16.53 39.5,13.95 76.19,35.54 109.94,64.8 33.79,29.26 58.19,62.03 73.21,98.19 14.98,36.24 23.67,70.39 25.95,102.55l153.2 -176.83c8.65,-9.95 12.41,-22.64 11.26,-38.11 -1.1,-15.47 -6.61,-27.47 -16.56,-36.12l-11.92 -10.28 -1.06 -14.85 37.87 -43.71 14.85 -1.02 234.45 203.15 1.06 14.77 -37.87 43.7 -14.81 1.11 -11.96 -10.37c-9.92,-8.57 -22.61,-12.32 -38.07,-11.22 -15.43,1.1 -27.47,6.61 -36.08,16.57l-411.43 474.85c-8.62,9.92 -12.37,22.61 -11.27,38.07 1.1,15.47 6.65,27.47 16.57,36.08l9.92 8.61 1.34 18.53 -19.79 22.85 -16.53 3.06 -193.88 -65.34 -29.79 -25.83 -1.35 -18.52 65.91 -55.99zm-166.05 -93.42c24.53,21.27 50.4,33.83 77.74,37.79 27.3,3.92 54.44,1.35 81.45,-7.67 26.98,-9.1 53.3,-23.38 78.93,-42.93 25.63,-19.55 49.62,-42.24 71.99,-68.07 22.4,-25.83 41.42,-52.81 57.13,-80.96 15.67,-28.12 26.07,-56.24 31.22,-84.23 5.14,-28.04 4,-55.14 -3.47,-81.29 -7.47,-26.2 -23.79,-50.16 -48.97,-71.99 -25.83,-22.36 -52.2,-35.38 -79.17,-39.06 -27.02,-3.67 -53.95,-0.97 -80.97,8.17 -27.01,9.02 -53.13,23.5 -78.43,43.34 -25.3,19.79 -49.13,42.6 -71.54,68.47 -22.36,25.79 -41.58,52.65 -57.58,80.52 -16.04,27.87 -26.61,55.78 -31.75,83.82 -5.14,27.99 -3.96,55.05 3.51,81.29 7.43,26.16 24.12,50.44 49.91,72.8zm-457.47 -1224.1c14.77,-9.47 22.94,-20.69 24.53,-33.67 1.55,-12.97 -1.68,-25.75 -9.71,-38.27l-7.11 -11.06 3.96 -18.16 33.22 -21.26 176.42 124.22 21.26 33.17 -3.96 18.16 -49.79 31.92c31.96,7.63 62.28,20.44 91.01,38.48 28.73,18.04 57.05,48.81 84.92,92.31 20.81,32.48 34.77,68.8 41.79,109.04 7.06,40.24 6.28,80.8 -2.37,121.77 -8.61,40.9 -25.83,80.6 -51.7,119.04 -25.83,38.41 -61.3,72.03 -106.31,100.88 -39.83,25.51 -81.86,42.36 -126.14,50.4 -44.28,8.08 -87.62,7.8 -130.18,-0.85 -42.48,-8.66 -82.39,-25.51 -119.73,-50.48 -37.38,-24.98 -69.3,-58.12 -95.78,-99.42 -15.63,-24.36 -27.14,-48.44 -34.61,-72.31 -7.47,-23.79 -12.04,-46.36 -13.71,-67.7 -1.71,-21.3 -1.22,-40.85 1.39,-58.68 2.61,-17.8 6.16,-33.83 10.57,-48.08l-3.55 -5.55 -112.02 -18.81 -24.12 -37.63 4 -18.16 108.92 -54.19 288.8 -185.11zm278.48 227.43c-17.95,-28.04 -39.87,-47.26 -65.86,-57.7 -25.96,-10.45 -53.42,-14.37 -82.56,-11.88 -29.06,2.53 -58.23,9.79 -87.49,21.75 -29.31,12 -56.48,26.04 -81.54,42.12 -25.1,16.07 -49.22,34.89 -72.31,56.48 -23.1,21.58 -42.04,44.89 -56.65,69.9 -14.69,25.06 -22.73,51.5 -24.07,79.42 -1.35,27.91 7.18,56.27 25.66,85.04 17.96,28.04 39.92,47.26 65.83,57.7 25.95,10.45 53.58,14.61 82.92,12.45 29.34,-2.12 58.77,-9.02 88.27,-20.65 29.47,-11.63 56.77,-25.5 81.87,-41.58 25.05,-16.08 49.05,-35.06 71.94,-57.01 22.9,-21.96 41.42,-45.83 55.58,-71.58 14.25,-25.75 22,-52.56 23.35,-80.52 1.38,-27.95 -6.94,-55.9 -24.94,-83.94zm-784.79 -509.21c-41.02,-12.98 -76.93,-35.1 -107.74,-66.44 -30.73,-31.38 -52.6,-69.78 -65.5,-115.29 -12.44,-43.86 -16.69,-86.88 -12.69,-128.99 4,-42.08 16.04,-80.6 36.2,-115.49 20.16,-34.85 48.48,-65.87 84.92,-93.13 36.44,-27.18 81.21,-48.31 134.34,-63.41 53.1,-15.1 102.43,-20.2 148.02,-15.35 45.54,4.82 86.15,17.18 121.89,37.1 35.71,19.91 66.24,46.52 91.66,79.86 25.43,33.3 44.24,71.5 56.44,114.47 12.2,43.01 14.65,83.74 7.39,122.26 -7.31,38.53 -18.82,71.87 -34.49,99.98l225.06 -63.9c12.7,-3.59 22.77,-12.16 30.28,-25.71 7.59,-13.51 9.55,-26.61 5.96,-39.26l-4.32 -15.18 7.26 -12.98 55.62 -15.79 12.98 7.26 84.76 298.44 -7.22 12.93 -55.67 15.8 -12.97 -7.23 -4.33 -15.18c-3.59,-12.65 -12.12,-22.73 -25.67,-30.28 -13.51,-7.55 -26.61,-9.51 -39.3,-5.91l-604.38 171.64c-12.65,3.59 -22.73,12.12 -30.28,25.63 -7.55,13.54 -9.51,26.64 -5.91,39.25l3.59 12.65 -9.06 16.25 -29.1 8.24 -15.51 -6.49 -126.34 -160.91 -10.77 -37.91 9.06 -16.24 85.82 -10.69zm-87.66 -169.16c8.85,31.18 23.59,55.91 44.28,74.19 20.69,18.29 44.8,30.98 72.35,38.24 27.55,7.18 57.38,9.67 89.54,7.35 32.11,-2.29 64.64,-8.12 97.53,-17.47 32.89,-9.34 63.58,-21.46 92.14,-36.4 28.57,-14.94 52.65,-32.73 72.28,-53.3 19.71,-20.65 33.58,-43.95 41.66,-69.9 8.12,-26.04 7.59,-55.01 -1.51,-87.05 -9.3,-32.85 -24.24,-58.23 -44.8,-76.06 -20.53,-17.88 -44.61,-30.41 -72.15,-37.59 -27.59,-7.22 -57.34,-9.47 -89.38,-6.73 -32.03,2.69 -64.47,8.69 -97.37,18.03 -32.85,9.35 -63.66,21.27 -92.31,35.83 -28.68,14.49 -52.84,32.04 -72.47,52.69 -19.63,20.61 -33.51,43.87 -41.67,69.9 -8.12,25.96 -7.47,55.38 1.88,88.27zm199.06 -756.18c52.77,-5.64 95.42,-27.59 127.94,-65.79 32.52,-38.15 49.54,-87.49 51.05,-147.93 1.39,-55.17 -8.57,-103.65 -29.83,-145.4 -21.3,-41.75 -53.09,-77.17 -95.29,-106.27l-4.94 -13.26 5.64 -14.37 13.3 -6.24c76.56,23.87 135.12,64.56 175.76,122.14 40.65,57.58 59.91,125.77 57.95,204.62 -1.3,51.7 -11.51,98.55 -30.52,140.58 -19.06,42.04 -44.48,77.78 -76.36,107.21 -31.83,29.46 -69.25,52.15 -112.18,68.15 -42.89,16.04 -88.88,23.38 -137.97,22.16 -47.26,-1.19 -91.29,-11.31 -132.02,-30.28 -40.69,-18.98 -75.78,-44.44 -105.21,-76.31 -29.46,-31.84 -52.4,-68.6 -68.88,-110.19 -16.49,-41.66 -24.16,-86.11 -22.94,-133.4 1.39,-55.18 12,-102.72 31.88,-142.51 19.87,-39.83 45.7,-72.68 77.45,-98.63 31.75,-25.92 68.19,-44.77 109.25,-56.44 41.05,-11.63 83.49,-16.94 127.28,-15.83l10.24 10.81 28.4 487.18zm-90.31 -274.44c-1.26,-20.2 -7.46,-34.16 -18.69,-41.91 -11.18,-7.72 -23.34,-11.76 -36.48,-12.08 -48.19,-1.23 -86.64,11.18 -115.32,37.17 -28.78,26.04 -43.63,60.48 -44.73,103.41 -1.39,55.18 18.32,99.05 59.13,131.65 40.81,32.61 94.47,51.5 160.95,56.69l9.43 -8.98 -14.29 -265.95zm-315.45 -525.87c-12.81,-2.94 -25.83,-0.32 -38.93,7.88 -13.18,8.2 -21.22,18.73 -24.16,31.5l-2.94 12.82 -15.75 9.83 -38.44 -8.85 -31.55 -225.8 8.86 -38.4 15.75 -9.88 114.88 40 663.47 152.99c12.81,2.98 25.79,0.33 38.93,-7.88 13.14,-8.2 21.14,-18.73 24.12,-31.54l3.55 -15.39 12.61 -7.87 56.36 12.97 7.87 12.66 -69.7 302.27 -12.61 7.87 -56.36 -13.02 -7.87 -12.56 3.51 -15.39c2.98,-12.81 0.36,-25.75 -7.84,-38.93 -8.24,-13.1 -18.73,-21.14 -31.54,-24.12l-612.22 -141.16zm370.46 -1024.3c-10.69,-7.63 -23.71,-10.16 -38.97,-7.59 -15.3,2.57 -26.73,9.22 -34.36,19.96l-7.59 10.69 -18.32 3.1 -32.16 -22.85 56.97 -220.78 22.85 -32.12 18.33 -3.1 90.92 80.76 198.21 140.92c-9.68,-34.81 -11.88,-72.11 -6.66,-111.98 5.19,-39.87 22.78,-80.85 52.73,-123 19.79,-27.83 41.83,-50.89 66.11,-69.09 24.24,-18.28 50.15,-30.49 77.66,-36.73 27.55,-6.2 56.15,-6.04 85.86,0.57 29.75,6.61 59.95,20.82 90.68,42.65l253.87 180.5c10.73,7.63 23.71,10.16 39.01,7.59 15.27,-2.62 26.69,-9.27 34.32,-19.96l9.14 -12.9 14.66 -2.44 47.13 33.5 2.49 14.65 -179.72 252.85 -14.69 2.49 -47.14 -33.5 -2.49 -14.69 9.14 -12.86c7.63,-10.73 10.16,-23.71 7.55,-38.93 -2.57,-15.3 -9.22,-26.77 -19.91,-34.36l-249.63 -177.48c-33.54,-23.83 -65.46,-33.09 -95.61,-27.67 -30.2,5.43 -56.48,23.84 -78.85,55.3 -12.16,17.1 -20.48,35.67 -24.97,55.58 -4.49,19.92 -4.86,40.07 -1.1,60.48 3.75,20.44 11.71,40.32 23.75,59.66 12.03,19.3 29.17,36.85 51.29,52.56l212.13 150.83c10.69,7.59 23.67,10.12 39.01,7.55 15.22,-2.57 26.65,-9.22 34.32,-19.95l9.1 -12.86 14.69 -2.49 47.14 33.51 2.49 14.69 -179.77 252.85 -14.65 2.45 -47.13 -33.51 -2.49 -14.65 9.14 -12.89c7.59,-10.69 10.12,-23.67 7.55,-38.97 -2.61,-15.27 -9.22,-26.69 -19.96,-34.32l-512.07 -364.02zm536.27 -810.38c-21.18,-22.24 -31.54,-48.36 -31.13,-78.4 0.36,-30.03 11.38,-55.37 32.93,-75.9 22.24,-21.18 48.52,-31.42 78.84,-30.69 30.36,0.74 56.11,12.2 77.29,34.44 20.57,21.55 30.33,47.38 29.31,77.38 -1.07,30.03 -12.66,55.66 -34.9,76.8 -21.54,20.57 -47.21,30.48 -76.92,29.79 -29.71,-0.73 -54.89,-11.87 -75.42,-33.42zm279.99 263.34c-9.06,-9.55 -21.34,-14.49 -36.81,-14.9 -15.5,-0.32 -27.99,4.04 -37.5,13.1l-9.51 9.06 -18.57 -0.45 -27.22 -28.56 97.91 -205.92 28.52 -27.18 18.61 0.45 73.9 96.63 264.81 277.83c9.06,9.51 21.35,14.44 36.85,14.81 15.47,0.37 27.96,-3.96 37.51,-13.06l11.38 -10.89 14.9 0.36 39.91 41.87 -0.37 14.9 -224.57 214.04 -14.85 -0.41 -39.92 -41.87 0.33 -14.85 11.43 -10.9c9.55,-9.06 14.48,-21.3 14.85,-36.81 0.37,-15.5 -4,-27.99 -13.06,-37.5l-228.53 -239.75zm679.02 -194.91c-25.83,16.57 -52.15,28.29 -79.04,35.06l-14.78 71.95 216.9 -139.04c62.68,-40.2 120.51,-55.95 173.48,-47.18 52.97,8.7 94.35,36.32 124.14,82.81 24.61,38.36 37.22,77.9 37.79,118.63 0.61,40.72 -7.47,80.51 -24.2,119.36 -16.73,38.81 -40.81,75.58 -72.19,110.23 -31.38,34.69 -67.34,65.05 -107.9,91.04 -36.89,23.63 -71.7,40 -104.47,49.01 -32.69,8.98 -62.32,12.37 -88.72,10.08 -26.52,-2.32 -50.07,-9.87 -70.72,-22.6 -20.69,-12.78 -37.42,-29.14 -50.2,-49.02 -14.2,-22.15 -21.38,-44.35 -21.58,-66.6 -0.21,-22.24 1.06,-42.56 3.83,-61.01l6.21 -41.42 -68.6 43.96 -14.53 -3.19 -40.4 -63.09 34.81 -194.09c-36.69,-0.4 -72.03,-8.44 -106.02,-24.11 -34,-15.67 -62.36,-41.22 -85.05,-76.64 -17.47,-27.3 -28.32,-56.81 -32.52,-88.48 -4.13,-31.66 -2.04,-62.96 6.24,-93.77 8.37,-30.86 22.85,-60.16 43.54,-88.03 20.69,-27.79 46.89,-51.91 78.6,-72.23 30.24,-19.39 63.09,-33.1 98.47,-41.26l150.51 -96.47 14.52 3.18 31.22 48.69 -3.18 14.57 -56.44 36.15c24.16,8.45 46.16,20.08 66.07,34.89 19.91,14.82 36.97,33.34 51.17,55.46 17.51,27.3 28.33,56.77 32.49,88.48 4.16,31.62 1.92,63.05 -6.78,94.1 -8.73,31.1 -23.42,60.52 -44.11,88.39 -20.65,27.84 -46.85,51.87 -78.56,72.19zm19.3 203.11l-14.4 91.98c-2.9,13.31 -3.88,26.45 -2.9,39.34 0.98,12.9 5.27,25.26 12.82,37.02 18.48,28.81 43.74,41.5 75.9,38.03 32.12,-3.43 69.21,-18.61 111.29,-45.58 23.62,-15.14 44.52,-32.4 62.72,-51.91 18.24,-19.47 32.44,-39.55 42.64,-60.11 10.21,-20.61 15.72,-41.3 16.45,-62.07 0.78,-20.77 -4.33,-39.67 -15.18,-56.65 -15.59,-24.32 -37.91,-37.91 -66.76,-40.72 -28.86,-2.82 -62.11,7.83 -99.74,31.95l-122.84 78.72zm-61.86 -269.5c31.71,-20.32 48.4,-47.91 49.95,-82.76 1.63,-34.85 -10.61,-72.56 -36.61,-113.12 -25.99,-40.61 -55.17,-67.42 -87.49,-80.52 -32.32,-13.14 -64.36,-9.51 -96.07,10.81 -31.74,20.37 -48.39,47.96 -49.99,82.81 -1.63,34.85 10.57,72.55 36.61,113.12 25.99,40.6 55.17,67.46 87.49,80.51 32.37,13.1 64.36,9.51 96.11,-10.85zm243.34 -766.39c-11.26,-28.57 -11.02,-56.69 0.65,-84.35 11.68,-27.71 31.39,-47.02 59.14,-57.91 28.52,-11.26 56.72,-10.86 84.55,1.26 27.88,12.08 47.42,32.41 58.65,60.97 10.93,27.71 10.28,55.3 -2,82.72 -12.25,27.43 -32.65,46.77 -61.22,58.03 -27.71,10.94 -55.21,10.45 -82.47,-1.39 -27.26,-11.83 -46.4,-31.62 -57.3,-59.33zm160.3 349.36c-4.86,-12.24 -14.32,-21.42 -28.53,-27.62 -14.24,-6.17 -27.42,-6.82 -39.66,-2l-12.25 4.81 -17.01 -7.43 -14.49 -36.68 168.21 -153.93 36.69 -14.45 17.06 7.43 32.12 117.32 140.75 357.08c4.81,12.24 14.32,21.42 28.56,27.63 14.16,6.16 27.39,6.81 39.63,2l14.65 -5.8 13.67 5.96 21.22 53.79 -5.96 13.67 -288.6 113.73 -13.63 -5.96 -21.22 -53.78 5.92 -13.63 14.69 -5.8c12.24,-4.81 21.42,-14.32 27.63,-28.52 6.16,-14.25 6.81,-27.43 2,-39.67l-121.45 -308.15zm577.28 8.37c13.55,51.3 41.67,90.15 84.35,116.55 42.65,26.36 93.99,35.71 153.93,28.12 54.77,-6.98 101.17,-24.12 139.24,-51.46 38.04,-27.39 68.28,-64.11 90.64,-110.27l12.41 -6.86 15.01 3.39 8.17 12.2c-12,79.3 -43.42,143.32 -94.19,192.21 -50.77,48.85 -115.29,78.23 -193.52,88.15 -51.29,6.53 -99.16,3.55 -143.56,-8.9 -44.44,-12.48 -83.62,-32.23 -117.53,-59.29 -33.91,-27.02 -61.99,-60.56 -84.31,-100.59 -22.33,-40 -36.53,-84.36 -42.73,-133.04 -5.96,-46.93 -2.61,-91.98 10,-135.08 12.61,-43.13 32.48,-81.66 59.54,-115.57 27.01,-33.91 59.91,-62.15 98.51,-84.72 38.69,-22.57 81.46,-36.85 128.39,-42.81 54.76,-6.98 103.36,-3.63 145.72,10 42.36,13.59 78.72,34.16 109.17,61.66 30.44,27.47 54.56,60.65 72.31,99.45 17.71,38.85 29.34,79.99 34.85,123.41l-9.1 11.79 -477.3 101.66zm257.63 -130.75c19.79,-4.29 32.64,-12.53 38.6,-24.77 5.96,-12.25 8.08,-24.9 6.45,-37.92 -6.08,-47.82 -24.12,-83.94 -54.19,-108.38 -30.04,-24.49 -66.36,-34 -108.96,-28.57 -54.73,6.94 -95.17,33.06 -121.21,78.31 -26.07,45.3 -36.64,101.17 -31.7,167.69l10.28 7.95 260.73 -54.31zm-199.11 -513.99l15.83 -11.26 156.47 -19.88 6.85 12.37 -143.16 177.15 -19.67 11.79 -93.86 11.96 -8.04 -10.94 85.58 -171.19zm673.47 396.83c1.63,-13.06 -2.29,-25.67 -11.75,-37.96 -9.51,-12.2 -20.73,-19.18 -33.79,-20.81l-13.02 -1.67 -11.39 -14.69 3.8 -30 12.08 -11.71 197.55 -53.09 39.14 4.98 11.39 14.69 -23.84 83.08c27.92,-31.79 62.11,-55.9 102.64,-72.43 40.52,-16.49 85.98,-21.55 136.38,-15.14 67.82,8.61 120.71,33.91 158.67,75.82 37.95,41.91 52.11,100.72 42.52,176.34l-39.26 309.04c-1.63,13.02 2.24,25.67 11.75,37.95 9.47,12.21 20.73,19.14 33.79,20.82l15.67 2 9.1 11.75 -7.3 57.38 -11.75 9.1 -307.74 -39.1 -9.1 -11.75 7.3 -57.38 11.71 -9.1 15.67 1.96c13.02,1.67 25.67,-2.24 37.96,-11.71 12.2,-9.51 19.13,-20.77 20.81,-33.79l38.6 -303.82c5.51,-43.51 -1.96,-76.64 -22.44,-99.58 -20.49,-22.93 -48.61,-36.64 -84.23,-41.17 -41.71,-5.31 -78.4,5.26 -110.02,31.7 -31.63,26.49 -50.89,66.65 -57.71,120.55l-32.81 258.2c-1.67,13.02 2.25,25.67 11.76,37.95 9.46,12.21 20.73,19.14 33.79,20.82l15.63 2 9.14 11.75 -7.31 57.38 -11.75 9.1 -307.78 -39.1 -9.06 -11.75 7.26 -57.38 11.76 -9.1 15.67 2c13.02,1.63 25.67,-2.28 37.91,-11.75 12.24,-9.51 19.18,-20.73 20.85,-33.79l41.75 -328.59zm1039.89 -184.26c11.26,-28.52 30.61,-48.93 58.03,-61.21 27.42,-12.24 55.01,-12.94 82.72,-2 28.57,11.26 48.89,30.81 60.97,58.64 12.12,27.83 12.53,56.03 1.31,84.6 -10.94,27.71 -30.24,47.42 -57.91,59.09 -27.71,11.71 -55.83,11.92 -84.35,0.69 -27.71,-10.93 -47.51,-30.07 -59.38,-57.33 -11.84,-27.26 -12.33,-54.77 -1.39,-82.48zm-121.16 364.79c4.82,-12.24 4.12,-25.42 -2.04,-39.66 -6.2,-14.2 -15.39,-23.71 -27.59,-28.53l-12.24 -4.81 -7.43 -17.02 14.49 -36.73 228 2.25 36.69 14.48 7.38 17.02 -56.56 107.74 -140.75 357.07c-4.81,12.2 -4.16,25.43 2.04,39.67 6.16,14.16 15.35,23.67 27.63,28.52l14.65 5.76 5.92 13.67 -21.18 53.79 -13.67 5.91 -288.6 -113.73 -5.92 -13.63 21.22 -53.83 13.63 -5.92 14.69 5.76c12.2,4.85 25.42,4.16 39.63,-2 14.2,-6.2 23.71,-15.39 28.52,-27.63l121.49 -308.15zm771.65 374.83c19.23,-33.42 23.59,-66.56 13.19,-99.33 -10.49,-32.81 -33.59,-59.45 -69.26,-79.98 -28.89,-16.61 -56.93,-24.16 -84.1,-22.61 -27.14,1.55 -53.14,9.43 -77.91,23.47 -24.77,14.03 -47.66,32.77 -68.64,56.03 -20.97,23.34 -39.54,49.05 -55.7,77.17 -16.16,28.11 -27.47,56.96 -33.91,86.63 -6.45,29.67 -7.51,58.32 -3.23,86.07 4.29,27.75 14.45,53.54 30.53,77.45 16.03,23.92 38.56,44.12 67.41,60.73 73.7,42.36 148.42,39.87 224.17,-7.51l14.03 1.96 9.92 11.79 -0.86 14.69c-21.99,20.65 -45.58,39.22 -70.68,55.63 -25.1,16.36 -52.11,27.87 -81.17,34.4 -29.05,6.57 -60.31,7.3 -93.78,2.2 -33.46,-5.06 -69.17,-18.53 -107.16,-40.4 -37.22,-21.38 -68.93,-48.44 -95.08,-81.21 -26.12,-32.73 -45.02,-69.33 -56.61,-109.86 -11.54,-40.52 -14.56,-83.7 -8.93,-129.48 5.59,-45.79 21.95,-92.27 49.05,-139.33 27.06,-47.09 59.74,-84.18 98.02,-111.16 38.28,-27.05 78.97,-45.09 122.1,-54.15 43.1,-9.1 86.93,-9.63 131.41,-1.76 44.52,7.88 86.1,22.94 124.87,45.22 34.16,19.67 63.75,41.22 88.68,64.68 24.93,23.43 44.69,47.95 59.29,73.54l1.43 15.96 -76.23 145.68 -14.32 3.92 -44.48 -25.59 -3.84 -14.32 11.79 -20.53zm146.83 772.56c-33.87,-35.55 -59.25,-74.89 -76.19,-118.06 -16.93,-43.18 -25.5,-87.09 -25.62,-131.69 -0.21,-44.65 8.28,-88.15 25.42,-130.51 17.14,-42.32 43.46,-80.44 79.01,-114.31 34.85,-33.26 74.02,-57.58 117.49,-72.96 43.42,-15.35 87.41,-21.92 132.01,-19.59 44.57,2.32 88.03,12.98 130.3,31.95 42.32,18.98 80.44,46.24 114.31,81.78 33.22,34.85 58.48,74.07 75.7,117.57 17.26,43.51 25.91,87.54 26.12,132.18 0.12,44.61 -8.49,88.27 -25.92,130.92 -17.46,42.64 -43.62,80.64 -78.51,113.9 -35.55,33.87 -74.85,58.31 -117.98,73.37 -43.14,15.1 -87,21.46 -131.57,19.14 -44.56,-2.29 -88.15,-13.1 -130.75,-32.4 -42.6,-19.31 -80.56,-46.4 -113.82,-81.29zm52.36 -49.91c20.57,21.58 43.71,36.07 69.58,43.5 25.87,7.47 52.52,8.45 79.91,2.9 27.42,-5.55 55.86,-16.94 85.41,-34.24 29.54,-17.26 58.6,-39.51 87.17,-66.68 28.52,-27.22 52.11,-55.18 70.76,-83.87 18.69,-28.64 31.46,-56.56 38.32,-83.65 6.85,-27.1 7.18,-53.75 0.98,-79.95 -6.21,-26.2 -19.59,-50.03 -40.12,-71.62 -21.18,-22.2 -44.52,-36.89 -70.07,-43.99 -25.54,-7.1 -52.03,-7.92 -79.45,-2.37 -27.38,5.55 -55.87,16.94 -85.46,34.2 -29.5,17.26 -58.56,39.5 -87.08,66.72 -28.53,27.18 -52.2,55.14 -70.85,83.82 -18.65,28.69 -31.38,56.56 -38.23,83.7 -6.86,27.1 -7.35,53.58 -1.47,79.46 5.87,25.83 19.42,49.87 40.6,72.07zm780.35 787c-47.62,23.5 -80.07,58.76 -97.45,105.85 -17.39,47.01 -16.33,99.21 3.06,156.42 17.71,52.32 43.75,94.39 78.11,126.27 34.4,31.83 76.39,54.15 126.06,66.92l9.18 10.74 -0.33 15.42 -10.32 10.45c-80.11,3.96 -149.12,-14.08 -207.07,-54.11 -57.99,-40.04 -99.61,-97.42 -124.91,-172.14 -16.57,-48.97 -23.18,-96.47 -19.8,-142.46 3.39,-46.03 14.98,-88.35 34.73,-126.96 19.75,-38.6 47.05,-72.8 81.82,-102.63 34.77,-29.83 75.42,-52.6 121.9,-68.36 44.81,-15.14 89.62,-20.85 134.38,-17.05 44.77,3.83 86.48,15.63 125.08,35.38 38.61,19.75 72.81,46.36 102.6,79.74 29.87,33.42 52.35,72.52 67.53,117.28 17.68,52.32 24.08,100.6 19.14,144.79 -4.93,44.24 -17.83,83.99 -38.72,119.29 -20.86,35.3 -48.61,65.54 -83.09,90.59 -34.57,25.1 -72.56,44.69 -114.02,58.73l-13.34 -6.57 -194.54 -447.59zm179.35 226.52c8.13,18.53 18.78,29.47 31.96,32.9 13.14,3.38 25.99,2.98 38.44,-1.23 45.62,-15.46 77.45,-40.32 95.45,-74.64 18,-34.32 20.12,-71.78 6.33,-112.51 -17.71,-52.23 -51.34,-86.63 -100.88,-103.16 -49.54,-16.57 -106.39,-15.84 -170.62,2.2l-5.72 11.71 105.04 244.73zm232.37 868.95c38.48,-2.94 68.31,-17.96 89.53,-45.01 21.23,-27.14 30.28,-61.22 27.14,-102.27 -2.53,-33.22 -12.04,-60.64 -28.6,-82.23 -16.61,-21.55 -37.71,-38.61 -63.26,-51.22 -25.54,-12.52 -53.91,-20.93 -84.96,-25.18 -31.1,-4.2 -62.81,-5.1 -95.09,-2.61 -32.36,2.45 -62.56,9.31 -90.72,20.69 -28.15,11.35 -52.43,26.65 -72.96,45.75 -20.53,19.18 -36.16,42.07 -46.85,68.84 -10.73,26.73 -14.81,56.69 -12.28,89.91 6.44,84.76 50.56,145.11 132.38,181.07l6.24 12.69 -4.16 14.85 -12.61 7.55c-29.46,-6.57 -58.07,-15.59 -85.74,-27.14 -27.71,-11.51 -52.4,-27.38 -74.15,-47.7 -21.79,-20.33 -39.95,-45.79 -54.6,-76.32 -14.61,-30.48 -23.59,-67.57 -26.89,-111.28 -3.27,-42.81 1.26,-84.27 13.63,-124.3 12.36,-40.04 31.99,-76.24 58.97,-108.64 26.97,-32.36 60.96,-59.13 102.02,-80.27 40.97,-21.1 88.59,-33.71 142.75,-37.83 54.19,-4.12 103.2,2 147.07,18.49 43.91,16.44 81.7,39.91 113.45,70.43 31.79,30.57 56.89,66.44 75.42,107.66 18.52,41.26 29.46,84.1 32.85,128.67 2.98,39.3 1.79,75.9 -3.51,109.69 -5.35,33.83 -14.53,63.95 -27.47,90.43l-12.4 10.13 -163.32 19.01 -11.26 -9.67 -3.92 -51.13 9.71 -11.27 23.59 -1.79zm-541.57 557.77c8.65,-48.31 25.38,-92.06 50.19,-131.24 24.81,-39.13 55.17,-72.03 91.09,-98.51 35.87,-26.57 75.98,-45.42 120.26,-56.64 44.28,-11.18 90.6,-12.49 138.91,-3.84 47.42,8.49 90.19,25.71 128.31,51.62 38.07,25.96 69.33,57.59 93.86,94.93 24.44,37.29 41.54,78.68 51.21,124.01 9.71,45.34 10.24,92.15 1.63,140.51 -8.48,47.42 -25.18,90.96 -50.11,130.55 -24.85,39.62 -55.3,72.68 -91.17,99.2 -35.91,26.49 -76.23,45.38 -120.91,56.48 -44.73,11.14 -90.8,12.49 -138.26,4 -48.32,-8.65 -91.29,-25.91 -128.96,-51.79 -37.67,-25.87 -68.72,-57.49 -93.21,-94.79 -24.48,-37.34 -41.5,-78.85 -51.13,-124.63 -9.63,-45.79 -10.2,-92.4 -1.71,-139.86zm71.21 12.74c-5.27,29.34 -3.27,56.6 6.04,81.86 9.26,25.26 24.24,47.3 44.93,66.15 20.65,18.81 46.64,35.01 78.06,48.64 31.39,13.63 66.52,23.92 105.33,30.86 38.81,6.93 75.29,9.46 109.45,7.59 34.16,-1.92 64.19,-8.08 90.15,-18.61 25.91,-10.49 47.58,-25.96 65.05,-46.48 17.46,-20.45 28.81,-45.34 34.03,-74.64 5.43,-30.24 3.47,-57.75 -5.91,-82.56 -9.35,-24.77 -24.37,-46.64 -45.06,-65.46 -20.65,-18.81 -46.68,-35.05 -78.07,-48.72 -31.42,-13.59 -66.51,-23.88 -105.32,-30.81 -38.81,-6.94 -75.34,-9.47 -109.49,-7.59 -34.16,1.91 -64.2,8.12 -90.11,18.6 -25.91,10.53 -47.54,25.8 -64.93,45.83 -17.38,20 -28.77,45.14 -34.15,75.34zm521.09 730.76c12.24,4.82 25.46,4.16 39.66,-2.04 14.24,-6.16 23.75,-15.34 28.57,-27.59l4.81 -12.24 17.02 -7.39 36.69 14.45 -2.25 228 -14.48 36.69 -17.02 7.38 -107.7 -56.56 -633.47 -249.67c-12.2,-4.81 -25.43,-4.16 -39.67,2.04 -14.16,6.17 -23.67,15.35 -28.52,27.63l-5.76 14.65 -13.67 5.92 -53.78 -21.18 -5.92 -13.67 113.73 -288.6 13.63 -5.92 53.83 21.22 5.92 13.63 -5.76 14.69c-4.85,12.2 -4.16,25.43 2,39.63 6.21,14.2 15.39,23.71 27.63,28.52l584.51 230.41zm-1028.35 287.21c28.45,-39.99 62.24,-72.39 101.41,-97.24 39.18,-24.82 80.64,-41.63 124.43,-50.24 43.75,-8.69 88.06,-8.61 132.91,0.12 44.85,8.78 87.25,27.38 127.29,55.83 39.25,27.91 70.6,61.74 93.98,101.45 23.34,39.75 38.11,81.7 44.32,125.94 6.24,44.15 4.04,88.84 -6.57,133.97 -10.57,45.18 -30.08,87.74 -58.52,127.77 -27.92,39.26 -61.62,71.5 -101.05,96.68 -39.42,25.22 -81,42.11 -124.79,50.81 -43.79,8.61 -88.27,8.49 -133.44,-0.53 -45.22,-9.02 -87.46,-27.51 -126.76,-55.42 -39.99,-28.45 -71.49,-62.4 -94.47,-101.9 -23.06,-39.42 -37.62,-81.33 -43.83,-125.49 -6.24,-44.2 -3.91,-89.04 6.94,-134.55 10.86,-45.5 30.24,-87.9 58.15,-127.2zm58.93 41.91c-17.26,24.28 -27.06,49.79 -29.46,76.6 -2.41,26.81 1.75,53.13 12.4,79.01 10.65,25.83 27.22,51.58 49.83,77.33 22.57,25.71 49.95,50.03 82.07,72.84 32.11,22.86 64.07,40.69 95.78,53.59 31.7,12.85 61.49,20.07 89.41,21.67 27.95,1.55 54.15,-3.19 78.68,-14.29 24.56,-11.02 45.42,-28.69 62.68,-52.97 17.79,-25.01 27.75,-50.72 29.87,-77.17 2.12,-26.44 -2.12,-52.56 -12.81,-78.43 -10.65,-25.83 -27.26,-51.62 -49.83,-77.37 -22.57,-25.71 -49.95,-50 -82.07,-72.85 -32.11,-22.81 -64.07,-40.73 -95.77,-53.58 -31.71,-12.86 -61.5,-20.04 -89.42,-21.63 -27.91,-1.59 -54.03,3.02 -78.27,13.71 -24.28,10.65 -45.3,28.53 -63.09,53.54zm707.67 483.71l-2.41 19.26 -91.41 128.55 -13.75 -3.35 -33.35 -225.26 4.66 -22.53 54.84 -77.13 13.47 1.51 67.95 178.95z"/>
    <path class="fil10" d="M10086.12 6743.85c23.18,-20.07 47.55,-35.42 73.17,-46.03l4.33 -73.29 -194.7 168.7c-56.32,48.81 -111.29,72.64 -164.95,71.58 -53.66,-1.02 -98.59,-22.4 -134.75,-64.11 -29.79,-34.44 -47.95,-71.78 -54.4,-111.98 -6.45,-40.24 -4.16,-80.76 6.86,-121.61 10.97,-40.85 29.5,-80.64 55.62,-119.45 26.04,-38.85 57.3,-74.02 93.74,-105.57 33.09,-28.73 65.21,-49.87 96.31,-63.5 31.09,-13.63 59.9,-21.18 86.39,-22.69 26.57,-1.51 50.93,2.57 73.21,12.2 22.32,9.68 41.26,23.47 56.72,41.3 17.23,19.92 27.55,40.85 30.9,62.81 3.42,21.99 5.06,42.28 4.98,60.93l-0.21 41.91 61.58 -53.38 14.82 1.1 49.09 56.64 -6.65 197.07c36.36,-4.86 72.51,-1.96 108.39,8.65 35.91,10.65 67.62,31.87 95.16,63.66 21.22,24.49 36.16,52.16 44.89,82.88 8.65,30.73 11.06,62.03 7.27,93.7 -3.84,31.75 -14,62.85 -30.49,93.37 -16.45,30.45 -38.93,58.07 -67.42,82.76 -27.13,23.51 -57.66,41.83 -91.49,54.93l-135.12 117.08 -14.85 -1.06 -37.87 -43.71 1.06 -14.85 50.68 -43.91c-25.13,-4.9 -48.6,-13.26 -70.43,-25.06 -21.84,-11.79 -41.34,-27.67 -58.56,-47.5 -21.26,-24.52 -36.2,-52.15 -44.85,-82.88 -8.65,-30.77 -10.94,-62.15 -6.78,-94.15 4.17,-32.03 14.45,-63.25 30.94,-93.78 16.44,-30.48 38.93,-58.07 67.41,-82.76zm-48.27 -198.2l1.1 -93.09c0.98,-13.59 0.04,-26.73 -2.78,-39.34 -2.81,-12.61 -8.85,-24.24 -18.03,-34.85 -22.37,-25.83 -49.22,-34.73 -80.56,-26.73 -31.3,8 -65.83,28.36 -103.57,61.09 -21.22,18.36 -39.43,38.48 -54.65,60.36 -15.26,21.91 -26.44,43.78 -33.58,65.66 -7.14,21.83 -9.63,43.09 -7.35,63.78 2.21,20.61 9.96,38.61 23.14,53.83 18.94,21.83 42.93,32.08 71.91,30.73 28.97,-1.31 60.35,-16.65 94.1,-45.91l110.27 -95.53zm99.9 257.83c-28.45,24.68 -41.02,54.39 -37.55,89.08 3.39,34.69 20.9,70.27 52.44,106.72 31.59,36.44 64.28,58.76 98.19,67.13 33.83,8.32 65.05,0.16 93.49,-24.53 28.53,-24.69 41.01,-54.36 37.59,-89.08 -3.39,-34.73 -20.9,-70.32 -52.44,-106.72 -31.55,-36.44 -64.28,-58.81 -98.15,-67.13 -33.91,-8.33 -65.05,-0.16 -93.57,24.53zm-127.45 794.67c15.26,26.6 19.14,54.44 11.63,83.53 -7.51,29.1 -24.2,51.05 -50.03,65.91 -26.61,15.3 -54.56,18.97 -83.86,11.1 -29.3,-7.92 -51.63,-25.18 -66.93,-51.79 -14.85,-25.83 -18.2,-53.21 -10.08,-82.15 8.12,-28.89 25.51,-51.05 52.11,-66.31 25.79,-14.86 53.1,-18.41 81.78,-10.65 28.69,7.71 50.53,24.52 65.38,50.36zm-209.55 -322.27c6.57,11.38 17.3,19.1 32.24,23.18 14.97,4 28.11,2.73 39.54,-3.8l11.39 -6.57 17.91 4.86 19.67 34.2 -143.97 176.78 -34.16 19.67 -17.96 -4.86 -48.89 -111.4 -191.31 -332.72c-6.57,-11.38 -17.3,-19.1 -32.28,-23.14 -14.93,-4.04 -28.11,-2.77 -39.54,3.8l-13.63 7.83 -14.41 -3.87 -28.81 -50.12 3.88 -14.36 268.93 -154.67 14.36 3.92 28.82 50.11 -3.84 14.37 -13.71 7.87c-11.39,6.53 -19.1,17.31 -23.14,32.24 -4,14.98 -2.78,28.12 3.79,39.51l165.12 287.17zm-807.73 349.24c12.36,36.52 34.36,61.7 65.82,75.58 31.55,13.83 66.81,14.12 105.78,0.94 31.54,-10.69 55.78,-26.73 72.56,-48.16 16.81,-21.38 28.07,-46.07 33.95,-73.94 5.79,-27.87 6.94,-57.42 3.3,-88.56 -3.59,-31.18 -10.65,-62.11 -21.01,-92.8 -10.41,-30.73 -24.57,-58.27 -42.61,-82.72 -17.95,-24.48 -38.76,-44.19 -62.39,-59.37 -23.63,-15.1 -49.71,-24.57 -78.27,-28.28 -28.57,-3.76 -58.61,-0.29 -90.15,10.4 -80.52,27.26 -128.06,84.97 -142.59,173.15l-10.77 9.19 -15.43 -0.33 -10.4 -10.37c-0.98,-30.15 0.69,-60.11 4.98,-89.78 4.32,-29.66 13.59,-57.54 27.87,-83.65 14.28,-26.12 34.4,-50.08 60.35,-71.83 25.96,-21.75 59.67,-39.62 101.17,-53.66 40.65,-13.75 81.94,-19.63 123.81,-17.63 41.83,2.04 81.74,12.08 119.82,30.2 38.07,18.12 72.43,44.4 103.08,78.92 30.61,34.49 54.64,77.46 72.07,128.92 17.43,51.46 23.63,100.47 18.57,147.07 -5.02,46.57 -18.41,89.01 -40.12,127.37 -21.71,38.36 -50.23,71.58 -85.57,99.73 -35.34,28.2 -74.19,49.42 -116.51,63.75 -37.34,12.65 -73.09,20.57 -107.13,23.79 -34.07,3.22 -65.53,1.8 -94.39,-4.12l-12.93 -9.51 -58.89 -153.52 6.53 -13.35 48.6 -16.44 13.31 6.61 7.59 22.4zm-675.27 -394.46c49.05,-1.26 95.25,6.37 138.63,22.77 43.34,16.45 81.66,39.59 114.84,69.42 33.21,29.83 59.74,65.33 79.61,106.47 19.88,41.14 30.45,86.23 31.67,135.28 1.23,48.2 -7.06,93.54 -24.81,136.1 -17.75,42.48 -42.48,79.49 -74.11,110.96 -31.63,31.46 -68.72,56.52 -111.2,75.13 -42.48,18.61 -88.23,28.56 -137.28,29.79 -48.2,1.22 -94.19,-6.41 -138.02,-22.86 -43.79,-16.4 -82.27,-39.54 -115.45,-69.37 -33.17,-29.83 -59.78,-65.54 -79.62,-107.08 -19.91,-41.59 -30.48,-86.48 -31.7,-134.63 -1.23,-49.09 7.02,-94.68 24.81,-136.75 17.79,-42.08 42.52,-78.88 74.15,-110.35 31.62,-31.5 68.88,-56.52 111.81,-75.17 42.93,-18.57 88.48,-28.52 136.67,-29.71zm1.8 72.28c-29.75,0.73 -56.07,8.2 -78.93,22.36 -22.93,14.16 -41.5,33.26 -55.78,57.29 -14.28,24.04 -24.98,52.77 -32,86.27 -7.02,33.47 -10.08,69.95 -9.06,109.37 0.98,39.42 5.88,75.66 14.57,108.76 8.74,33.09 20.82,61.25 36.32,84.55 15.47,23.31 35.02,41.42 58.6,54.4 23.55,13.02 50.2,19.1 79.99,18.37 30.69,-0.78 57.21,-8.25 79.66,-22.41 22.4,-14.16 40.77,-33.22 55.09,-57.25 14.28,-24.04 24.94,-52.81 32,-86.31 7.05,-33.47 10.03,-69.95 9.05,-109.33 -1.02,-39.42 -5.83,-75.7 -14.56,-108.8 -8.74,-33.09 -20.86,-61.25 -36.32,-84.51 -15.51,-23.3 -34.81,-41.42 -57.95,-54.44 -23.1,-13.02 -49.99,-19.1 -80.68,-18.32z"/>
   </g>
   <path class="fil11" d="M7282.13 7343.19c2.68,-11.79 9.65,-27.56 13.5,-40.18 21.56,-70.71 32.59,-158.59 18.9,-231.55 -3.8,-20.26 -14.94,-68.59 -35.11,-67.89 -19.58,0.68 -30.88,46.75 -34.75,69.78 -5.44,32.43 -6.6,66.1 -4.55,99.6 1.93,31.73 6.5,62.47 13.3,91.79 9.31,40.19 16.93,51.89 24.59,79.44 -7.94,-6.95 -15.75,-19.15 -21.61,-24.88 -22.74,-22.25 -38.7,-42.03 -68.03,-64.3 -35.3,-26.79 -67.22,-49.22 -110.78,-67.83 -17.39,-7.42 -74.21,-29.83 -92.91,-15.05 -13.23,10.46 5.84,33.83 10.62,39.97 21.71,27.87 70.83,59.91 101.02,75.94 51.24,27.21 114.08,50.55 178.94,58.9l-6.57 2.38c-37.49,8.72 -40.47,5.57 -89.59,22.04 -43.64,14.64 -83.1,33.61 -120.39,58.12 -17.88,11.75 -99.45,70.92 -74.3,93.17 17.81,15.76 77.37,-7.62 94.73,-15.32 41.68,-18.49 75.58,-40.46 109.44,-67.53 38.31,-30.62 29.08,-26.37 53.9,-49.72 13.08,-12.32 33.16,-37.12 35.22,-38.65 -3.34,12.88 -9.32,25.89 -13.58,39.58 -13.09,42.02 -21.79,88.97 -24.15,133.72 -8.46,160.73 54.05,230.16 75.33,94.63 11.68,-74.42 1.94,-160.04 -20.81,-231.36 -3.81,-11.95 -10.56,-26.88 -12.98,-37.42 4.9,5.07 8.28,9.84 13.7,15.96 14.1,15.93 27.28,31.84 43.65,45.68 50.04,42.31 74,64.57 142.09,95.42 79.95,36.21 146.9,27.45 52.81,-54.37 -56.8,-49.39 -171.1,-96.87 -250.8,-104.99 6.42,-3.11 39.16,-8.14 49.14,-10.52 15.88,-3.79 30.81,-7.78 45.9,-13 29.02,-10.05 57.27,-21.88 82.82,-35.21 28.82,-15.04 49.77,-29.85 72.28,-47.24 75.73,-58.49 57.77,-102.58 -50.49,-55.35 -39.05,17.04 -95.97,52.05 -127.42,81.5 -5.2,4.87 -10.26,7.88 -15.3,13.36l-57.76 61.38z"/>
  </g>
  <rect class="fil4" x="-0.02" y="-0.01" width="16255.99" height="9143.99"/>
 </g>
</svg>
