<svg viewBox="0 0 120 80" stroke="currentColor" stroke-width="1.5" stroke-linecap="round" stroke-linejoin="round" fill="none" xmlns="http://www.w3.org/2000/svg">
  <path d="M 10 55 L 40 55 L 40 30 L 10 30 Z" />
  <path d="M 12 53 L 12 33 L 38 33 L 38 53 Z" fill="rgba(255,255,255,0.15)" />
  <path d="M 40 50 L 50 50" />
  <path d="M 50 50 L 50 20 L 110 30 L 110 50 Z" />
  <path d="M 15 55 A 10 10 0 0 1 35 55" />
  <path d="M 65 55 A 10 10 0 0 1 85 55" />
  <path d="M 85 55 A 10 10 0 0 1 105 55" />
  <circle cx="25" cy="55" r="8" />
  <circle cx="25" cy="55" r="3" />
  <circle cx="75" cy="55" r="8" />
  <circle cx="75" cy="55" r="3" />
  <circle cx="95" cy="55" r="8" />
  <circle cx="95" cy="55" r="3" />
</svg>
