<svg xmlns="http://www.w3.org/2000/svg" viewBox="0 0 56 56" width="28" height="28" fill="none">
  <g stroke="#C4933F" stroke-opacity="0.8" stroke-width="1.1" stroke-linecap="round">
    <circle cx="28" cy="28" r="19.68"/>
    <path d="M 28 18.88 Q 26.5 13.6 28 8.32"/>
    <path d="M 32.56 20.1 Q 33.9 14.78 37.84 11.96"/>
    <path d="M 35.9 23.44 Q 39.72 19.5 45.04 18.16"/>
    <path d="M 37.12 28 Q 42.4 26.5 47.68 28"/>
    <path d="M 35.9 32.56 Q 41.22 33.9 45.04 37.84"/>
    <path d="M 32.56 35.9 Q 36.5 39.72 37.84 45.04"/>
    <path d="M 28 37.12 Q 29.5 42.4 28 47.68"/>
    <path d="M 23.44 35.9 Q 22.1 41.22 18.16 45.04"/>
    <path d="M 20.1 32.56 Q 16.28 36.5 11.96 37.84"/>
    <path d="M 18.88 28 Q 13.6 29.5 8.32 28"/>
    <path d="M 20.1 23.44 Q 14.78 22.1 11.96 18.16"/>
    <path d="M 23.44 20.1 Q 19.5 16.28 18.16 11.96"/>
  </g>
</svg>
